<svg fill="none" height="446" viewBox="0 0 375 446" width="375" xmlns="http://www.w3.org/2000/svg" xmlns:xlink="http://www.w3.org/1999/xlink"><linearGradient id="a" gradientUnits="userSpaceOnUse" x1="187" x2="186.703" y1="0" y2="426.5"><stop offset=".00397209" stop-color="#2c2e5e"/><stop offset=".0968235" stop-color="#333568"/><stop offset=".2" stop-color="#393b71"/><stop offset=".326275" stop-color="#444782"/><stop offset=".466845" stop-color="#545aa4"/><stop offset=".757516" stop-color="#8989da"/></linearGradient><linearGradient id="b" gradientUnits="userSpaceOnUse" x1="170.047" x2="244.777" y1="311" y2="28.0264"><stop offset=".667001" stop-color="#fff"/><stop offset="1" stop-color="#fff" stop-opacity=".47"/></linearGradient><linearGradient id="c" gradientUnits="userSpaceOnUse" x1="167.553" x2="119.587" y1="210.5" y2="406.534"><stop offset="0" stop-color="#f1f1ff"/><stop offset=".688103" stop-color="#fafaff"/><stop offset="1" stop-color="#d9d9fb"/></linearGradient><linearGradient id="d" gradientUnits="userSpaceOnUse" x1="368.5" x2="354.147" y1="276" y2="448.677"><stop offset="0" stop-color="#d9d9f6"/><stop offset="1" stop-color="#fff"/></linearGradient><linearGradient id="e" gradientUnits="userSpaceOnUse" x1="43.4999" x2="49.0303" y1="259.5" y2="445.029"><stop offset="0" stop-color="#e1e1f8"/><stop offset=".985155" stop-color="#fff"/></linearGradient><linearGradient id="f" gradientUnits="userSpaceOnUse" x1="260.379" x2="251.723" y1="265.399" y2="350.887"><stop offset="0" stop-color="#5764a2"/><stop offset=".997548" stop-color="#3d4277"/></linearGradient><linearGradient id="g" gradientUnits="userSpaceOnUse" x1="298.563" x2="297.298" y1="179.045" y2="191.544"><stop offset="0" stop-color="#bccdfa"/><stop offset="1" stop-color="#bccdfa" stop-opacity="0"/></linearGradient><linearGradient id="h" gradientUnits="userSpaceOnUse" x1="297.208" x2="296.205" y1="155.5" y2="171.5"><stop offset=".796875" stop-color="#222"/><stop offset="1" stop-color="#222" stop-opacity="0"/></linearGradient><linearGradient id="i" gradientUnits="userSpaceOnUse" x1="310.315" x2="306.741" y1="225.614" y2="278.309"><stop offset="0" stop-color="#90a5db"/><stop offset="1" stop-color="#aabcee" stop-opacity="0"/></linearGradient><linearGradient id="j" gradientUnits="userSpaceOnUse" x1="223.903" x2="270.347" y1="230" y2="258.39"><stop offset="0" stop-color="#d8d8ef"/><stop offset="1" stop-color="#fff"/></linearGradient><linearGradient id="k" gradientUnits="userSpaceOnUse" x1="19.5818" x2="19.5818" y1="0" y2="39.1863"><stop offset="0" stop-color="#5d6fca" stop-opacity=".45"/><stop offset="1" stop-color="#6775b9" stop-opacity=".77"/></linearGradient><linearGradient id="l" gradientUnits="userSpaceOnUse" x1="184.009" x2="175.317" y1="91.1025" y2="103.282"><stop offset="0" stop-color="#6a78b2"/><stop offset="1" stop-color="#546299"/></linearGradient><linearGradient id="m" gradientUnits="userSpaceOnUse" x1="182.856" x2="193.889" y1="85.0288" y2="104.113"><stop offset="0" stop-color="#a2acd7"/><stop offset="1" stop-color="#909ccb"/></linearGradient><linearGradient id="n" gradientUnits="userSpaceOnUse" x1="178.224" x2="190.625" y1="85.002" y2="102.098"><stop offset="0" stop-color="#b4bde7"/><stop offset="1" stop-color="#9fa9d3"/></linearGradient><linearGradient id="o" gradientUnits="userSpaceOnUse" x1="201.359" x2="180.933" y1="92" y2="127.286"><stop offset="0" stop-color="#b6c1ef"/><stop offset=".414544" stop-color="#abb8ec"/><stop offset="1" stop-color="#8996cb"/></linearGradient><linearGradient id="p" gradientUnits="userSpaceOnUse" x1="197.473" x2="195.763" y1="94" y2="122.787"><stop offset=".0539482" stop-color="#dbe2ff" stop-opacity=".2"/><stop offset="1" stop-color="#a5b2e6" stop-opacity=".48"/></linearGradient><mask id="q" fill="#fff"><path clip-rule="evenodd" d="m243.055 264.969c12.737-3.445 53.654 3.031 53.654 3.031l11.532 1.155 13.865 8.571s.262 1.803.118 4.609c-9.304 1.658-16.446 9.497-17.164 24.298-14.835 2.417-41.393-5.772-50.568-8.602-1.461-.45-2.481-.765-2.943-.879-4.03-.993-6.689 3.878-11.122 12.179-4.459 8.299-31.983 35.169-31.983 35.169s-11.985-3.572-14.106-4.479c-2.299-.977-3.087-2.147-3.087-2.147s39.068-69.46 51.804-72.905z" fill="#fff" fill-rule="evenodd"/></mask><path d="m0 0h375v446h-375z" fill="url(#a)"/><g fill="#fff" opacity=".6"><path d="m314.233 100.336c-.265.531.264 1.062.794.796.088-.088.176-.177.265-.265.264-.531-.265-1.0618-.795-.796-.088.088-.176.177-.264.265z" fill-opacity=".6"/><path d="m368.089 143.336c-.265.531.265 1.062.794.796.089-.088.177-.177.265-.265.265-.531-.265-1.062-.794-.796-.088.088-.177.177-.265.265z"/><path d="m367.092 189.336c-.265.531.264 1.062.794.796.088-.088.176-.177.265-.265.264-.531-.265-1.062-.795-.796-.088.088-.176.177-.264.265z"/><path d="m119.751 139.336c-.264.531.265 1.062.795.796.088-.088.176-.177.264-.265.265-.531-.264-1.062-.794-.796-.088.088-.176.177-.265.265z"/><path d="m223.475 58.336c-.265.531.264 1.0619.794.7964.088-.0885.176-.177.265-.2654.264-.5309-.265-1.0618-.795-.7964-.088.0885-.176.177-.264.2654z"/><path d="m91.8258 176.336c-.2648.531.2647 1.062.7942.796.0883-.088.1765-.177.2648-.265.2647-.531-.2648-1.062-.7943-.796-.0882.088-.1765.177-.2647.265z"/><path d="m17.0253 125.336c-.2648.531.2647 1.062.7942.796.0882-.088.1765-.177.2647-.265.2648-.531-.2647-1.062-.7942-.796-.0883.088-.1765.177-.2647.265z"/><path d="m362.105 95.3361c-.265.5309.265 1.0618.794.7963.088-.0885.177-.177.265-.2654.265-.5309-.265-1.0618-.794-.7964-.177.0885-.265.177-.265.2655z"/><path d="m268.355 48.336c-.265.531.265 1.0619.794.7964.088-.0885.177-.177.265-.2654.265-.5309-.265-1.0618-.794-.7964-.177.0885-.265.177-.265.2654z"/><path d="m171.613 297.336c-.265.531.265 1.062.794.796.089-.088.177-.177.265-.265.265-.531-.265-1.062-.794-.796-.177.088-.265.177-.265.265z"/><path d="m361.108 57.3361c-.265.5309.264 1.0618.794.7963.088-.0885.176-.177.265-.2654.264-.5309-.265-1.0618-.795-.7964-.176.0885-.264.177-.264.2655z"/><path d="m141.693 231.734c-.265.531.264 1.061.794.796.088-.088.176-.177.265-.265.264-.531-.265-1.062-.795-.797-.088.089-.176.177-.264.266z"/><path d="m161.64 286.336c-.265.531.264 1.062.794.797.088-.089.176-.177.264-.266.265-.531-.264-1.062-.794-.796-.088.088-.176.177-.264.265z"/><path d="m357.118 16.3361c-.264.5309.265 1.0618.795.7963.088-.0885.176-.177.264-.2654.265-.5309-.264-1.0618-.794-.7964-.176 0-.265.0885-.265.2655z"/><path d="m214.499 8.33606c-.265.5309.264 1.0618.794.79635.088-.08848.176-.17697.265-.26545.264-.53091-.265-1.0618-.795-.79635-.176.08848-.264.17697-.264.26545z"/><path d="m198.541 5.33606c-.265.5309.265 1.0618.794.79635.089-.08848.177-.17697.265-.26545.265-.53091-.265-1.0618-.794-.79635-.177.08848-.265.17697-.265.26545z"/><path d="m189.565 273.336c-.265.531.265 1.062.794.796.089-.088.177-.177.265-.265.265-.531-.265-1.062-.794-.796-.088.088-.177.177-.265.265z"/><path d="m32.9826 25.336c-.2647.531.2648 1.0619.7943.7964.0882-.0885.1765-.177.2647-.2654.2648-.5309-.2647-1.0618-.7942-.7964-.1765 0-.2648.0885-.2648.2654z"/><path d="m46.9454 4.33605c-.2647.5309.2648 1.06181.7943.79636.0882-.08848.1765-.17697.2647-.26545.2647-.53091-.2647-1.0618-.7942-.79635-.1765 0-.2648.08847-.2648.26544z"/><path d="m360.11 119.336c-.264.531.265 1.062.795.796.088-.088.176-.177.264-.265.265-.531-.264-1.062-.794-.796-.176 0-.265.088-.265.265z"/><path d="m101.799 95.3361c-.265.5309.265 1.0618.794.7963.089-.0885.177-.177.265-.2654.265-.5309-.265-1.0618-.794-.7964-.177.0885-.265.177-.265.2655z" fill-opacity=".6"/><path d="m107.783 215.336c-.265.531.265 1.062.794.796.089-.088.177-.177.265-.265.265-.531-.265-1.062-.794-.796-.177.088-.265.177-.265.265z"/><path d="m209.512 269.336c-.265.531.265 1.062.794.796l.265-.265c.265-.531-.265-1.062-.794-.796-.177.088-.265.177-.265.265z"/><path d="m19.0199 181.336c-.2648.531.2647 1.062.7942.796.0883-.088.1765-.177.2648-.265.2647-.531-.2648-1.062-.7943-.796-.1765.088-.2647.177-.2647.265z"/><path d="m362.105 180.336c-.265.531.265 1.062.794.796.088-.088.177-.177.265-.265.265-.531-.265-1.062-.794-.796-.177.088-.265.177-.265.265z"/><path d="m194.552 281.336c-.265.531.265 1.062.794.796.088-.088.177-.177.265-.265.265-.531-.265-1.062-.794-.796-.177.088-.265.177-.265.265z"/><path d="m139.698 271.336c-.265.531.265 1.062.794.796.089-.088.177-.177.265-.265.265-.531-.265-1.062-.794-.796-.177.088-.265.177-.265.265z"/><path d="m124.738 259.336c-.265.531.265 1.062.794.796.089-.088.177-.177.265-.265.265-.531-.265-1.062-.794-.796-.177.088-.265.177-.265.265z"/><path d="m34.9773 192.336c-.2648.531.2647 1.062.7942.796.0883-.088.1765-.177.2648-.265.2647-.531-.2648-1.062-.7943-.796-.1765.088-.2647.177-.2647.265z"/><path d="m141.693 17.3361c-.265.5309.264 1.0618.794.7963.088-.0885.176-.177.265-.2654.264-.5309-.265-1.0618-.795-.7964-.176.0885-.264.177-.264.2655z"/><path d="m208.515 13.3361c-.265.5309.264 1.0618.794.7963.088-.0885.176-.177.264-.2654.265-.5309-.264-1.0618-.794-.7964-.176.0885-.264.177-.264.2655z"/><path d="m98.8071 144.336c-.2647.531.2648 1.062.7943.796.0882-.088.1764-.177.2647-.265.2649-.531-.2647-1.062-.7942-.796-.1765.088-.2648.177-.2648.265z"/><path d="m167.624 167.336c-.265.531.264 1.062.794.796.088-.088.176-.177.265-.265.264-.531-.265-1.062-.795-.796-.176.088-.264.177-.264.265z"/><path d="m100.802 165.336c-.265.531.265 1.062.794.796.088-.088.177-.177.265-.265.265-.531-.265-1.062-.794-.796-.177.088-.265.177-.265.265z"/><path d="m270.35 104.336c-.265.531.264 1.062.794.796.088-.088.176-.177.265-.265.264-.531-.265-1.062-.795-.796-.176.088-.264.177-.264.265z" fill-opacity=".6"/><path d="m138.686 60.6696c.207-.2073.179-.5715-.062-.8134-.242-.2418-.605-.2699-.812-.0625-.206.2073-.178.5715.063.8133.241.2419.604.2699.811.0626z" fill-opacity=".6"/><path d="m196.112 96.7523c.207-.2071.179-.5708-.062-.8123-.242-.2416-.605-.2696-.812-.0625-.207.207-.18.5707.062.8123.242.2415.605.2695.812.0625z"/><path d="m113.707 32.6991c-.265.5309.264 1.0618.794.7963.088-.0884.176-.1769.265-.2654.264-.5309-.265-1.0618-.795-.7964-.088.0885-.176.177-.264.2655z"/><path d="m278.328 15.3361c-.264.5309.265 1.0618.795.7963.088-.0885.176-.177.264-.2654.265-.5309-.264-1.0618-.794-.7964-.088.0885-.176.177-.265.2655z" fill-opacity=".6"/><path d="m163.66 139.336c-.265.531.264 1.062.794.796.088-.088.176-.177.265-.265.264-.531-.265-1.062-.795-.796-.088.088-.176.177-.264.265z"/><path d="m23.1271 67.1888c.2413-.2419.2692-.606.0624-.8134-.2067-.2073-.5699-.1793-.8112.0626-.2412.2419-.2691.6061-.0624.8134.2068.2073.57.1793.8112-.0626z"/><path d="m132.778 110.336c.265.531-.264 1.062-.794.796-.088-.088-.176-.177-.265-.265-.264-.531.265-1.062.795-.796.088.088.176.177.264.265z"/><path d="m158.709 231.336c.265.531-.265 1.062-.794.796-.088-.088-.176-.177-.265-.265-.264-.531.265-1.062.794-.796.177 0 .265.088.265.265z"/><path d="m306.316 138.336c.264.531-.265 1.062-.795.796-.088-.088-.176-.177-.264-.265-.265-.531.264-1.062.794-.796.176 0 .265.088.265.265z"/><path d="m210.571 143.336c.265.531-.265 1.062-.794.797-.089-.089-.177-.177-.265-.266-.265-.531.265-1.062.794-.796.177.088.265.177.265.265z"/><path d="m97.8715 256.336c.2647.531-.2648 1.062-.7943.797-.0882-.089-.1765-.177-.2647-.266-.2648-.531.2647-1.062.7942-.796.1765.088.2648.177.2648.265z"/><path d="m235.504 150.336c.265.531-.264 1.062-.794.796-.088-.088-.176-.177-.265-.265-.264-.531.265-1.062.795-.796.088.088.176.177.264.265z"/><path d="m162.698 299.336c.265.531-.264 1.062-.794.796-.088-.088-.176-.177-.264-.265-.265-.531.264-1.062.794-.796.088.088.176.177.264.265z"/><path d="m282.379 104.336c.265.531-.264 1.062-.794.796-.088-.088-.176-.177-.265-.265-.264-.531.265-1.062.795-.796.088.088.176.177.264.265z"/><path d="m326.262 75.3361c.265.5309-.264 1.0618-.794.7963-.088-.0885-.176-.1769-.265-.2654-.264-.5309.265-1.0618.795-.7964.088.0885.176.177.264.2655z"/><path d="m145.388 113.219c.265.531-.265 1.062-.794.797-.089-.089-.177-.177-.265-.266-.265-.531.265-1.062.794-.796.088.088.265.177.265.265z"/><path d="m244.48 153.336c.265.531-.264 1.062-.794.796-.088-.088-.176-.177-.265-.265-.264-.531.265-1.062.795-.796.176.088.264.177.264.265z"/><path d="m198.603 222.336c.265.531-.265 1.062-.794.796-.089-.088-.177-.177-.265-.265-.265-.531.265-1.062.794-.796z"/><path d="m171.333 113.042c.265.531-.265 1.062-.794.797-.089-.089-.177-.177-.265-.266-.265-.531.265-1.062.794-.796.088 0 .177.177.265.265z"/><path d="m173.726 184.189c.241-.242.269-.606.062-.814-.207-.207-.57-.179-.811.063s-.269.606-.063.813c.207.208.57.18.812-.062z"/><path d="m271.409 137.336c.264.531-.265 1.062-.795.796-.088-.088-.176-.177-.264-.265-.265-.531.264-1.062.794-.796.088 0 .176.088.265.265z"/><path d="m135.77 221.336c.265.531-.264 1.062-.794.796-.088-.088-.176-.177-.265-.265-.264-.531.265-1.062.795-.796.088 0 .176.088.264.265z"/><path d="m260.438 189.336c.265.531-.265 1.062-.794.796-.088-.088-.177-.177-.265-.265-.265-.531.265-1.062.794-.796.088 0 .177.088.265.265z"/><path d="m335.238 109.336c.265.531-.264 1.062-.794.796-.088-.088-.176-.177-.265-.265-.264-.531.265-1.062.795-.796.088 0 .176.088.264.265z"/><path d="m264.483 23.1889c.242-.2419.27-.606.063-.8133-.207-.2074-.57-.1794-.811.0625-.242.2419-.27.6061-.063.8134s.57.1793.811-.0626z"/><path d="m19.851 15.565c.4451.8926-.4451 1.7852-1.3353 1.3389-.1484-.1488-.2968-.2975-.4452-.4463-.4451-.8926.4451-1.7852 1.3354-1.3389.2967 0 .4451.1488.4451.4463z"/></g><path d="m204.38 310.868c.149-.072.274-.132.374-.18l-5.004-10.855c-.109.077-.246.175-.409.29-.451.32-1.1.778-1.894 1.333-1.587 1.11-3.75 2.605-6.055 4.149s-4.754 3.138-6.912 4.443c-2.149 1.299-4.036 2.328-5.204 2.725h-.001c-2.717.914-6.602 1.056-10.586.967-1.934-.043-3.902-.141-5.785-.235l-.187-.009c-1.941-.097-3.784-.187-5.408-.205-1.627-.019-3.016.033-4.051.216-.518.091-.933.213-1.24.365s-.483.323-.565.501c-.08.172-.095.4.019.718.115.323.358.72.764 1.201.81.958 2.22 2.191 4.374 3.765 1.609.802 3.541 1.929 5.638 3.171.318.188.639.378.964.571 1.834 1.089 3.777 2.241 5.741 3.335 4.525 2.522 9.1 4.695 12.643 5.054.017-.095.035-.207.053-.32.024-.148.047-.297.064-.408l.02-.134.006-.038.001-.01.001-.002v-.001l.042-.282.283.027c1.054.103 1.896-.205 2.506-1.024.627-.88 1.017-1.9 1.327-2.873.016-.052.039-.11.057-.158.004-.01.008-.02.011-.029.023-.06.041-.11.052-.157l.002-.009.003-.009c.554-1.745 1.351-3.431 2.225-5.279.031-.064.062-.129.092-.194l.001-.001c.24-.503.693-1.039 1.273-1.585.584-.55 1.316-1.128 2.138-1.714 1.645-1.171 3.669-2.387 5.632-3.486 1.964-1.099 3.873-2.084 5.291-2.795.709-.355 1.295-.641 1.704-.839z" fill="#cbc7e0" stroke="#485088" stroke-width=".6"/><path d="m147.926 312.904v.004c-.03 1.398 1.444 7.154 10.512 10.207 4.605 1.55 6.576 2.587 8.183 3.635.391.255.757.508 1.132.767 1.16.802 2.408 1.664 4.748 2.829 3.11 1.548 6.049 2.619 8.406 2.797 1.176.089 2.186-.046 2.997-.435.803-.386 1.431-1.032 1.836-2.01l.003-.008c.304-.68.607-2.077.864-3.532.207-1.173.38-2.353.499-3.165.011-.075.021-.147.032-.216-1.868-.382-4.204-.523-6.779-.679-.367-.022-.74-.044-1.117-.068-3.129-.196-6.527-.463-9.734-1.242-3.963-.948-7.016-3.196-9.073-5.197-1.03-1.002-1.813-1.945-2.34-2.638-.263-.347-.463-.632-.597-.83-.049-.074-.09-.136-.122-.185l-1.889-.156h-.002c-.709-.062-1.369-.125-1.982-.183-1.618-.152-2.902-.274-3.854-.278-.66-.004-1.114.051-1.395.164-.135.055-.212.117-.257.176-.042.056-.07.13-.071.243z" fill="#6775b9" stroke="#485088" stroke-width=".6"/><path d="m102.228 297.5c0-32.604 84.275-15.35 84.275-56.5 0-52-111.7052-35.652-130.9554-84.993-25.6008-65.6182 30.8443-83.0374 72.6104-73.507 53.934 12.3068 94.147 47.5 159.575 47.5 26.154 0 61.951-2.842 85.771-14.822m-56.35-64.1781c26.088-1.8056 44.092.779 56.35 5.477" stroke="url(#b)" stroke-dasharray="4 4"/><rect fill="#7886d0" height="107.62" rx="11" width="136.821" x="11.968" y="212.842"/><rect fill="#9ba7e4" height="24.1329" rx="4" width="119.567" x="21.3969" y="223.741"/><path d="m38.4779 245.538c4.7168 0 8.5405-3.834 8.5405-8.563 0-4.73-3.8237-8.564-8.5405-8.564s-8.5405 3.834-8.5405 8.564c0 4.729 3.8237 8.563 8.5405 8.563z" fill="#6065b0"/><path d="m109.127 229.969h-52.7876c-.8599 0-1.5569.697-1.5569 1.557s.697 1.557 1.5569 1.557h52.7876c.86 0 1.557-.697 1.557-1.557s-.697-1.557-1.557-1.557z" fill="#6065b0"/><path d="m95.9281 239.31h-39.5887c-.8599 0-1.5569.697-1.5569 1.557s.697 1.557 1.5569 1.557h39.5887c.8599 0 1.5569-.697 1.5569-1.557s-.697-1.557-1.5569-1.557z" fill="#7886d0"/><rect fill="#9ba7e4" height="24.1329" rx="4" width="119.567" x="21.3969" y="254.102"/><path d="m39.7918 275.899c5.0796 0 9.1975-3.834 9.1975-8.563 0-4.73-4.1179-8.563-9.1975-8.563s-9.1974 3.833-9.1974 8.563c0 4.729 4.1178 8.563 9.1974 8.563z" fill="#6065b0"/><path d="m113.427 260.33h-57.0876c-.8599 0-1.5569.697-1.5569 1.557s.697 1.557 1.5569 1.557h57.0876c.86 0 1.557-.697 1.557-1.557s-.697-1.557-1.557-1.557z" fill="#6065b0"/><path d="m99.2129 269.671h-42.8735c-.8599 0-1.5569.697-1.5569 1.557s.697 1.557 1.5569 1.557h42.8735c.8601 0 1.5571-.697 1.5571-1.557s-.697-1.557-1.5571-1.557z" fill="#7886d0"/><rect fill="#9ba7e4" height="24.1329" rx="4" width="119.567" x="21.3969" y="284.462"/><path d="m38.4778 306.26c4.7167 0 8.5405-3.834 8.5405-8.564 0-4.729-3.8238-8.563-8.5405-8.563-4.7168 0-8.5405 3.834-8.5405 8.563 0 4.73 3.8237 8.564 8.5405 8.564z" fill="#6065b0"/><path d="m109.127 290.69h-52.7876c-.8599 0-1.5569.697-1.5569 1.557s.697 1.557 1.5569 1.557h52.7876c.86 0 1.557-.697 1.557-1.557s-.697-1.557-1.557-1.557z" fill="#6065b0"/><path d="m95.9281 300.032h-39.5887c-.8599 0-1.5569.697-1.5569 1.557s.697 1.557 1.5569 1.557h39.5887c.8599 0 1.5569-.697 1.5569-1.557s-.697-1.557-1.5569-1.557z" fill="#7886d0"/><path d="m-.00012207 361.086v-103.69c3.88247207 2.02 8.52542207 8.306 12.96532207 20.604 4.9776-9.483 33.3077-9.998 40.354 17.35-.41-2.929 19.4864-4.143 19.4864 8.15 21.9415-8 27.4264 5.5 27.4264 11.086 11.969-11.086 44.763-12.911 68.817 13.862 2.992-4.403 13.963-17.371 32.452-4.403 3.883.171 9.64 1.376 14.732 4.403 0 0 1.517-14.219 14.152-17.371 12.558-3.133 20.634 3.156 20.714 3.247.08.092.157.179.231.262 5.098-9.503 23.936-16.517 47.373-9.069 0-29.18 22.769-40.517 40.891-40.517-14.093-8.862 7.497-27.685 13.963-23.5-13.963-18-4.68-23.527 6.483-9.5-1.271-7.632 7.48-19.5 14.96-19.5v124.526l-116.228 52.974-25.39-6.572 10.391 62.572h-237.12438z" fill="url(#c)"/><path d="m375 251.723c-11.614-6.105-26.509-.729-30.918 36.354-36.082-19.077-42.441 12.761-37.4 33.923 0 0-30.894-10.054-35.406 19.5 0 0-12.965-14-23.437-7.5 0 0-10.472 4.5-3.989 21 0 0-23.937-8.5-19.449 18 0 0-42.885-15-44.88 30.5 0 0-47.045-10.605-47.355 42.5h242.834z" fill="#fff"/><path d="m79.2407 446h-79.24082207v-119.018c6.26922207 7.543 8.00448207 17.658 8.00448207 17.658 40.89784.707 22.12264 48.503 22.12264 48.503 20.3762-1.555 12.2257 27.858 12.2257 27.858 23.7237-4.667 18.7752 19.938 18.7752 19.938 7.6976.612 13.6009 2.462 18.1128 5.061z" fill="#fff"/><path d="m375 288.942c-3.218.78-6.793 3.596-7.776 11.924 0 0-9.486-5.061-15.351 9.379 0 0 7.072-3.871 13.454-1.638 0 0-12.764 3.275-16.041 19.353 0 0-1.208-4.317.69-11.016 0 0-23.114-12.207-28.288 13.249 0 0 9.659-7.145 16.731 4.466 0 0-14.144-3.87-23.113 9.975 0 0-14.144-11.017-19.319 8.336 0 0 15.524-4.466 26.391 16.078 0 0-18.629-21.586-45.019-7.741 0 0-21.734-17.12-25.011 12.207 0 0-21.733-3.424-17.939 15.483 0 0-16.041-6.699-22.423 12.207 0 0 7.762-12.207 30.875-2.233 0 0-30.185-5.508-46.916 17.715 0 0-1.207-7.741 7.762-15.482 0 0-52.952-17.157-53.297 44.796h224.59z" fill="url(#d)"/><path d="m81.1114 446c-5.4029-4.668-14.3436-8.368-29.0205-8.919 0 0 .288 4.165-1.9278 8.919z" fill="url(#d)"/><path d="m45.4329 446c1.3275-9.636 1.0096-25.317-13.868-29.463 0 0 1.8974-29.922-18.6286-26.052 0 0 1.0349-15.333-12.074056-14.887 0 0 23.458256-4.466 12.591556-22.181 0 0-3.2684 11.717-13.45404414 12.367v80.216z" fill="url(#d)"/><path d="m-.00024414 359.476v-20.923c8.02964414 7.768 4.26735414 15.777 0 20.923z" fill="url(#d)"/><path d="m-.00012207 283.729v162.271h216.21512207l-9.921-39.884v-.148c-10.004 12.058-9.487 28.583-9.487 28.583-3.449-16.227 3.968-31.263 3.968-31.263-30.186-42.428-61.751-16.822-61.751-16.822 7.51-8.882 8.516-9.151 8.625-8.922v.138s.025-.083 0-.138c-.079-65.338-55.7137-47.351-55.7137-47.351 9.4867 8.039 8.1067 16.227 8.1067 16.227-17.421-24.415-48.9861-18.609-48.9861-18.609 24.1482-10.421 32.2551 2.382 32.2551 2.382-6.727-19.799-23.4582-12.802-23.4582-12.802 3.9672-19.651-18.8011-16.227-18.8011-16.227-3.4497-30.816-26.218-12.803-26.218-12.803-5.26613-2.755-10.23711-4.161-14.83382207-4.632z" fill="url(#e)"/><path d="m199.707 360.892.001-.003c.325-1.256.295-2.59.258-3.939-.066-2.549 1.406-5.122 2.906-7.433h.001c1.29-1.979 3.761-5.131 5.901-7.779 1.071-1.326 2.062-2.53 2.786-3.401.362-.436.656-.789.861-1.033.018-.022.036-.043.053-.064l-13.678-5.571c-.044.089-.098.2-.164.331-.185.373-.455.907-.793 1.556-.675 1.298-1.624 3.054-2.715 4.884-1.091 1.829-2.328 3.738-3.579 5.341-1.244 1.593-2.53 2.918-3.725 3.538-1.151.607-2.252 1.249-3.339 1.883l-.086.05c-1.113.649-2.213 1.289-3.327 1.863-2.23 1.15-4.533 2.046-7.171 2.253h-.001c-.294.021-.579.044-.865.066h-.001c-.285.023-.572.045-.866.067h-.003c-.292.019-.583.037-.871.055-1.969.124-3.812.24-5.203.437-.8.113-1.424.25-1.829.418-.203.085-.326.168-.39.237-.054.06-.059.098-.053.137.088.532.681 1.619 2.348 2.75 1.656 1.124 4.348 2.273 8.563 2.938 4.074.642 5.867.565 7.292.504.057-.003.114-.005.171-.008 1.497-.063 2.675-.072 5.681.805 2.972.867 5.756 1.509 7.901 1.483 1.071-.013 1.954-.192 2.616-.57.651-.371 1.108-.943 1.32-1.795z" fill="#e3dfee" stroke="#485088" stroke-width=".6"/><path d="m163.802 355.051.001.004c.217 1.218 2.513 6.003 11.003 7.076 4.318.546 6.235 1.109 7.834 1.745.389.155.756.313 1.132.475 1.159.498 2.404 1.033 4.663 1.641 3.002.809 5.767 1.227 7.863.967 1.045-.129 1.902-.426 2.54-.907.631-.476 1.065-1.148 1.246-2.071l.002-.009c.146-.646.166-1.923.135-3.247-.024-1.067-.08-2.133-.119-2.867-.003-.057-.006-.112-.008-.165-1.7-.002-3.763.286-6.039.603-.326.046-.658.092-.993.138-2.783.383-5.817.75-8.773.633-3.655-.13-6.738-1.567-8.9-2.962-1.082-.698-1.937-1.388-2.523-1.905-.293-.258-.519-.473-.672-.624-.051-.051-.094-.095-.129-.13l-1.671.196h-.002c-.634.071-1.226.133-1.775.191-1.447.152-2.594.273-3.429.437-.58.114-.963.241-1.185.387-.106.07-.158.134-.184.187-.023.05-.035.113-.017.207z" fill="#6775b9" stroke="#485088" stroke-width=".6"/><path d="m232.194 226.698 1.314-5.272c-.046-.001-.095-.003-.148-.005-.336-.017-.803-.063-1.33-.18-1.052-.234-2.369-.757-3.353-1.923-.271-.322-.517-.636-.747-.931l-.026-.034c-.239-.306-.46-.588-.683-.844-.445-.51-.878-.89-1.417-1.105-.215-.084-.552-.133-1.012-.176-.137-.013-.284-.025-.439-.038-.343-.028-.722-.06-1.11-.108-1.13-.138-2.431-.419-3.493-1.217l-.017-.013-.015-.015c-2.23-2.237-3.882-3.339-5.046-3.822-1.166-.483-1.79-.327-2.044-.149-.032.026-.089.105-.108.318-.02.209.002.492.068.839.131.692.423 1.579.809 2.517.775 1.88 1.898 3.896 2.769 4.887.259.295.76.625 1.464.985.694.354 1.552.72 2.494 1.096.661.264 1.365.534 2.08.808 1.308.501 2.651 1.015 3.83 1.534.92.404 2.544 1.156 3.935 1.805.696.325 1.335.624 1.8.843.165.077.309.145.425.2z" fill="#f4ecec" stroke="#4b4f90" stroke-width=".6"/><path d="m195.427 309.461v.001c.394.61.717 1.363 1.022 2.113.053.131.106.262.158.392.253.626.499 1.238.777 1.784.336.662.697 1.184 1.125 1.494.409.296.898.412 1.551.221 19.23-5.606 41.433-13.519 60.693-21.8 9.63-4.14 18.521-8.371 25.934-12.45 7.419-4.082 13.341-8.002 17.048-11.519.448-.425.567-.813.511-1.175-.06-.386-.328-.813-.807-1.277-.957-.927-2.601-1.86-4.365-2.772-.502-.259-1.013-.517-1.518-.771-1.249-.629-2.459-1.238-3.389-1.807-.652-.399-1.199-.797-1.533-1.19-.168-.198-.298-.415-.347-.647-.051-.244-.008-.485.136-.704.458-.698.651-1.249.658-1.675.008-.406-.153-.725-.482-.987-.343-.273-.874-.486-1.597-.629-.718-.142-1.601-.21-2.624-.212-4.099-.004-10.293 1.062-16.753 2.496-6.451 1.432-13.141 3.223-18.219 4.658-2.539.717-4.674 1.344-6.174 1.792-.75.225-1.342.404-1.745.527-.202.062-.357.109-.462.141l-.118.037-.02.013-.161.104c-.141.092-.35.228-.619.404-.538.351-1.317.859-2.283 1.492-1.931 1.264-4.606 3.021-7.585 4.994-5.959 3.945-13.128 8.747-17.976 12.183-4.749 3.365-10.853 7.598-15.769 10.989-2.458 1.695-4.62 3.181-6.167 4.242-.773.531-1.393.956-1.819 1.248l-.474.324c.004.011.008.023.012.036.054.161.133.393.232.68.199.575.482 1.367.815 2.237.67 1.749 1.535 3.784 2.334 5.013z" fill="#41477e" stroke="#434580" stroke-width=".6"/><path clip-rule="evenodd" d="m243.055 264.969c12.737-3.445 53.654 3.031 53.654 3.031l11.532 1.155 13.865 8.571s.262 1.803.118 4.609c-9.304 1.658-16.446 9.497-17.164 24.298-14.835 2.417-41.393-5.772-50.568-8.602-1.461-.45-2.481-.765-2.943-.879-4.03-.993-6.689 3.878-11.122 12.179-4.459 8.299-31.983 35.169-31.983 35.169s-11.985-3.572-14.106-4.479c-2.299-.977-3.087-2.147-3.087-2.147s39.068-69.46 51.804-72.905z" fill="url(#f)" fill-rule="evenodd"/><path d="m296.709 268-.06.597-.017-.002-.017-.002zm-53.654-3.031-.157-.579zm65.186 4.186.06-.597.138.013.118.073zm13.865 8.571.315-.511.238.148.041.277zm.118 4.609.6.031-.025.476-.469.084zm-17.164 24.298.599.03-.024.485-.479.078zm-50.568-8.602-.177.573zm-2.943-.879.143-.583h.001zm-11.122 12.179.53.283-.001.002zm-31.983 35.169.419.43-.252.246-.338-.101zm-14.106-4.479.235-.552.001.001zm-3.087-2.147-.498.335-.206-.307.181-.323zm105.458-69.874c-.094.593-.094.593-.094.593s-.001-.001-.001-.001c-.001 0-.003 0-.006 0-.005-.001-.012-.002-.022-.004-.019-.003-.048-.008-.087-.014-.077-.012-.193-.03-.344-.053-.302-.046-.746-.114-1.317-.199-1.142-.17-2.788-.409-4.803-.686-4.03-.552-9.535-1.253-15.437-1.846-5.902-.594-12.194-1.078-17.799-1.201-5.624-.122-10.493.123-13.587.959l-.314-1.158c3.275-.886 8.296-1.123 13.926-1 5.649.123 11.975.611 17.894 1.206 5.92.595 11.44 1.298 15.48 1.852 2.02.277 3.67.516 4.816.687.573.085 1.02.153 1.323.2.152.023.268.041.346.054.04.006.069.01.089.014.01.001.018.002.023.003.002.001.004.001.005.001h.002s0 0-.093.593zm11.473 1.752-11.533-1.155.119-1.194 11.533 1.155zm13.609 8.484-13.865-8.571.631-1.021 13.864 8.571zm-.166 4.068c.071-1.378.042-2.508-.005-3.291-.023-.391-.05-.695-.072-.899-.011-.103-.02-.18-.026-.231-.003-.025-.006-.044-.008-.056 0-.006-.001-.01-.001-.013-.001-.001-.001-.002-.001-.002s0 0 .594-.086.594-.086.594-.086v.001.001c0 .002.001.003.001.006 0 .004.001.01.002.018.003.016.006.039.009.068.008.059.018.144.029.255.024.221.053.543.077.954.049.82.079 1.995.006 3.423zm.705.622c-4.51.804-8.485 3.1-11.429 6.992-2.948 3.898-4.887 9.433-5.242 16.745l-1.199-.059c.364-7.489 2.355-13.274 5.484-17.411 3.133-4.142 7.38-6.594 12.175-7.448zm-67.662 14.532c4.588 1.414 13.499 4.162 23.113 6.255 9.636 2.098 19.886 3.517 27.182 2.328l.193 1.185c-7.539 1.228-17.985-.24-27.63-2.34-9.668-2.105-18.623-4.867-23.211-6.282zm-2.975-.889c.483.12 1.527.442 2.975.889l-.353 1.146c-1.473-.454-2.469-.761-2.91-.87zm-11.795 12.48c2.206-4.131 4.008-7.484 5.775-9.67.887-1.098 1.799-1.946 2.791-2.446 1.011-.51 2.079-.647 3.228-.364l-.287 1.165c-.865-.213-1.641-.113-2.4.27-.779.393-1.564 1.096-2.399 2.129-1.678 2.077-3.422 5.31-5.649 9.481zm-31.454 35.451c-.419-.429-.419-.43-.419-.43.001 0 .001 0 .001-.001.001 0 .002-.002.004-.003l.015-.015c.013-.013.033-.032.059-.057.052-.051.129-.127.23-.226.203-.199.5-.491.88-.866.761-.75 1.852-1.831 3.176-3.155 2.648-2.646 6.225-6.261 9.94-10.135 3.717-3.874 7.568-8.003 10.766-11.678 3.212-3.692 5.724-6.88 6.803-8.887l1.057.569c-1.151 2.142-3.752 5.425-6.955 9.106-3.216 3.696-7.082 7.841-10.804 11.721-3.723 3.882-7.306 7.503-9.958 10.153-1.326 1.326-2.42 2.409-3.182 3.161-.381.375-.679.669-.882.868-.102.099-.18.175-.232.227-.026.025-.046.045-.059.058-.007.006-.012.011-.015.015-.002.001-.003.002-.004.003s-.001.001-.001.001-.001.001-.42-.429zm-13.87-5.03c1.023.437 4.509 1.545 7.789 2.557 1.629.503 3.192.977 4.348 1.326.578.175 1.055.318 1.386.417.166.05.295.088.384.115.044.013.077.023.1.03.011.003.02.006.026.007.003.001.005.002.006.002.001.001.001.001.002.001s0 0-.171.575-.171.575-.171.575c-.001 0-.001 0-.002-.001-.002 0-.004-.001-.007-.002-.005-.001-.014-.004-.025-.007-.023-.007-.057-.017-.101-.03-.089-.027-.219-.066-.385-.115-.332-.1-.809-.243-1.388-.418-1.157-.349-2.723-.824-4.355-1.328-3.243-1.001-6.81-2.132-7.907-2.601zm-3.323-1.596c.497-.335.497-.336.497-.336 0-.001-.001-.001-.001-.001 0-.001 0-.001-.001-.001 0-.001 0-.001 0-.002-.001 0 0 .001.001.003.003.004.009.012.018.023.018.024.05.063.096.116.091.104.242.261.461.449.439.376 1.159.88 2.251 1.344l-.469 1.105c-1.207-.514-2.032-1.084-2.562-1.537-.264-.227-.455-.424-.583-.569-.064-.073-.112-.133-.146-.177-.016-.022-.03-.04-.04-.054-.005-.007-.009-.013-.012-.018-.002-.002-.003-.004-.005-.006 0-.001-.001-.002-.001-.002-.001-.001-.001-.001-.001-.001 0-.001 0-.001 0-.001-.001 0-.001 0 .497-.335zm51.961-72.326c-1.43.387-3.338 1.748-5.621 3.972-2.259 2.202-4.811 5.175-7.53 8.663-5.437 6.974-11.503 15.961-17.178 24.853-5.675 8.89-10.952 17.673-14.812 24.235-1.929 3.281-3.504 6.006-4.596 7.91-.546.952-.972 1.699-1.26 2.208-.145.255-.255.449-.329.581-.037.065-.065.115-.084.148-.009.017-.017.029-.021.038-.003.004-.004.007-.005.009-.001.001-.001.002-.002.002 0 .001 0 .001-.523-.293-.523-.295-.523-.295-.523-.296.001 0 .001-.001.002-.002.001-.002.003-.005.005-.01.005-.008.012-.021.022-.038.018-.033.047-.083.084-.149.074-.132.185-.328.33-.583.29-.51.716-1.259 1.263-2.213 1.094-1.907 2.671-4.636 4.603-7.921 3.864-6.569 9.149-15.366 14.834-24.272 5.683-8.903 11.772-17.927 17.243-24.946 2.735-3.508 5.325-6.527 7.639-8.783 2.292-2.234 4.391-3.797 6.145-4.271z" fill="#434580" mask="url(#q)"/><path d="m288.354 196.587c10.889 8.816 27.527 30.958 26.59 35.757 0 0 21.773 22.882 26.248 0 0 0 12.529-1.594 4.959-18.644 3.99-3.79 2.2-12.315-6.302-14.11 0-3.87-1.79-11.665-12.082-11.665-5.248-4.038-7.564-4.922-6.59-10.888.971-5.939-3.702-33.083-17.397-27.002 0 0-.624-3.389-5.547-3.389 0 0 2.601 2.213 3.073 2.819-2.017-.337-4.935-.473-7.499.651-10.445 4.578-8.551 20.759-9.446 30.181-8.055 17.947 2.764 14.04 3.993 16.29z" fill="#2c2e5e"/><path d="m289.564 195.278c-.055.021 5.319 3.544 9.734 2.821 4.147-.697 7.281-5.62 7.231-5.651-1.68-.516-1.919-2.908-.882-12.936l-.781.081-13.208 1.242s-.121 4.11-.479 7.931c-.323 3.212-.842 6.244-1.615 6.512z" fill="#f4ecec"/><path d="m291.944 181.46s-.517 4.877-.951 9.445c6.993.454 14.431-4.852 13.725-11.237z" fill="url(#g)"/><path d="m306.354 178.307s4.403-5.618 5.84-10.632c1.028-3.593.521-17.342-13.337-16.777 0 0-3.996-.006-7.993 2.116-3.156 1.702-7.89 5.584-4.28 17.892l.836 4.127z" fill="#4b5999"/><path d="m306.731 177.316-.216-.004-.073.203c-.929 2.577-2.32 4.972-4.367 6.629-2.038 1.65-4.749 2.589-8.366 2.225-2.46-.41-4.202-1.701-5.4-3.702-1.208-2.018-1.869-4.767-2.122-8.079-.18-2.35-.028-5.517.295-8.518.313-2.903.785-5.625 1.263-7.283.68-.178 1.362-.61 2.05-1.088.177-.124.356-.251.537-.38.602-.427 1.228-.872 1.915-1.258.887-.498 1.854-.882 2.941-.971 1.085-.088 2.31.115 3.719.822 2.794 1.402 5.796 4.873 8.052 8.499 1.124 1.807 2.053 3.636 2.671 5.242.623 1.619.913 2.965.807 3.824-.222 1.81-.895 2.757-1.607 3.258-.722.508-1.536.593-2.099.581z" fill="#faf4f4" stroke="#222" stroke-width=".6"/><path d="m308.677 172c.499 1.5-.532 3-1.496 3h-.499l.499-3z" fill="#d8ddf3"/><path clip-rule="evenodd" d="m298.315 169.787c.035-.896-.225-1.626-.582-1.63-.356-.004-.673.719-.708 1.615-.035.895.225 1.626.581 1.629.356.004.674-.718.709-1.614z" fill="#222" fill-rule="evenodd"/><path clip-rule="evenodd" d="m289.11 169.529c.035-.896-.225-1.626-.582-1.63-.356-.005-.673.719-.708 1.614-.035.896.225 1.626.581 1.63s.674-.718.709-1.614z" fill="#222" fill-rule="evenodd"/><path d="m292.272 169.786-1.031 5.944c-.103.591.334 1.139.932 1.169l1.236.062" stroke="#222" stroke-linecap="round" stroke-width=".6"/><path d="m295.413 179.706c-.682.659-2.53 1.555-4.473-.125" stroke="#222" stroke-linecap="round" stroke-linejoin="round" stroke-width=".6"/><path d="m307.765 159.008s-10.904-9.19-15.18-4.038c-1.036-1.089-2.945-1.973-5.933.969-4.468 4.415-1.79 13.277-1.79 13.277 1.617.35 2.548-5.195 3.692-7.818.839-1.99 3.212-3.851 4.333-4.668 1.164 3.522 4.467 11.995 9.992 14.017 7.015 2.573 10.347.968 10.347.968s-5.072-4.928-5.461-12.707z" fill="#2c2e5e"/><path d="m313.165 172c-13.564 1.6-18.949-9.333-19.947-15-.997 0-3.856 1.282-5.485 7-.997 3.5-1.496 5-2.992 5.5" stroke="url(#h)" stroke-width=".6"/><path d="m322.141 281c-.28-4.584-18.949-10-18.949-10l-30.419-4.5s2.992-14 2.992-35.5c4.488-19.5 14.721-37.283 14.721-37.283s3.608 11.672 16.247.254c.087-.043 10.167 4.065 14.737 14.627 5.063 11.643 4.597 16.629 2.583 36.621-2.168 21.522 1.577 28.843-1.912 35.781z" fill="#bccbf1"/><path d="m290.719 192.283-12.519 35.41s-1.304 1.836-3.3 4.453c-4.722 6.145-13.358 16.494-18.272 17.14-2.43.313-7.268-2.172-12.576-5.555-10.015-6.387-16.805-16.038-16.805-16.038-.332-4.901 4.285-8.423 4.285-8.423s19.469 12.078 21.956 12.516c5.42.948 13.666-24.84 19.642-33.119 4.358-5.968 17.589-6.384 17.589-6.384z" fill="#bccbf1"/><path d="m317.858 279.433c-.583-.065-1.194-.167-1.829-.304-.522-.293-1.234-.68-2.088-1.144-6.986-3.793-5.986 5.046-5.264 0 .465-3.198 1.312-5.159 2.089-6.958 1.253-2.902 4.191-20.953 3.175-27.527-1.081-7-8.447-20.821-1.275-26 1.603-1.157 5.105-.714 5.755-1.27 4.868 11.983 4.973 12.526 2.572 19.437-2.517 7.247-.353 16.882 1.533 25.282 1.168 5.198 2.229 9.924 2.008 13.316-1.153 3.06-3.533 4.642-6.676 5.168z" fill="url(#i)"/><path d="m274.9 232.146c-4.722 6.145-13.358 16.494-18.272 17.14-2.43.313-7.269-2.172-12.576-5.555 3.955 1.464 7.914 1.838 11.802 1.86 4.207.027 5.935-4.958 13.301-11.952 4.771-4.517 5.699-3.147 5.745-1.493z" fill="#aec0f1"/><path d="m290.161 249.293-.081-.018-.06-.057c-.585-.556-1.694-1.072-3.072-1.468-1.366-.393-2.954-.657-4.461-.733-1.512-.076-2.914.038-3.921.382-1.013.345-1.521.877-1.504 1.594.001.047.033.158.153.342.113.174.283.381.503.611.438.46 1.054.988 1.754 1.505 1.409 1.04 3.106 1.992 4.333 2.255 1.272.26 3.746.509 5.92.693 1.083.092 2.086.167 2.818.22.366.026.665.046.871.06l.06.004.889-4.454z" fill="#f4ecec" stroke="#4b4f90" stroke-width=".6"/><path d="m306.529 192.448s13.891 2.284 18.039 9.513c5.85 10.167 17.955 54.001 9.657 58.613-9.343 5.198-42.499-4.489-42.499-4.489s-.543-4.923 1.114-7.095c1.658-2.173 26.116-1.52 27.306-2.49s-12.106-24.35-11.783-27.562c.353-3.236-1.834-26.49-1.834-26.49z" fill="#bccaf1"/><path d="m291.073 191.065c.746 1.795 3.043 5.474 6.265 5.833.046.091.081.183.107.277.193-.143.454-.24.788-.277 3.222-.359 7.309-3.739 8.95-5.384 1.432.359 3.281 1.645 4.027 2.243l3.133.898c-.448 1.944-4.565 7.627-8.503 9.422-3.567 1.626-8.076-2.641-8.753-5.283-1.271 1.939-5.224 3.714-8.251 3.04-3.94-.878-7.16-5.833-6.712-8.077 1.044-.448 5.456-2.257 7.604-2.257z" fill="#fff" stroke="#3f4179" stroke-width=".6"/><path d="m310.173 223c0 1.246 9.973 18.517 9.973 23.5l-27.427 1.5c-.664 1-1.795 4-.997 8 6.815 2.333 23.238 6.8 34.408 6 5.32 1 14.761-2 9.974-22-1.496-14.167-7.879-43-21.443-45l-6.981-3.5h-1.496m-15.459 0c-4.987.667-15.758 3.3-18.95 8.5-3.989 6.5-12.965 30.5-16.456 31.5-2.792.8-16.622-8.5-23.936-12.5" stroke="#2d2f5f" stroke-linecap="round" stroke-width=".6"/><path d="m320.146 246.5h4.488" stroke="#2d2f5f" stroke-width=".6"/><path d="m323.138 262.5c.832 4.167 1.696 13.7-1.496 18.5" stroke="#2d2f5f" stroke-width=".6"/><path d="m276.263 249c0-4.5-2.493-16.5 2.494-28" stroke="#2d2f5f" stroke-width=".6"/><path d="m279.47 263.458-51.485-5.213-6.03-33.245 51.405 5.205z" fill="url(#j)"/><path d="m227.769 256.947 67.811 6.867-.41 4.077-67.468-6.832z" fill="#d8d8ef"/><path d="m247.676 243.817c-.203-1.164.549-2.019 1.683-1.904 1.135.115 2.229 1.156 2.457 2.323.203 1.164-.549 2.019-1.683 1.904-1.135-.115-2.229-1.156-2.457-2.323z" fill="#8794ca"/><g fill="#fff"><path clip-rule="evenodd" d="m49.2023 75c-.0183 2.7669-1.7254 3.2592-3.3246 3.3036 2.8704.5047 3.1311.9135 3.4 3.6964.0632-2.0419.3728-3.4973 3.5814-3.954-.6234.0106-3.836.7339-3.6568-3.046z" fill-rule="evenodd"/><path clip-rule="evenodd" d="m211.769 59c-.019 2.7669-1.726 3.2592-3.325 3.3036 2.87.5047 3.131.9135 3.4 3.6964.063-2.0419.373-3.4973 3.581-3.954-.623.0106-3.836.7339-3.656-3.046z" fill-rule="evenodd"/><path clip-rule="evenodd" d="m28.1158 93c-.0341 5.1386-3.2045 6.0528-6.1744 6.1353 5.3307.9377 5.815 1.6967 6.3144 6.8647.1172-3.792.6923-6.495 6.651-7.3432-1.1577.0198-7.124 1.3632-6.791-5.6568z" fill-rule="evenodd"/><path d="m88.6674 163.565c.4451.893-.4451 1.785-1.3353 1.339-.1484-.149-.2968-.298-.4452-.446-.4451-.893.4451-1.786 1.3354-1.339.2967 0 .4451.148.4451.446z"/><path d="m335.01 167.565c.446.893-.445 1.785-1.335 1.339-.148-.149-.297-.298-.445-.446-.445-.893.445-1.786 1.335-1.339.297 0 .445.148.445.446z"/><path d="m192.428 50.2793c.22.4414-.22.8827-.66.662-.073-.0735-.147-.1471-.22-.2206-.22-.4413.22-.8827.66-.662.147 0 .22.0735.22.2206z"/><path d="m14.8429 187.559c.4402.882-.4401 1.765-1.3204 1.324-.1467-.147-.2934-.295-.4401-.442-.4401-.882.4401-1.765 1.3204-1.324.2934 0 .4401.147.4401.442z"/><path d="m237.271 159.565c.445.893-.445 1.785-1.335 1.339-.149-.149-.297-.298-.445-.446-.445-.893.445-1.786 1.335-1.339.297 0 .445.148.445.446z"/><path d="m31.819 137.565c.4451.893-.4451 1.785-1.3353 1.339-.1484-.149-.2968-.298-.4451-.446-.4451-.893.4451-1.786 1.3353-1.339.2967 0 .4451.148.4451.446z"/></g><ellipse fill="url(#k)" rx="19.5818" ry="19.5931" transform="matrix(.779152 -.626835 .624807 .780779 296.781 47.5725)"/><path d="m301.895 51.1405-.03.054-.015.0593c-.212.8201-.276 1.3475-.257 1.7597.011.2378.054.4423.096.6119-.114.0544-.266.1186-.452.1901-.504.193-1.196.415-1.901.6161-.706.2009-1.411.377-1.941.4806-.201.0392-.367.0662-.494.081-.072-.1855-.167-.3872-.321-.622-.235-.3565-.596-.774-1.199-1.3544l-.045-.0427-.053-.0307c-1.82-1.0427-2.827-2.1585-3.389-3.0475-.558-.8822-.691-1.5621-.733-1.7749v-.0042c-.001-.002-.001-.0043-.002-.0068-.004-.0231-.012-.0649-.021-.0973-.424-1.54-.222-3.1871.562-4.5788.776-1.3775 2.058-2.3925 3.569-2.828l.011-.0033.012-.0038c.08-.0273.161-.0529.242-.0769 1.526-.4474 3.164-.2677 4.556.4997s2.424 2.0601 2.867 3.5945c.009.0323.024.0722.032.0942.001.0024.002.0046.003.0065.128.3444.904 2.7315-1.097 6.4237z" stroke="#fff"/><path d="m293.156 47.5174-.696.1947c-.325-1.204-.163-2.4892.452-3.5744.615-1.0853 1.632-1.8823 2.829-2.2168l.192.6998c-1.012.2829-1.872.9566-2.392 1.8741s-.659 2.0042-.385 3.0226z" fill="#fff"/><path d="m296.341 55.2756 5.914-1.7845.285.947-5.914 1.7845z" fill="#fff"/><path d="m297.429 56.6923 4.791-1.4244.285.947-4.792 1.4244z" fill="#fff"/><path d="m298.717 58.0491 3.467-.9519.285.947-3.467.9519z" fill="#fff"/><path d="m288.525 42.0605c.26-.5285.562-1.0324.91-1.4993l-2.548-1.7155c-.4-.2703-.937-.1587-1.199.2495-.262.4068-.15.9551.25 1.2243zm6.144-4.8874c.008-.0017.015-.0031.024-.0051.279-.0578.557-.0972.833-.1248l-.6-2.933c-.098-.4783-.557-.7872-1.025-.6898-.469.0973-.768.5639-.67 1.0422l.6 2.9324c.265-.0841.536-.1591.814-.217.009-.0017.017-.0034.024-.0049zm7.563 2.0361 1.69-2.6291c.263-.407.15-.9554-.251-1.2244-.399-.2705-.937-.1587-1.199.2495l-1.668 2.592c.504.2897.98.6314 1.428 1.012zm-14.532 9.4258c-.086-.4183-.137-.8344-.172-1.2488l-3.014.6267c-.467.0971-.768.5641-.67 1.0423.098.4783.557.7872 1.024.6901l2.945-.6122c-.041-.1633-.079-.328-.113-.4981zm20.551-5.5578-3.013.6265c.132.3944.247.7972.333 1.2154.034.1701.065.3363.093.5023l2.942-.6118c.468-.0974.767-.5639.669-1.0423-.098-.4783-.556-.7875-1.024-.6901zm-3.115 8.0498c-.239.588-.512 1.11-.78 1.5863l1.876 1.2636c.401.2689.939.1571 1.2-.2495.262-.4081.15-.9554-.251-1.2256zm-15.939 5.1143c-.261.4079-.149.9551.251 1.2256.401.269.938.1573 1.2-.2495l1.227-1.9101c-.432-.3293-.889-.7008-1.339-1.1443z" fill="#fff"/><path d="m202.759 122.897-37.031 4.103c-1.638 0-5.156-1.539-5.156-5.128v-25.1285c0-1.7666 0-5.2435 4.422-6.1794l37.765-3.5641c1.639 0 4.688-.1154 4.688 4.5v26.269c-.017 1.767-.938 5.128-4.688 5.128z" fill="url(#l)"/><path d="m197.599 76.5059-29.486 17.0457 10.988 19.1094 29.487-17.0455z" fill="url(#m)"/><path d="m193.189 74.147-29.929 21.7099 12.357 17.1271 29.929-21.7098z" fill="url(#n)"/><path d="m202.283 90.4667-12.975-17.0624-24.747 18.9189-.498 10.0768 8.312 10.931z" fill="#c5cbe8"/><path d="m161.533 96.6527 11.027 14.5013 27.566-21.0745-11.027-14.501zm36.704-6.8868-25.479 19.4791-9.326-12.2652 25.479-19.4787z" fill="#7785c0"/><path d="m161.533 96.6527 2.504 3.2932c.258-.0899.519-.2255.75-.4017 1.334-1.0203 1.485-3.0427.362-4.5199-.186-.244-.408-.4601-.631-.6534z" fill="#7785c0"/><path d="m189.088 75.5654-2.948 2.2539c.115.2768.274.5621.47.8196 1.133 1.4908 3.12 1.8579 4.443.8468.218-.1669.405-.3746.571-.5865z" fill="#7785c0"/><path d="m200.126 90.0798-2.948 2.254c-.236-.184-.469-.4137-.664-.6712-1.134-1.4907-.961-3.5089.361-4.5199.219-.167.468-.2933.716-.3968z" fill="#7785c0"/><path d="m172.55 111.141-2.505-3.294c.155-.225.355-.442.585-.618 1.335-1.021 3.32-.631 4.443.847.186.243.335.515.461.783z" fill="#82b378"/><path d="m185.391 90.9305c1.43 1.8808 1.079 4.5765-.809 6.0198-1.889 1.4437-4.564 1.0825-6.004-.8115-1.43-1.8808-1.079-4.5764.809-6.0197s4.573-1.0694 6.004.8114z" fill="#a2acd7" stroke="#7785c0" stroke-width=".6"/><path d="m206.35 128h-40.183c-1.778 0-5.595-1.543-5.595-5.143v-26.7427s0-4.1143 3.052-4.1143h42.726c1.778 0 5.086 1.0286 5.086 5.6571v25.1999c-.018 1.772-1.017 5.143-5.086 5.143z" fill="url(#o)"/><path d="m206.35 128h-40.183c-1.778 0-5.595-1.543-5.595-5.143v-26.7427s0-4.1143 3.052-4.1143h42.726c1.778 0 5.086 1.0286 5.086 5.6571v25.1999c-.018 1.772-1.017 5.143-5.086 5.143z" fill="url(#o)"/><path d="m205.615 94h-38.744c-1.638 0-4.304 1.3714-4.304 4.5714v23.7716s0 3.657 2.812 3.657h40.236c1.638 0 3.827-.386 3.827-4.5v-22.9286c-.017-1.5748-.077-4.5714-3.827-4.5714z" fill="url(#p)"/><path clip-rule="evenodd" d="m254.084 162c-.026 4.348-2.464 5.122-4.749 5.191 4.1.794 4.473 1.436 4.857 5.809.09-3.209.533-5.496 5.116-6.214-.89.017-5.48 1.154-5.224-4.786z" fill="#fff" fill-rule="evenodd"/><ellipse cx="220.412" cy="195" fill="#fff" rx="20.9441" ry="21"/><path d="m220.412 213c9.915 0 17.952-8.059 17.952-18s-8.037-18-17.952-18-17.952 8.059-17.952 18 8.037 18 17.952 18z" fill="#abb3d7"/><path clip-rule="evenodd" d="m219.217 204.042c3.327 1.77 6.447.683 7.802-1.704 1.162-2.049.027-4.301-1.443-5.079 1.213.034 2.268-.94 2.865-2.121.699-1.382.736-3.376-.35-5.003-.764-1.145-2.016-2.037-2.016-2.037l1.033-2.146-1.907-1.005-1.034 2.155-1.625-.847 1.034-2.156-1.921-1.002-1.037 2.154-2.967-1.548-1.296 2.691 1.439.751c.413.215.589.723.391 1.133l-4.212 8.751c-.198.41-.693.568-1.106.352l-1.429-.746-1.84 2.389 3.51 1.831-1.035 2.149 1.921 1.002 1.037-2.148 1.622.846-1.032 2.151 1.909.996 1.034-2.15s.597.311.653.341zm3.481-4.013c-.757 1.573-2.497 1.157-3.364.705l-3.01-1.57 1.893-3.932s2.194 1.153 2.641 1.377c2.026 1.02 2.219 2.634 1.84 3.42zm-.511-5.884-2.755-1.437 1.813-3.767 1.094.571c1.781.881 3.369 2.249 2.612 3.822-.378.786-1.065 1.205-2.275.967-.169-.033-.489-.156-.489-.156z" fill="#fff" fill-rule="evenodd"/><ellipse cx="182.015" cy="246.5" fill="#fff" rx="15.4588" ry="15.5"/><path d="m186.409 258.535c6.618-2.465 9.997-9.853 7.547-16.5-2.449-6.647-9.799-10.036-16.416-7.57-6.617 2.465-9.996 9.853-7.547 16.5s9.799 10.036 16.416 7.57z" fill="#abb3d7"/><path d="m180.092 237.958 7.175 7.302-5.453-1.085z" fill="#fff"/><path d="m184.771 254.85-1.13-4.079 4.063-4.158z" fill="#fff"/><path d="m182.007 244.782 1.466 5.292 4.094-4.186z" fill="#fff"/><path d="m177.098 247.653 2.499-9.579 1.722 6.217z" fill="#fff"/><path d="m183.146 250.888 1.13 4.078-6.858-5.933z" fill="#fff"/><path d="m182.931 250.202-1.466-5.293-4.305 3.427z" fill="#fff"/><path d="m66.0575 319.316 1.6755-7.155c.1384-.592-.2776-1.169-.8823-1.224l-9.2475-.845c-.5182-.047-.9862.311-1.0762.824l-1.2758 7.264c-.0656.374.0849.756.4006.966 3.7008 2.461 7.1778 1.84 9.8023.864.3056-.113.529-.376.6034-.694z" fill="#cbc7e0" stroke="#000" stroke-linecap="round" stroke-linejoin="round" stroke-width=".6"/><path d="m97.5879 214.393c3.4651 10.394 13.6871 66.718 22.4351 93.533 6.06-.845 5.748-1.569 15.279-2.183.515-18.193-8.409-92.73-18.982-124.817-13.366-.009-27.2462 1.704-35.9664 1.698-13.1592 50.485-27.9296 97.775-25.7305 127.362 6.7261 3.088 12.3071 3.354 18.3475-.207 7.9887-30.215 17.0924-66.197 24.6173-95.386zm0 0 2.174-9.551z" fill="#f4f8ff"/><path d="m97.5879 214.393c3.4651 10.394 13.6871 66.718 22.4351 93.533 6.06-.845 5.748-1.569 15.279-2.183.515-18.193-8.409-92.73-18.982-124.817-13.366-.009-27.2462 1.704-35.9664 1.698-13.1592 50.485-27.9296 97.775-25.7305 127.362 6.7261 3.088 12.3071 3.354 18.3475-.207 7.9887-30.215 17.0924-66.197 24.6173-95.386zm0 0 2.174-9.551" stroke="#000"/><path d="m133.076 151.43-.174.07-.139-.126-4.528-4.097-5.379 11.3c.498.394 1.01.815 1.532 1.245 1.065.877 2.177 1.794 3.326 2.596 1.772 1.236 3.548 2.135 5.222 2.144 1.699-.323 3.853-1.177 6.221-2.351 2.376-1.179 4.948-2.672 7.464-4.249 5.03-3.155 9.817-6.64 12.317-8.606.25-.197.549-.284.85-.284 1.615-.001 3.701-.519 5.539-1.441 1.846-.925 3.383-2.227 3.98-3.755.304-.777.234-1.652-.188-2.371l-1.746-2.597c-.369-.549-.269-1.287.232-1.716l3.949-3.373.014-.012.016-.01c.709-.468 1.04-1.523.948-2.383-.045-.428-.189-.739-.373-.893-.152-.129-.387-.195-.771-.01l-6.37 4.401c-.533.368-1.22.266-1.686-.111-.688-.556-1.32-.786-1.888-.807-.568-.022-1.103.163-1.595.491-.995.663-1.776 1.886-2.204 2.981l-1.858 4.757-.047.121-.12.048z" fill="#f4ecec" stroke="#222" stroke-width=".6"/><path d="m80.8115 182.577s-28.4184 97.424-26.2423 126.888c1.9199.865 2.7146 1.054 2.7146 1.054.4681-19.797 18.6444-96.395 24.6016-114.122 4.3553-12.96 20.0186-12.235 20.0186-12.235z" fill="#d2d8f0"/><path d="m74.854 169.387.8846-3.112c.0692-.243.3089-.396.5585-.356s.4305.26.4214.513c-.0251.701-.1217 1.88-.243 3.36-.0319.39-.0656.801-.1001 1.229-.1663 2.065-.3547 4.563-.475 7.176-.2409 5.233-.2036 10.848.7899 14.377.0077.016.0211.043.0412.078.0428.076.1162.194.231.338.2289.289.6257.69 1.2797 1.089 1.3065.798 3.6729 1.609 7.8383 1.454 7.3465-.274 15.7605-1.231 22.1865-3.066 3.217-.919 5.895-2.047 7.691-3.39 1.79-1.338 2.625-2.823 2.388-4.49-.001-.006-.002-.012-.002-.019l-1.499-14.489-.002-.017-.854-12.396c-.014-.199.091-.386.266-.478.176-.091.389-.07.544.054l-.312.39.312-.39h.001l.001.001.005.004.02.016.077.062c.067.054.164.131.284.226.24.19.57.45.932.73.731.566 1.569 1.198 2.061 1.512.569.364 1.052.733 1.474 1.07.141.113.273.219.398.321.258.209.488.396.713.563.656.484 1.115.673 1.673.56.263-.053.699-.286 1.257-.734.54-.435 1.144-1.031 1.738-1.735 1.193-1.412 2.305-3.209 2.793-4.927.513-1.802.864-3.298.977-4.533.113-1.236-.021-2.148-.414-2.826-.073-.126-.243-.331-.522-.613-.272-.272-.619-.589-1.02-.934-.801-.69-1.793-1.477-2.765-2.221-.97-.743-1.914-1.441-2.615-1.953-.351-.256-.641-.465-.843-.611-.101-.072-.181-.129-.234-.167l-.062-.044-.015-.011-.004-.003h-.001v-.001l.288-.407-.288.407c-.002-.001-.004-.002-.006-.004-.004-.002-.007-.005-.011-.008-6.106-4.721-14.156-8.322-21.764-8.16l-15.0152 1.701-9.7661 2.808-.1389-.48.1389.48c-5.897 1.696-10.3952 6.505-11.7151 12.526-.0024.01-.0051.021-.0082.032l-4.2106 14.527z" fill="#bccdfa" stroke="#2d2f5f" stroke-linejoin="round"/><path d="m122.66 319.954c.514-3.099.058-9.133-.692-12.612 0 0 6.782-1.022 11.06-1.465.176 5.548 0 6.4 1.091 8.264-5.987 2.647-10.339 5.233-11.459 5.813z" fill="#cbc7e0" stroke="#000" stroke-width=".6"/><path d="m124.843 306.246-4.365 1.097c-7.197-22.211-11.177-45.618-16.501-67.583l-3.084-14.462-2.7881-11.171 2.1831-8.773c4.365-3.29 4.026 43.04 24.555 100.892z" fill="#d2d8f0"/><path d="m67.6391 329.276c-4.8481-.432-13.0012-.251-13.8789-2.342-.6605-1.574.5444-7.282 2.0812-12.441 5.6201 1.206 10.6785 1.788 10.6785 1.788l1.1192 2.905c4.4382 4.688 10.2807 3.616 13.3649 6.715 1.6452 1.653-2.5702 4.925-13.3649 3.375z" fill="#505b96"/><path d="m86.4473 119.225c.1476 1.609.3077 3.943.3483 6.165.0219 1.205.0089 2.382-.0611 3.394-.0694 1.005-.1963 1.877-.4151 2.455-.7279 1.925-1.8402 3.165-2.5066 3.707.9541 1.286 2.6293 3.043 4.7507 4.39 2.2545 1.431 4.9839 2.38 7.8768 1.849 1.4567-.268 2.4674-.761 3.1539-1.365.6848-.603 1.0628-1.331 1.2348-2.099.331-1.483-.113-3.122-.664-4.241-.5998-.065-1.3283-.454-1.8679-1.353-.5956-.993-.9581-2.598-.7167-5.089.2188-2.258-1.5335-4.05-4.004-5.393-2.2982-1.249-5.1063-2.045-7.1291-2.42z" fill="#f4ecec" stroke="#222" stroke-width=".6"/><path d="m80.1731 104.286c-3.9308 9.381 2.4568 14.318 4.6863 13.232l7.0941-.158c2.4328-.054 8.04-3.281 10.5395-4.888 2.51-1.176 8.276-4.062 5.939-6.595-4.35-3.535 1.649-6.8776-4.875-9.9767-6.5246-3.0987-9.8036.8306-16.5049.9795-6.7013.1488-3.9308 4.9372-6.879 7.4062z" fill="#1a1c45"/><path d="m86.1928 119.839-.0107.288c-.0556 1.498.8633 3.749 2.698 5.578 1.822 1.816 4.5196 3.187 7.9793 2.968l.0196.3-.0195-.3c1.9543-.123 3.3605-1.196 4.4065-2.912 1.054-1.727 1.727-4.086 2.197-6.717.335-1.875.631-4.018.777-6.031.14-1.93.14-3.719-.087-5.035l-5.2157-1.572c.0485.062.0967.124.1438.187.2447.325.4837.682.5958 1.023.0571.173.0881.362.0558.549-.0335.196-.1322.369-.2961.507-.3068.258-.8235.376-1.5452.392-1.4384.032-2.8472-.16-4.0341-.469-.9395-.244-1.759-.567-2.3465-.923-.322 1.534-1.0603 2.316-1.7306 2.89-.1093.094-.2119.178-.308.257-.2332.192-.428.353-.5868.535-.2045.235-.3208.478-.3132.826l.1092 4.957.0059.27-.2679.034c-.6201.077-1.1369-.018-1.5582-.242-.4198-.223-.7224-.562-.9358-.94-.3792-.67-.4918-1.485-.4836-2.091-.4331-.217-.966-.341-1.3769-.19-.408.151-.8523.644-.8198 2.113.0318 1.448.5033 2.358 1.0502 2.913.5537.562 1.2027.779 1.6104.812z" fill="#faf4f4" stroke="#222" stroke-width=".6"/><path clip-rule="evenodd" d="m92.798 114.62c-.0086-.744.2241-1.343.5197-1.338.2955.004.5419.612.5502 1.355.0083.744-.2244 1.343-.5197 1.338-.2954-.005-.5419-.611-.5502-1.355z" fill="#222" fill-rule="evenodd"/><path clip-rule="evenodd" d="m100.437 114.62c-.008-.744.225-1.343.52-1.338.296.004.542.612.55 1.355.009.744-.224 1.343-.519 1.338-.296-.005-.542-.611-.551-1.355z" fill="#222" fill-rule="evenodd"/><path d="m97.8086 114.76.6902 4.762c.0861.594-.3655 1.129-.9646 1.142l-.8343.019" stroke="#222" stroke-linecap="round" stroke-width=".6"/><path d="m95.0146 122.825c.6092.779 2.2846 1.871 4.1122 0" stroke="#222" stroke-linecap="round" stroke-linejoin="round" stroke-width=".6"/><path d="m70.4993 176.521-.3235-.074.1045-.315 2.4744-7.459-10.7263-3.429-3.5126 12.101-.0021.008-.0025.007c-1.0217 2.948-.9758 4.624-.0436 5.867.4769.636 1.2052 1.188 2.2162 1.737 1.0106.548 2.2807 1.082 3.8231 1.693 1.5048.596 4.0743 1.1 7.111 1.519 3.0276.417 6.4906.744 9.7645.996 3.2734.252 6.3546.427 8.6176.54 1.1315.056 2.0582.097 2.702.123.3219.013.573.023.7436.03l.1942.007.0495.001.0125.001h.0031.0007c.0002 0 .0003 0-.0093.3l.0096-.3.0732.003.0638.036.0595.033c1.0529.594 2.7408 1.547 4.4951 2.004l.0146.003.0142.006c.8909.331 2.3107.584 3.9647.688 1.649.104 3.508.057 5.269-.201 1.764-.258 3.409-.726 4.644-1.45 1.225-.719 2.017-1.671 2.168-2.906-.005-.532-.237-.922-.617-1.225-.395-.315-.951-.534-1.571-.684-.935-.226-1.925-.28-2.614-.318-.233-.013-.432-.024-.582-.039-2.571-.258-3.762-.519-4.317-.728-.141-.053-.25-.107-.335-.162-.083-.054-.157-.12-.205-.205-.054-.094-.067-.197-.042-.291.007-.027.017-.051.027-.071.007-.016.014-.031.022-.046.033-.057.079-.106.137-.149.11-.084.283-.16.556-.229.551-.139 1.609-.268 3.672-.268.744 0 1.118-.479 1.109-.898-.009-.396-.383-.976-1.648-1.085h-.005l-4.976-.517-.009-.001-.009-.001c-.12-.02-.332-.018-.616.008-.276.025-.596.071-.919.127-.636.111-1.254.259-1.5439.361l-.0122.006-.0914.048c-.0794.042-.1947.102-.3389.176-.2883.147-.6923.35-1.1557.572-.9234.442-2.0953.966-3.0578 1.274-.2014.065-.4832.047-.7736.004-.3075-.045-.6847-.129-1.1112-.24-.8541-.223-1.9323-.564-3.0971-.955-1.1353-.38-2.3411-.803-3.5115-1.214-1.2558-.441-2.4708-.867-3.5143-1.211-3.4124-1.126-6.619-2.028-8.9728-2.649-1.1767-.31-2.14-.55-2.8087-.713-.3344-.081-.5951-.143-.7721-.184-.0885-.021-.156-.036-.2013-.047l-.0512-.012-.0128-.003h-.0032-.0008-.0001l.0654-.293z" fill="#f4ecec" stroke="#222" stroke-width=".6"/><path d="m71.593 176.744s-3.5982-.517-5.6544-.517" stroke="#222" stroke-linecap="round" stroke-linejoin="round" stroke-width=".6"/><path d="m136.444 327.72c-6.202-.802-13.375.871-14.329-1.186-1.637-2.524.765-7.927.555-13.605 5.661.996 10.866-1.502 10.866-1.502l1.798 4.323c4.608 4.519 13.47 4.36 15.873 7.802 1.337 1.914-.84 6.366-14.763 4.168z" fill="#505b96"/><path d="m77.9153 159.843c-.3974 2.096-1.6371 5.483-2.7284 8.225" stroke="#2d2f5f" stroke-linecap="round"/><path d="m115.567 152.715c0 1.096.546 4.935.546 9.321" stroke="#2d2f5f" stroke-linecap="round"/><path d="m193.136 104.035-2.479 1.108c-.15.083-.239.241-.239.406v8.936c0 .172.096.331.246.406l2.479 1.081c.157.083.341-.027.341-.206v-11.525c-.007-.179-.198-.289-.348-.206zm-11.867 1.094-2.404-1.101c-.157-.083-.341.027-.341.206v11.525c0 .186.205.296.355.199l2.417-1.287c.137-.083.219-.234.219-.392v-8.743c-.007-.166-.096-.324-.246-.407zm7.538 3.05-2.588-1.494c-.143-.082-.321-.082-.457 0l-2.636 1.48c-.143.083-.232.241-.232.407v3.029c0 .165.089.323.232.406l2.636 1.528c.143.083.321.083.457 0l2.588-1.514c.143-.083.232-.241.232-.407v-3.029c0-.172-.089-.323-.232-.406z" fill="#dedef4"/></svg>