<svg fill="none" height="446" width="375" xmlns="http://www.w3.org/2000/svg"><linearGradient id="a" gradientUnits="userSpaceOnUse" x1="187" x2="186.703" y1="0" y2="426.5"><stop offset=".004" stop-color="#2c2e5e"/><stop offset=".097" stop-color="#333568"/><stop offset=".2" stop-color="#393b71"/><stop offset=".326" stop-color="#444782"/><stop offset=".467" stop-color="#545aa4"/><stop offset=".758" stop-color="#8989da"/></linearGradient><linearGradient id="b" gradientUnits="userSpaceOnUse" x1="170.047" x2="244.777" y1="311" y2="28.026"><stop offset=".667" stop-color="#fff"/><stop offset="1" stop-color="#fff" stop-opacity=".47"/></linearGradient><linearGradient id="c" gradientUnits="userSpaceOnUse" x1="167.553" x2="119.587" y1="210.5" y2="406.534"><stop offset="0" stop-color="#f1f1ff"/><stop offset=".688" stop-color="#fafaff"/><stop offset="1" stop-color="#d9d9fb"/></linearGradient><linearGradient id="d" gradientUnits="userSpaceOnUse" x1="368.5" x2="354.147" y1="276" y2="448.677"><stop offset="0" stop-color="#d9d9f6"/><stop offset="1" stop-color="#fff"/></linearGradient><linearGradient id="e" gradientUnits="userSpaceOnUse" x1="43.5" x2="49.03" y1="259.5" y2="445.029"><stop offset="0" stop-color="#e1e1f8"/><stop offset=".985" stop-color="#fff"/></linearGradient><linearGradient id="f" gradientUnits="userSpaceOnUse" x1="260.379" x2="251.723" y1="265.399" y2="350.887"><stop offset="0" stop-color="#5764a2"/><stop offset=".998" stop-color="#3d4277"/></linearGradient><linearGradient id="h" gradientUnits="userSpaceOnUse" x1="298.563" x2="297.298" y1="179.045" y2="191.544"><stop offset="0" stop-color="#bccdfa"/><stop offset="1" stop-color="#bccdfa" stop-opacity="0"/></linearGradient><linearGradient id="i" gradientUnits="userSpaceOnUse" x1="297.208" x2="296.205" y1="155.5" y2="171.5"><stop offset=".797" stop-color="#222"/><stop offset="1" stop-color="#222" stop-opacity="0"/></linearGradient><linearGradient id="j" gradientUnits="userSpaceOnUse" x1="310.315" x2="306.741" y1="225.614" y2="278.309"><stop offset="0" stop-color="#90a5db"/><stop offset="1" stop-color="#aabcee" stop-opacity="0"/></linearGradient><linearGradient id="k" gradientUnits="userSpaceOnUse" x1="223.903" x2="270.347" y1="230" y2="258.39"><stop offset="0" stop-color="#d8d8ef"/><stop offset="1" stop-color="#fff"/></linearGradient><linearGradient id="l" gradientUnits="userSpaceOnUse" x1="19.582" x2="19.582" y1="0" y2="39.186"><stop offset="0" stop-color="#5d6fca" stop-opacity=".45"/><stop offset="1" stop-color="#6775b9" stop-opacity=".77"/></linearGradient><linearGradient id="m" gradientUnits="userSpaceOnUse" x1="184.009" x2="175.317" y1="91.103" y2="103.282"><stop offset="0" stop-color="#6a78b2"/><stop offset="1" stop-color="#546299"/></linearGradient><linearGradient id="n" gradientUnits="userSpaceOnUse" x1="182.856" x2="193.889" y1="85.029" y2="104.113"><stop offset="0" stop-color="#a2acd7"/><stop offset="1" stop-color="#909ccb"/></linearGradient><linearGradient id="o" gradientUnits="userSpaceOnUse" x1="178.224" x2="190.625" y1="85.002" y2="102.098"><stop offset="0" stop-color="#b4bde7"/><stop offset="1" stop-color="#9fa9d3"/></linearGradient><linearGradient id="p" gradientUnits="userSpaceOnUse" x1="201.359" x2="180.933" y1="92" y2="127.286"><stop offset="0" stop-color="#b6c1ef"/><stop offset=".415" stop-color="#abb8ec"/><stop offset="1" stop-color="#8996cb"/></linearGradient><linearGradient id="q" gradientUnits="userSpaceOnUse" x1="197.473" x2="195.763" y1="94" y2="122.787"><stop offset=".054" stop-color="#dbe2ff" stop-opacity=".2"/><stop offset="1" stop-color="#a5b2e6" stop-opacity=".48"/></linearGradient><mask id="g" fill="#fff"><path clip-rule="evenodd" d="M243.055 264.969c12.737-3.445 53.654 3.031 53.654 3.031l11.532 1.155 13.865 8.571s.262 1.803.118 4.609c-9.304 1.658-16.446 9.497-17.164 24.298-14.835 2.417-41.393-5.772-50.568-8.602-1.461-.45-2.481-.765-2.943-.879-4.03-.993-6.689 3.878-11.122 12.179-4.459 8.299-31.983 35.169-31.983 35.169s-11.985-3.572-14.106-4.479c-2.299-.977-3.087-2.147-3.087-2.147s39.068-69.46 51.804-72.905z" fill-rule="evenodd"/></mask><path d="M0 0h375v446H0z" fill="url(#a)"/><g fill="#fff" opacity=".6"><path d="M314.233 100.336a.585.585 0 0 0 .794.796l.265-.265a.586.586 0 0 0-.795-.796l-.264.265z" fill-opacity=".6"/><path d="M368.089 143.336a.585.585 0 0 0 .794.796l.265-.265a.585.585 0 0 0-.794-.796l-.265.265zM367.092 189.336a.585.585 0 0 0 .794.796l.265-.265a.586.586 0 0 0-.795-.796l-.264.265zM119.751 139.336a.586.586 0 0 0 .795.796l.264-.265a.585.585 0 0 0-.794-.796l-.265.265zM223.475 58.336a.586.586 0 0 0 .794.796l.265-.265a.586.586 0 0 0-.795-.796l-.264.265zM91.826 176.336a.586.586 0 0 0 .794.796l.265-.265a.586.586 0 0 0-.795-.796l-.264.265zM17.025 125.336a.586.586 0 0 0 .795.796l.264-.265a.586.586 0 0 0-.794-.796l-.265.265zM362.105 95.336a.586.586 0 0 0 .794.796l.265-.265a.586.586 0 0 0-.794-.796c-.177.088-.265.177-.265.265zM268.355 48.336a.586.586 0 0 0 .794.796l.265-.265a.586.586 0 0 0-.794-.796c-.177.088-.265.177-.265.265zM171.613 297.336a.585.585 0 0 0 .794.796l.265-.265a.585.585 0 0 0-.794-.796c-.177.088-.265.177-.265.265zM361.108 57.336a.586.586 0 0 0 .794.796l.265-.265a.586.586 0 0 0-.795-.796c-.176.088-.264.177-.264.265zM141.693 231.734a.585.585 0 0 0 .794.796l.265-.265a.587.587 0 0 0-.795-.797l-.264.266zM161.64 286.336a.586.586 0 0 0 .794.797l.264-.266a.585.585 0 0 0-.794-.796l-.264.265zM357.118 16.336a.586.586 0 0 0 .795.796l.264-.265a.586.586 0 0 0-.794-.796c-.176 0-.265.088-.265.265zM214.499 8.336a.586.586 0 0 0 .794.796l.265-.265a.586.586 0 0 0-.795-.796c-.176.088-.264.177-.264.265zM198.541 5.336a.586.586 0 0 0 .794.796l.265-.265a.586.586 0 0 0-.794-.796c-.177.088-.265.177-.265.265zM189.565 273.336a.585.585 0 0 0 .794.796l.265-.265a.585.585 0 0 0-.794-.796l-.265.265zM32.983 25.336a.586.586 0 0 0 .794.796l.265-.265a.586.586 0 0 0-.795-.796c-.176 0-.264.088-.264.265zM46.945 4.336a.586.586 0 0 0 .795.796l.264-.265a.586.586 0 0 0-.794-.796c-.176 0-.265.088-.265.265zM360.11 119.336a.586.586 0 0 0 .795.796l.264-.265a.585.585 0 0 0-.794-.796c-.176 0-.265.088-.265.265z"/><path d="M101.799 95.336a.586.586 0 0 0 .794.796l.265-.265a.586.586 0 0 0-.794-.796c-.177.088-.265.177-.265.265z" fill-opacity=".6"/><path d="M107.783 215.336a.585.585 0 0 0 .794.796l.265-.265a.585.585 0 0 0-.794-.796c-.177.088-.265.177-.265.265zM209.512 269.336a.585.585 0 0 0 .794.796l.265-.265a.585.585 0 0 0-.794-.796c-.177.088-.265.177-.265.265zM19.02 181.336a.586.586 0 0 0 .794.796l.265-.265a.586.586 0 0 0-.794-.796c-.177.088-.265.177-.265.265zM362.105 180.336a.585.585 0 0 0 .794.796l.265-.265a.585.585 0 0 0-.794-.796c-.177.088-.265.177-.265.265zM194.552 281.336a.585.585 0 0 0 .794.796l.265-.265a.585.585 0 0 0-.794-.796c-.177.088-.265.177-.265.265zM139.698 271.336a.585.585 0 0 0 .794.796l.265-.265a.585.585 0 0 0-.794-.796c-.177.088-.265.177-.265.265zM124.738 259.336a.585.585 0 0 0 .794.796l.265-.265a.585.585 0 0 0-.794-.796c-.177.088-.265.177-.265.265zM34.977 192.336a.586.586 0 0 0 .795.796l.264-.265a.586.586 0 0 0-.794-.796c-.176.088-.265.177-.265.265zM141.693 17.336a.586.586 0 0 0 .794.796l.265-.265a.586.586 0 0 0-.795-.796c-.176.088-.264.177-.264.265zM208.515 13.336a.586.586 0 0 0 .794.796l.264-.265a.586.586 0 0 0-.794-.796c-.176.088-.264.177-.264.265zM98.807 144.336a.586.586 0 0 0 .794.796l.265-.265a.586.586 0 0 0-.794-.796c-.177.088-.265.177-.265.265zM167.624 167.336a.585.585 0 0 0 .794.796l.265-.265a.586.586 0 0 0-.795-.796c-.176.088-.264.177-.264.265zM100.802 165.336a.585.585 0 0 0 .794.796l.265-.265a.585.585 0 0 0-.794-.796c-.177.088-.265.177-.265.265z"/><path d="M270.35 104.336a.585.585 0 0 0 .794.796l.265-.265a.586.586 0 0 0-.795-.796c-.176.088-.264.177-.264.265zM138.686 60.67c.207-.208.179-.572-.062-.814-.242-.242-.605-.27-.812-.062-.206.207-.178.571.063.813s.604.27.811.063z" fill-opacity=".6"/><path d="M196.112 96.752c.207-.207.179-.57-.062-.812-.242-.242-.605-.27-.812-.062-.207.207-.18.57.062.812.242.241.605.27.812.062zM113.707 32.7a.586.586 0 0 0 .794.795l.265-.265a.586.586 0 0 0-.795-.796l-.264.265z"/><path d="M278.328 15.336a.586.586 0 0 0 .795.796l.264-.265a.586.586 0 0 0-.794-.796l-.265.265z" fill-opacity=".6"/><path d="M163.66 139.336a.585.585 0 0 0 .794.796l.265-.265a.586.586 0 0 0-.795-.796l-.264.265zM23.127 67.189c.241-.242.27-.606.062-.814-.206-.207-.57-.179-.81.063-.242.242-.27.606-.063.813.207.208.57.18.811-.062zM132.778 110.336a.585.585 0 0 1-.794.796l-.265-.265a.586.586 0 0 1 .795-.796l.264.265zM158.709 231.336a.585.585 0 0 1-.794.796l-.265-.265a.586.586 0 0 1 .794-.796c.177 0 .265.088.265.265zM306.316 138.336a.586.586 0 0 1-.795.796l-.264-.265a.585.585 0 0 1 .794-.796c.176 0 .265.088.265.265zM210.571 143.336a.586.586 0 0 1-.794.797l-.265-.266a.585.585 0 0 1 .794-.796c.177.088.265.177.265.265zM97.871 256.336a.586.586 0 0 1-.794.797l-.265-.266a.586.586 0 0 1 .795-.796c.176.088.264.177.264.265zM235.504 150.336a.585.585 0 0 1-.794.796l-.265-.265a.586.586 0 0 1 .795-.796l.264.265zM162.698 299.336a.585.585 0 0 1-.794.796l-.264-.265a.585.585 0 0 1 .794-.796l.264.265zM282.379 104.336a.585.585 0 0 1-.794.796l-.265-.265a.586.586 0 0 1 .795-.796l.264.265zM326.262 75.336a.586.586 0 0 1-.794.796 66.259 66.259 0 0 0-.265-.265.586.586 0 0 1 .795-.796l.264.265zM145.388 113.219a.586.586 0 0 1-.794.797l-.265-.266a.585.585 0 0 1 .794-.796c.088.088.265.177.265.265zM244.48 153.336a.585.585 0 0 1-.794.796l-.265-.265a.586.586 0 0 1 .795-.796c.176.088.264.177.264.265zM198.603 222.336a.585.585 0 0 1-.794.796l-.265-.265a.585.585 0 0 1 .794-.796zM171.333 113.042a.586.586 0 0 1-.794.797l-.265-.266a.585.585 0 0 1 .794-.796c.088 0 .177.177.265.265zM173.726 184.189c.241-.242.269-.606.062-.814-.207-.207-.57-.179-.811.063s-.269.606-.063.813c.207.208.57.18.812-.062zM271.409 137.336a.586.586 0 0 1-.795.796l-.264-.265a.585.585 0 0 1 .794-.796c.088 0 .176.088.265.265zM135.77 221.336a.585.585 0 0 1-.794.796l-.265-.265a.586.586 0 0 1 .795-.796c.088 0 .176.088.264.265zM260.438 189.336a.585.585 0 0 1-.794.796l-.265-.265a.585.585 0 0 1 .794-.796c.088 0 .177.088.265.265zM335.238 109.336a.585.585 0 0 1-.794.796l-.265-.265a.586.586 0 0 1 .795-.796c.088 0 .176.088.264.265zM264.483 23.189c.242-.242.27-.606.063-.813-.207-.208-.57-.18-.811.062-.242.242-.27.606-.063.813s.57.18.811-.062zM19.851 15.565a.985.985 0 0 1-1.335 1.339l-.445-.446a.985.985 0 0 1 1.335-1.34c.297 0 .445.15.445.447z"/></g><path d="m204.38 310.868.374-.18-5.004-10.855-.409.29a372.7 372.7 0 0 1-7.949 5.482c-2.305 1.544-4.754 3.138-6.912 4.443-2.149 1.299-4.036 2.328-5.204 2.725h-.001c-2.717.914-6.602 1.056-10.586.967a210.717 210.717 0 0 1-5.785-.235l-.187-.009c-1.941-.097-3.784-.187-5.408-.205-1.627-.019-3.016.033-4.051.216-.518.091-.933.213-1.24.365s-.483.323-.565.501c-.08.172-.095.4.019.718.115.323.358.72.764 1.201.81.958 2.22 2.191 4.374 3.765 1.609.802 3.541 1.929 5.638 3.171l.964.571c1.834 1.089 3.777 2.241 5.741 3.335 4.525 2.522 9.1 4.695 12.643 5.054a47.89 47.89 0 0 0 .117-.728l.02-.134.006-.038.001-.01.001-.002v-.001l.042-.282.283.027c1.054.103 1.896-.205 2.506-1.024.627-.88 1.017-1.9 1.327-2.873.016-.052.039-.11.057-.158a1.243 1.243 0 0 0 .063-.186l.002-.009.003-.009c.554-1.745 1.351-3.431 2.225-5.279l.092-.194.001-.001c.24-.503.693-1.039 1.273-1.585.584-.55 1.316-1.128 2.138-1.714 1.645-1.171 3.669-2.387 5.632-3.486a134.643 134.643 0 0 1 6.995-3.634z" fill="#cbc7e0" stroke="#485088" stroke-width=".6"/><path d="M147.926 312.904v.004c-.03 1.398 1.444 7.154 10.512 10.207 4.605 1.55 6.576 2.587 8.183 3.635.391.255.757.508 1.132.767 1.16.802 2.408 1.664 4.748 2.829 3.11 1.548 6.049 2.619 8.406 2.797 1.176.089 2.186-.046 2.997-.435.803-.386 1.431-1.032 1.836-2.01l.003-.008c.304-.68.607-2.077.864-3.532.207-1.173.38-2.353.499-3.165l.032-.216c-1.868-.382-4.204-.523-6.779-.679-.367-.022-.74-.044-1.117-.068-3.129-.196-6.527-.463-9.734-1.242-3.963-.948-7.016-3.196-9.073-5.197a23.888 23.888 0 0 1-2.34-2.638 19.26 19.26 0 0 1-.719-1.015l-1.889-.156h-.002c-.709-.062-1.369-.125-1.982-.183-1.618-.152-2.902-.274-3.854-.278-.66-.004-1.114.051-1.395.164a.59.59 0 0 0-.257.176.39.39 0 0 0-.071.243z" fill="#6775b9" stroke="#485088" stroke-width=".6"/><path d="M102.228 297.5c0-32.604 84.275-15.35 84.275-56.5 0-52-111.705-35.652-130.955-84.993C29.947 90.389 86.392 72.97 128.158 82.5c53.934 12.307 94.147 47.5 159.575 47.5 26.154 0 61.951-2.842 85.771-14.822M317.154 51c26.088-1.806 44.092.779 56.35 5.477" stroke="url(#b)" stroke-dasharray="4 4"/><rect fill="#7886d0" height="107.62" rx="11" width="136.821" x="11.968" y="212.842"/><rect fill="#9ba7e4" height="24.133" rx="4" width="119.567" x="21.397" y="223.741"/><path d="M38.478 245.538c4.717 0 8.54-3.834 8.54-8.563 0-4.73-3.823-8.564-8.54-8.564s-8.54 3.834-8.54 8.564c0 4.729 3.823 8.563 8.54 8.563zM109.127 229.969H56.339a1.557 1.557 0 1 0 0 3.114h52.788a1.557 1.557 0 1 0 0-3.114z" fill="#6065b0"/><path d="M95.928 239.31H56.34a1.557 1.557 0 1 0 0 3.114h39.59a1.557 1.557 0 1 0 0-3.114z" fill="#7886d0"/><rect fill="#9ba7e4" height="24.133" rx="4" width="119.567" x="21.397" y="254.102"/><path d="M39.792 275.899c5.08 0 9.197-3.834 9.197-8.563 0-4.73-4.118-8.563-9.197-8.563s-9.198 3.833-9.198 8.563c0 4.729 4.118 8.563 9.198 8.563zM113.427 260.33H56.339a1.557 1.557 0 1 0 0 3.114h57.088a1.557 1.557 0 1 0 0-3.114z" fill="#6065b0"/><path d="M99.213 269.671H56.339a1.557 1.557 0 1 0 0 3.114h42.874a1.557 1.557 0 1 0 0-3.114z" fill="#7886d0"/><rect fill="#9ba7e4" height="24.133" rx="4" width="119.567" x="21.397" y="284.462"/><path d="M38.478 306.26c4.717 0 8.54-3.834 8.54-8.564 0-4.729-3.823-8.563-8.54-8.563-4.717 0-8.54 3.834-8.54 8.563 0 4.73 3.823 8.564 8.54 8.564zM109.127 290.69H56.339a1.557 1.557 0 1 0 0 3.114h52.788a1.557 1.557 0 1 0 0-3.114z" fill="#6065b0"/><path d="M95.928 300.032H56.34a1.557 1.557 0 1 0 0 3.114h39.59a1.557 1.557 0 1 0 0-3.114z" fill="#7886d0"/><path d="M0 361.086v-103.69c3.882 2.02 8.525 8.306 12.965 20.604 4.978-9.483 33.308-9.998 40.354 17.35-.41-2.929 19.487-4.143 19.487 8.15 21.941-8 27.426 5.5 27.426 11.086 11.969-11.086 44.763-12.911 68.817 13.862 2.992-4.403 13.963-17.371 32.452-4.403 3.883.171 9.64 1.376 14.732 4.403 0 0 1.517-14.219 14.152-17.371 12.558-3.133 20.634 3.156 20.714 3.247l.231.262c5.098-9.503 23.936-16.517 47.373-9.069 0-29.18 22.769-40.517 40.891-40.517-14.093-8.862 7.497-27.685 13.963-23.5-13.963-18-4.68-23.527 6.483-9.5-1.271-7.632 7.48-19.5 14.96-19.5v124.526L258.772 390l-25.39-6.572L243.773 446H6.649z" fill="url(#c)"/><path d="M375 251.723c-11.614-6.105-26.509-.729-30.918 36.354C308 269 301.641 300.838 306.682 322c0 0-30.894-10.054-35.406 19.5 0 0-12.965-14-23.437-7.5 0 0-10.472 4.5-3.989 21 0 0-23.937-8.5-19.449 18 0 0-42.885-15-44.88 30.5 0 0-47.045-10.605-47.355 42.5H375zM79.24 446H0V326.982c6.27 7.543 8.004 17.658 8.004 17.658 40.898.707 22.123 48.503 22.123 48.503 20.376-1.555 12.226 27.858 12.226 27.858 23.723-4.667 18.775 19.938 18.775 19.938 7.698.612 13.6 2.462 18.113 5.061z" fill="#fff"/><path d="M375 288.942c-3.218.78-6.793 3.596-7.776 11.924 0 0-9.486-5.061-15.351 9.379 0 0 7.072-3.871 13.454-1.638 0 0-12.764 3.275-16.041 19.353 0 0-1.208-4.317.69-11.016 0 0-23.114-12.207-28.288 13.249 0 0 9.659-7.145 16.731 4.466 0 0-14.144-3.87-23.113 9.975 0 0-14.144-11.017-19.319 8.336 0 0 15.524-4.466 26.391 16.078 0 0-18.629-21.586-45.019-7.741 0 0-21.734-17.12-25.011 12.207 0 0-21.733-3.424-17.939 15.483 0 0-16.041-6.699-22.423 12.207 0 0 7.762-12.207 30.875-2.233 0 0-30.185-5.508-46.916 17.715 0 0-1.207-7.741 7.762-15.482 0 0-52.952-17.157-53.297 44.796H375zM81.111 446c-5.403-4.668-14.343-8.368-29.02-8.919 0 0 .288 4.165-1.928 8.919zM45.433 446c1.327-9.636 1.01-25.317-13.868-29.463 0 0 1.897-29.922-18.629-26.052 0 0 1.035-15.333-12.074-14.887 0 0 23.458-4.466 12.592-22.181 0 0-3.269 11.717-13.454 12.367V446zM0 359.476v-20.923c8.03 7.768 4.267 15.777 0 20.923z" fill="url(#d)"/><path d="M0 283.729V446h216.215l-9.921-39.884v-.148c-10.004 12.058-9.487 28.583-9.487 28.583-3.449-16.227 3.968-31.263 3.968-31.263-30.186-42.428-61.751-16.822-61.751-16.822 7.51-8.882 8.516-9.151 8.625-8.922v.138s.025-.083 0-.138c-.079-65.338-55.714-47.351-55.714-47.351 9.487 8.039 8.107 16.227 8.107 16.227-17.421-24.415-48.986-18.609-48.986-18.609 24.148-10.421 32.255 2.382 32.255 2.382-6.727-19.799-23.458-12.802-23.458-12.802 3.967-19.651-18.801-16.227-18.801-16.227-3.45-30.816-26.218-12.803-26.218-12.803C9.568 285.606 4.597 284.2 0 283.729z" fill="url(#e)"/><path d="m199.707 360.892.001-.003c.325-1.256.295-2.59.258-3.939-.066-2.549 1.406-5.122 2.906-7.433h.001c1.29-1.979 3.761-5.131 5.901-7.779a320.706 320.706 0 0 1 3.647-4.434l.053-.064-13.678-5.571-.164.331a98.245 98.245 0 0 1-3.508 6.44c-1.091 1.829-2.328 3.738-3.579 5.341-1.244 1.593-2.53 2.918-3.725 3.538a89.134 89.134 0 0 0-3.339 1.883l-.086.05c-1.113.649-2.213 1.289-3.327 1.863-2.23 1.15-4.533 2.046-7.171 2.253h-.001c-.294.021-.579.044-.865.066h-.001l-.866.067h-.003l-.871.055c-1.969.124-3.812.24-5.203.437-.8.113-1.424.25-1.829.418-.203.085-.326.168-.39.237-.054.06-.059.098-.053.137.088.532.681 1.619 2.348 2.75 1.656 1.124 4.348 2.273 8.563 2.938 4.074.642 5.867.565 7.292.504l.171-.008c1.497-.063 2.675-.072 5.681.805 2.972.867 5.756 1.509 7.901 1.483 1.071-.013 1.954-.192 2.616-.57.651-.371 1.108-.943 1.32-1.795z" fill="#e3dfee" stroke="#485088" stroke-width=".6"/><path d="m163.802 355.051.001.004c.217 1.218 2.513 6.003 11.003 7.076 4.318.546 6.235 1.109 7.834 1.745.389.155.756.313 1.132.475 1.159.498 2.404 1.033 4.663 1.641 3.002.809 5.767 1.227 7.863.967 1.045-.129 1.902-.426 2.54-.907.631-.476 1.065-1.148 1.246-2.071l.002-.009c.146-.646.166-1.923.135-3.247a94.597 94.597 0 0 0-.119-2.867l-.008-.165c-1.7-.002-3.763.286-6.039.603l-.993.138c-2.783.383-5.817.75-8.773.633-3.655-.13-6.738-1.567-8.9-2.962a21.293 21.293 0 0 1-2.523-1.905 16.293 16.293 0 0 1-.672-.624l-.129-.13-1.671.196h-.002c-.634.071-1.226.133-1.775.191-1.447.152-2.594.273-3.429.437-.58.114-.963.241-1.185.387a.498.498 0 0 0-.184.187.325.325 0 0 0-.017.207z" fill="#6775b9" stroke="#485088" stroke-width=".6"/><path d="m232.194 226.698 1.314-5.272-.148-.005a8.08 8.08 0 0 1-1.33-.18c-1.052-.234-2.369-.757-3.353-1.923a31.466 31.466 0 0 1-.747-.931l-.026-.034c-.239-.306-.46-.588-.683-.844-.445-.51-.878-.89-1.417-1.105-.215-.084-.552-.133-1.012-.176-.137-.013-.284-.025-.439-.038-.343-.028-.722-.06-1.11-.108-1.13-.138-2.431-.419-3.493-1.217l-.017-.013-.015-.015c-2.23-2.237-3.882-3.339-5.046-3.822-1.166-.483-1.79-.327-2.044-.149-.032.026-.089.105-.108.318-.02.209.002.492.068.839.131.692.423 1.579.809 2.517.775 1.88 1.898 3.896 2.769 4.887.259.295.76.625 1.464.985.694.354 1.552.72 2.494 1.096.661.264 1.365.534 2.08.808 1.308.501 2.651 1.015 3.83 1.534.92.404 2.544 1.156 3.935 1.805a659.394 659.394 0 0 1 2.225 1.043z" fill="#f4ecec" stroke="#4b4f90" stroke-width=".6"/><path d="M195.427 309.461v.001c.394.61.717 1.363 1.022 2.113l.158.392c.253.626.499 1.238.777 1.784.336.662.697 1.184 1.125 1.494.409.296.898.412 1.551.221 19.23-5.606 41.433-13.519 60.693-21.8 9.63-4.14 18.521-8.371 25.934-12.45 7.419-4.082 13.341-8.002 17.048-11.519.448-.425.567-.813.511-1.175-.06-.386-.328-.813-.807-1.277-.957-.927-2.601-1.86-4.365-2.772-.502-.259-1.013-.517-1.518-.771-1.249-.629-2.459-1.238-3.389-1.807-.652-.399-1.199-.797-1.533-1.19-.168-.198-.298-.415-.347-.647a.91.91 0 0 1 .136-.704c.458-.698.651-1.249.658-1.675.008-.406-.153-.725-.482-.987-.343-.273-.874-.486-1.597-.629-.718-.142-1.601-.21-2.624-.212-4.099-.004-10.293 1.062-16.753 2.496-6.451 1.432-13.141 3.223-18.219 4.658a433.557 433.557 0 0 0-7.919 2.319l-.462.141-.118.037-.02.013-.161.104-.619.404c-.538.351-1.317.859-2.283 1.492a1714.16 1714.16 0 0 0-7.585 4.994c-5.959 3.945-13.128 8.747-17.976 12.183-4.749 3.365-10.853 7.598-15.769 10.989a3039.87 3039.87 0 0 1-7.986 5.49l-.474.324a75.038 75.038 0 0 0 1.059 2.953c.67 1.749 1.535 3.784 2.334 5.013z" fill="#41477e" stroke="#434580" stroke-width=".6"/><path clip-rule="evenodd" d="M243.055 264.969c12.737-3.445 53.654 3.031 53.654 3.031l11.532 1.155 13.865 8.571s.262 1.803.118 4.609c-9.304 1.658-16.446 9.497-17.164 24.298-14.835 2.417-41.393-5.772-50.568-8.602-1.461-.45-2.481-.765-2.943-.879-4.03-.993-6.689 3.878-11.122 12.179-4.459 8.299-31.983 35.169-31.983 35.169s-11.985-3.572-14.106-4.479c-2.299-.977-3.087-2.147-3.087-2.147s39.068-69.46 51.804-72.905z" fill="url(#f)" fill-rule="evenodd"/><path d="m296.709 268-.06.597-.017-.002-.017-.002zm-53.654-3.031-.157-.579zm65.186 4.186.06-.597.138.013.118.073zm13.865 8.571.315-.511.238.148.041.277zm.118 4.609.6.031-.025.476-.469.084zm-17.164 24.298.599.03-.024.485-.479.078zm-50.568-8.602-.177.573zm-2.943-.879.143-.583h.001zm-11.122 12.179.53.283-.001.002zM208.444 344.5l.419.43-.252.246-.338-.101zm-14.106-4.479.235-.552.001.001zm-3.087-2.147-.498.335-.206-.307.181-.323zM296.709 268l-.094.593-.001-.001h-.006l-.022-.004-.087-.014-.344-.053c-.302-.046-.746-.114-1.317-.199a440.197 440.197 0 0 0-20.24-2.532c-5.902-.594-12.194-1.078-17.799-1.201-5.624-.122-10.493.123-13.587.959l-.314-1.158c3.275-.886 8.296-1.123 13.926-1 5.649.123 11.975.611 17.894 1.206 5.92.595 11.44 1.298 15.48 1.852a418.823 418.823 0 0 1 6.139.887l.346.054.089.014a.27.27 0 0 1 .028.004h.002l-.093.593zm11.473 1.752-11.533-1.155.119-1.194 11.533 1.155zm13.609 8.484-13.865-8.571.631-1.021 13.864 8.571zm-.166 4.068a29.828 29.828 0 0 0-.005-3.291 18.996 18.996 0 0 0-.106-1.186l-.001-.013-.001-.002.594-.086.594-.086v.002l.001.006.002.018a19.54 19.54 0 0 1 .115 1.277c.049.82.079 1.995.006 3.423zm.705.622c-4.51.804-8.485 3.1-11.429 6.992-2.948 3.898-4.887 9.433-5.242 16.745l-1.199-.059c.364-7.489 2.355-13.274 5.484-17.411 3.133-4.142 7.38-6.594 12.175-7.448zm-67.662 14.532c4.588 1.414 13.499 4.162 23.113 6.255 9.636 2.098 19.886 3.517 27.182 2.328l.193 1.185c-7.539 1.228-17.985-.24-27.63-2.34-9.668-2.105-18.623-4.867-23.211-6.282zm-2.975-.889c.483.12 1.527.442 2.975.889l-.353 1.146c-1.473-.454-2.469-.761-2.91-.87zm-11.795 12.48c2.206-4.131 4.008-7.484 5.775-9.67.887-1.098 1.799-1.946 2.791-2.446a4.528 4.528 0 0 1 3.228-.364l-.287 1.165a3.331 3.331 0 0 0-2.4.27c-.779.393-1.564 1.096-2.399 2.129-1.678 2.077-3.422 5.31-5.649 9.481zM208.444 344.5l-.419-.43.001-.001.004-.003.015-.015.059-.057.23-.226.88-.866c.761-.75 1.852-1.831 3.176-3.155a679.893 679.893 0 0 0 9.94-10.135c3.717-3.874 7.568-8.003 10.766-11.678 3.212-3.692 5.724-6.88 6.803-8.887l1.057.569c-1.151 2.142-3.752 5.425-6.955 9.106-3.216 3.696-7.082 7.841-10.804 11.721a682.501 682.501 0 0 1-9.958 10.153 676.345 676.345 0 0 1-3.182 3.161l-.882.868-.232.227-.059.058a.104.104 0 0 0-.015.015l-.004.003-.001.001s-.001.001-.42-.429zm-13.87-5.03c1.023.437 4.509 1.545 7.789 2.557a733.573 733.573 0 0 0 5.734 1.743l.384.115.1.03.026.007.006.002.002.001-.171.575-.171.575-.002-.001-.007-.002-.025-.007-.101-.03a54.912 54.912 0 0 0-.385-.115l-1.388-.418a706.558 706.558 0 0 1-4.355-1.328c-3.243-1.001-6.81-2.132-7.907-2.601zm-3.323-1.596.497-.336-.001-.001-.001-.001v-.002l.001.003a4.599 4.599 0 0 0 .575.588c.439.376 1.159.88 2.251 1.344l-.469 1.105c-1.207-.514-2.032-1.084-2.562-1.537a5.976 5.976 0 0 1-.583-.569 3.674 3.674 0 0 1-.146-.177l-.04-.054a.279.279 0 0 1-.012-.018l-.005-.006-.001-.002-.001-.001v-.001l.497-.335zm51.961-72.326c-1.43.387-3.338 1.748-5.621 3.972-2.259 2.202-4.811 5.175-7.53 8.663-5.437 6.974-11.503 15.961-17.178 24.853-5.675 8.89-10.952 17.673-14.812 24.235a858.833 858.833 0 0 0-4.596 7.91 465.989 465.989 0 0 0-1.589 2.789l-.084.148-.021.038-.005.009-.002.002-.523-.293-.523-.296.002-.002.005-.01.022-.038.084-.149.33-.583a854.083 854.083 0 0 1 5.866-10.134c3.864-6.569 9.149-15.366 14.834-24.272 5.683-8.903 11.772-17.927 17.243-24.946 2.735-3.508 5.325-6.527 7.639-8.783 2.292-2.234 4.391-3.797 6.145-4.271z" fill="#434580" mask="url(#g)"/><path d="M288.354 196.587c10.889 8.816 27.527 30.958 26.59 35.757 0 0 21.773 22.882 26.248 0 0 0 12.529-1.594 4.959-18.644 3.99-3.79 2.2-12.315-6.302-14.11 0-3.87-1.79-11.665-12.082-11.665-5.248-4.038-7.564-4.922-6.59-10.888.971-5.939-3.702-33.083-17.397-27.002 0 0-.624-3.389-5.547-3.389 0 0 2.601 2.213 3.073 2.819-2.017-.337-4.935-.473-7.499.651-10.445 4.578-8.551 20.759-9.446 30.181-8.055 17.947 2.764 14.04 3.993 16.29z" fill="#2c2e5e"/><path d="M289.564 195.278c-.055.021 5.319 3.544 9.734 2.821 4.147-.697 7.281-5.62 7.231-5.651-1.68-.516-1.919-2.908-.882-12.936l-.781.081-13.208 1.242s-.121 4.11-.479 7.931c-.323 3.212-.842 6.244-1.615 6.512z" fill="#f4ecec"/><path d="M291.944 181.46s-.517 4.877-.951 9.445c6.993.454 14.431-4.852 13.725-11.237z" fill="url(#h)"/><path d="M306.354 178.307s4.403-5.618 5.84-10.632c1.028-3.593.521-17.342-13.337-16.777 0 0-3.996-.006-7.993 2.116-3.156 1.702-7.89 5.584-4.28 17.892l.836 4.127z" fill="#4b5999"/><path d="m306.731 177.316-.216-.004-.073.203c-.929 2.577-2.32 4.972-4.367 6.629-2.038 1.65-4.749 2.589-8.366 2.225-2.46-.41-4.202-1.701-5.4-3.702-1.208-2.018-1.869-4.767-2.122-8.079-.18-2.35-.028-5.517.295-8.518.313-2.903.785-5.625 1.263-7.283.68-.178 1.362-.61 2.05-1.088.177-.124.356-.251.537-.38.602-.427 1.228-.872 1.915-1.258.887-.498 1.854-.882 2.941-.971 1.085-.088 2.31.115 3.719.822 2.794 1.402 5.796 4.873 8.052 8.499 1.124 1.807 2.053 3.636 2.671 5.242.623 1.619.913 2.965.807 3.824-.222 1.81-.895 2.757-1.607 3.258-.722.508-1.536.593-2.099.581z" fill="#faf4f4" stroke="#222" stroke-width=".6"/><path d="M308.677 172c.499 1.5-.532 3-1.496 3h-.499l.499-3z" fill="#d8ddf3"/><path clip-rule="evenodd" d="M298.315 169.787c.035-.896-.225-1.626-.582-1.63-.356-.004-.673.719-.708 1.615-.035.895.225 1.626.581 1.629.356.004.674-.718.709-1.614zM289.11 169.529c.035-.896-.225-1.626-.582-1.63-.356-.005-.673.719-.708 1.614-.035.896.225 1.626.581 1.63s.674-.718.709-1.614z" fill="#222" fill-rule="evenodd"/><path d="m292.272 169.786-1.031 5.944a.998.998 0 0 0 .932 1.169l1.236.062" stroke="#222" stroke-linecap="round" stroke-width=".6"/><path d="M295.413 179.706c-.682.659-2.53 1.555-4.473-.125" stroke="#222" stroke-linecap="round" stroke-linejoin="round" stroke-width=".6"/><path d="M307.765 159.008s-10.904-9.19-15.18-4.038c-1.036-1.089-2.945-1.973-5.933.969-4.468 4.415-1.79 13.277-1.79 13.277 1.617.35 2.548-5.195 3.692-7.818.839-1.99 3.212-3.851 4.333-4.668 1.164 3.522 4.467 11.995 9.992 14.017 7.015 2.573 10.347.968 10.347.968s-5.072-4.928-5.461-12.707z" fill="#2c2e5e"/><path d="M313.165 172c-13.564 1.6-18.949-9.333-19.947-15-.997 0-3.856 1.282-5.485 7-.997 3.5-1.496 5-2.992 5.5" stroke="url(#i)" stroke-width=".6"/><path d="M322.141 281c-.28-4.584-18.949-10-18.949-10l-30.419-4.5s2.992-14 2.992-35.5c4.488-19.5 14.721-37.283 14.721-37.283s3.608 11.672 16.247.254c.087-.043 10.167 4.065 14.737 14.627 5.063 11.643 4.597 16.629 2.583 36.621-2.168 21.522 1.577 28.843-1.912 35.781z" fill="#bccbf1"/><path d="m290.719 192.283-12.519 35.41s-1.304 1.836-3.3 4.453c-4.722 6.145-13.358 16.494-18.272 17.14-2.43.313-7.268-2.172-12.576-5.555-10.015-6.387-16.805-16.038-16.805-16.038-.332-4.901 4.285-8.423 4.285-8.423s19.469 12.078 21.956 12.516c5.42.948 13.666-24.84 19.642-33.119 4.358-5.968 17.589-6.384 17.589-6.384z" fill="#bccbf1"/><path d="M317.858 279.433a18.334 18.334 0 0 1-1.829-.304c-.522-.293-1.234-.68-2.088-1.144-6.986-3.793-5.986 5.046-5.264 0 .465-3.198 1.312-5.159 2.089-6.958 1.253-2.902 4.191-20.953 3.175-27.527-1.081-7-8.447-20.821-1.275-26 1.603-1.157 5.105-.714 5.755-1.27 4.868 11.983 4.973 12.526 2.572 19.437-2.517 7.247-.353 16.882 1.533 25.282 1.168 5.198 2.229 9.924 2.008 13.316-1.153 3.06-3.533 4.642-6.676 5.168z" fill="url(#j)"/><path d="M274.9 232.146c-4.722 6.145-13.358 16.494-18.272 17.14-2.43.313-7.269-2.172-12.576-5.555 3.955 1.464 7.914 1.838 11.802 1.86 4.207.027 5.935-4.958 13.301-11.952 4.771-4.517 5.699-3.147 5.745-1.493z" fill="#aec0f1"/><path d="m290.161 249.293-.081-.018-.06-.057c-.585-.556-1.694-1.072-3.072-1.468a20.354 20.354 0 0 0-4.461-.733c-1.512-.076-2.914.038-3.921.382-1.013.345-1.521.877-1.504 1.594.001.047.033.158.153.342a4.4 4.4 0 0 0 .503.611c.438.46 1.054.988 1.754 1.505 1.409 1.04 3.106 1.992 4.333 2.255 1.272.26 3.746.509 5.92.693 1.083.092 2.086.167 2.818.22l.871.06.06.004.889-4.454z" fill="#f4ecec" stroke="#4b4f90" stroke-width=".6"/><path d="M306.529 192.448s13.891 2.284 18.039 9.513c5.85 10.167 17.955 54.001 9.657 58.613-9.343 5.198-42.499-4.489-42.499-4.489s-.543-4.923 1.114-7.095c1.658-2.173 26.116-1.52 27.306-2.49s-12.106-24.35-11.783-27.562c.353-3.236-1.834-26.49-1.834-26.49z" fill="#bccaf1"/><path d="M291.073 191.065c.746 1.795 3.043 5.474 6.265 5.833.046.091.081.183.107.277.193-.143.454-.24.788-.277 3.222-.359 7.309-3.739 8.95-5.384 1.432.359 3.281 1.645 4.027 2.243l3.133.898c-.448 1.944-4.565 7.627-8.503 9.422-3.567 1.626-8.076-2.641-8.753-5.283-1.271 1.939-5.224 3.714-8.251 3.04-3.94-.878-7.16-5.833-6.712-8.077 1.044-.448 5.456-2.257 7.604-2.257z" fill="#fff" stroke="#3f4179" stroke-width=".6"/><path d="M310.173 223c0 1.246 9.973 18.517 9.973 23.5l-27.427 1.5c-.664 1-1.795 4-.997 8 6.815 2.333 23.238 6.8 34.408 6 5.32 1 14.761-2 9.974-22-1.496-14.167-7.879-43-21.443-45l-6.981-3.5h-1.496m-15.459 0c-4.987.667-15.758 3.3-18.95 8.5-3.989 6.5-12.965 30.5-16.456 31.5-2.792.8-16.622-8.5-23.936-12.5" stroke="#2d2f5f" stroke-linecap="round" stroke-width=".6"/><path d="M320.146 246.5h4.488M323.138 262.5c.832 4.167 1.696 13.7-1.496 18.5M276.263 249c0-4.5-2.493-16.5 2.494-28" stroke="#2d2f5f" stroke-width=".6"/><path d="m279.47 263.458-51.485-5.213-6.03-33.245 51.405 5.205z" fill="url(#k)"/><path d="m227.769 256.947 67.811 6.867-.41 4.077-67.468-6.832z" fill="#d8d8ef"/><path d="M247.676 243.817c-.203-1.164.549-2.019 1.683-1.904 1.135.115 2.229 1.156 2.457 2.323.203 1.164-.549 2.019-1.683 1.904-1.135-.115-2.229-1.156-2.457-2.323z" fill="#8794ca"/><g fill="#fff"><path clip-rule="evenodd" d="M49.202 75c-.018 2.767-1.725 3.26-3.324 3.304 2.87.504 3.13.913 3.4 3.696.063-2.042.373-3.497 3.581-3.954-.623.01-3.836.734-3.657-3.046zM211.769 59c-.019 2.767-1.726 3.26-3.325 3.304 2.87.504 3.131.913 3.4 3.696.063-2.042.373-3.497 3.581-3.954-.623.01-3.836.734-3.656-3.046zM28.116 93c-.034 5.139-3.205 6.053-6.175 6.135 5.331.938 5.815 1.697 6.315 6.865.117-3.792.692-6.495 6.65-7.343-1.157.02-7.123 1.363-6.79-5.657z" fill-rule="evenodd"/><path d="M88.667 163.565a.985.985 0 0 1-1.335 1.339l-.445-.446a.985.985 0 0 1 1.335-1.339c.297 0 .445.148.445.446zM335.01 167.565a.985.985 0 0 1-1.335 1.339l-.445-.446a.985.985 0 0 1 1.335-1.339c.297 0 .445.148.445.446zM192.428 50.28a.487.487 0 0 1-.66.661l-.22-.22a.487.487 0 0 1 .66-.662c.147 0 .22.073.22.22zM14.843 187.559a.974.974 0 0 1-1.32 1.324l-.44-.442a.974.974 0 0 1 1.32-1.324c.293 0 .44.147.44.442zM237.271 159.565a.985.985 0 0 1-1.335 1.339l-.445-.446a.985.985 0 0 1 1.335-1.339c.297 0 .445.148.445.446zM31.819 137.565a.985.985 0 0 1-1.335 1.339l-.445-.446a.985.985 0 0 1 1.335-1.339c.297 0 .445.148.445.446z"/></g><ellipse fill="url(#l)" rx="19.582" ry="19.593" transform="rotate(-38.817 215.903 -397.392) skewX(-.149)"/><path d="m301.895 51.14-.03.055-.015.059c-.212.82-.276 1.347-.257 1.76.011.237.054.442.096.611a6.516 6.516 0 0 1-.452.19c-.504.194-1.196.416-1.901.617-.706.2-1.411.377-1.941.48-.201.04-.367.066-.494.081a3.234 3.234 0 0 0-.321-.622c-.235-.356-.596-.774-1.199-1.354l-.045-.043-.053-.03c-1.82-1.043-2.827-2.16-3.389-3.048-.558-.882-.691-1.562-.733-1.775v-.004l-.002-.007a1.123 1.123 0 0 0-.021-.097 6.057 6.057 0 0 1 .562-4.58 6.009 6.009 0 0 1 3.569-2.827l.011-.003.012-.004a5.959 5.959 0 0 1 4.798.423 6.004 6.004 0 0 1 2.867 3.594c.009.032.024.072.032.094a.081.081 0 0 0 .003.007c.128.344.904 2.731-1.097 6.424z" stroke="#fff"/><path d="m293.156 47.517-.696.195a4.744 4.744 0 0 1 .452-3.574 4.71 4.71 0 0 1 2.829-2.217l.192.7c-1.012.283-1.872.956-2.392 1.874s-.659 2.004-.385 3.022zM296.341 55.276l5.914-1.785.285.947-5.914 1.785zM297.429 56.692l4.791-1.424.285.947-4.792 1.424zM298.717 58.05l3.467-.953.285.947-3.467.952zM288.525 42.06c.26-.528.562-1.032.91-1.499l-2.548-1.715a.852.852 0 0 0-1.199.25.897.897 0 0 0 .25 1.224zm6.144-4.887.024-.005c.279-.058.557-.097.833-.125l-.6-2.933a.872.872 0 0 0-1.025-.69.877.877 0 0 0-.67 1.043l.6 2.932a8.258 8.258 0 0 1 .838-.222zm7.563 2.036 1.69-2.629a.895.895 0 0 0-.251-1.224.852.852 0 0 0-1.199.25l-1.668 2.591c.504.29.98.632 1.428 1.012zM287.7 48.635a10.605 10.605 0 0 1-.172-1.249l-3.014.627a.879.879 0 0 0-.67 1.042.872.872 0 0 0 1.024.69l2.945-.612a10.439 10.439 0 0 1-.113-.498zm20.551-5.558-3.013.627a10.46 10.46 0 0 1 .426 1.717l2.942-.611a.877.877 0 0 0 .669-1.043.871.871 0 0 0-1.024-.69zm-3.115 8.05c-.239.588-.512 1.11-.78 1.586l1.876 1.264a.855.855 0 0 0 1.2-.25.897.897 0 0 0-.251-1.225zm-15.939 5.114a.9.9 0 0 0 .251 1.226.855.855 0 0 0 1.2-.25l1.227-1.91c-.432-.329-.889-.7-1.339-1.144z" fill="#fff"/><path d="M202.759 122.897 165.728 127c-1.638 0-5.156-1.539-5.156-5.128V96.744c0-1.767 0-5.244 4.422-6.18L202.759 87c1.639 0 4.688-.115 4.688 4.5v26.269c-.017 1.767-.938 5.128-4.688 5.128z" fill="url(#m)"/><path d="m197.599 76.506-29.486 17.046 10.988 19.109 29.487-17.046z" fill="url(#n)"/><path d="m193.189 74.147-29.929 21.71 12.357 17.127 29.929-21.71z" fill="url(#o)"/><path d="m202.283 90.467-12.975-17.063-24.747 18.92-.498 10.076 8.312 10.931z" fill="#c5cbe8"/><path d="m161.533 96.653 11.027 14.501 27.566-21.075-11.027-14.5zm36.704-6.887-25.479 19.479-9.326-12.265L188.911 77.5z" fill="#7785c0"/><path d="m161.533 96.653 2.504 3.293c.258-.09.519-.226.75-.402 1.334-1.02 1.485-3.043.362-4.52a4.46 4.46 0 0 0-.631-.653zM189.088 75.565l-2.948 2.254c.115.277.274.562.47.82 1.133 1.49 3.12 1.858 4.443.847.218-.167.405-.375.571-.587zM200.126 90.08l-2.948 2.254a3.69 3.69 0 0 1-.664-.671c-1.134-1.491-.961-3.51.361-4.52.219-.167.468-.294.716-.397z" fill="#7785c0"/><path d="m172.55 111.141-2.505-3.294c.155-.225.355-.442.585-.618 1.335-1.021 3.32-.631 4.443.847.186.243.335.515.461.783z" fill="#82b378"/><path d="M185.391 90.93a4.302 4.302 0 0 1-.809 6.02 4.265 4.265 0 0 1-6.004-.811c-1.43-1.881-1.079-4.577.809-6.02s4.573-1.07 6.004.812z" fill="#a2acd7" stroke="#7785c0" stroke-width=".6"/><path d="M206.35 128h-40.183c-1.778 0-5.595-1.543-5.595-5.143V96.114s0-4.114 3.052-4.114h42.726c1.778 0 5.086 1.029 5.086 5.657v25.2c-.018 1.772-1.017 5.143-5.086 5.143z" fill="url(#p)"/><path d="M206.35 128h-40.183c-1.778 0-5.595-1.543-5.595-5.143V96.114s0-4.114 3.052-4.114h42.726c1.778 0 5.086 1.029 5.086 5.657v25.2c-.018 1.772-1.017 5.143-5.086 5.143z" fill="url(#p)"/><path d="M205.615 94h-38.744c-1.638 0-4.304 1.371-4.304 4.571v23.772s0 3.657 2.812 3.657h40.236c1.638 0 3.827-.386 3.827-4.5V98.571c-.017-1.574-.077-4.571-3.827-4.571z" fill="url(#q)"/><path clip-rule="evenodd" d="M254.084 162c-.026 4.348-2.464 5.122-4.749 5.191 4.1.794 4.473 1.436 4.857 5.809.09-3.209.533-5.496 5.116-6.214-.89.017-5.48 1.154-5.224-4.786z" fill="#fff" fill-rule="evenodd"/><ellipse cx="220.412" cy="195" fill="#fff" rx="20.944" ry="21"/><path d="M220.412 213c9.915 0 17.952-8.059 17.952-18s-8.037-18-17.952-18-17.952 8.059-17.952 18 8.037 18 17.952 18z" fill="#abb3d7"/><path clip-rule="evenodd" d="M219.217 204.042c3.327 1.77 6.447.683 7.802-1.704 1.162-2.049.027-4.301-1.443-5.079 1.213.034 2.268-.94 2.865-2.121.699-1.382.736-3.376-.35-5.003-.764-1.145-2.016-2.037-2.016-2.037l1.033-2.146-1.907-1.005-1.034 2.155-1.625-.847 1.034-2.156-1.921-1.002-1.037 2.154-2.967-1.548-1.296 2.691 1.439.751a.867.867 0 0 1 .391 1.133l-4.212 8.751a.803.803 0 0 1-1.106.352l-1.429-.746-1.84 2.389 3.51 1.831-1.035 2.149 1.921 1.002 1.037-2.148 1.622.846-1.032 2.151 1.909.996 1.034-2.15.653.341zm3.481-4.013c-.757 1.573-2.497 1.157-3.364.705l-3.01-1.57 1.893-3.932s2.194 1.153 2.641 1.377c2.026 1.02 2.219 2.634 1.84 3.42zm-.511-5.884-2.755-1.437 1.813-3.767 1.094.571c1.781.881 3.369 2.249 2.612 3.822-.378.786-1.065 1.205-2.275.967a4.136 4.136 0 0 1-.489-.156z" fill="#fff" fill-rule="evenodd"/><ellipse cx="182.015" cy="246.5" fill="#fff" rx="15.459" ry="15.5"/><path d="M186.409 258.535c6.618-2.465 9.997-9.853 7.547-16.5-2.449-6.647-9.799-10.036-16.416-7.57-6.617 2.465-9.996 9.853-7.547 16.5s9.799 10.036 16.416 7.57z" fill="#abb3d7"/><path d="m180.092 237.958 7.175 7.302-5.453-1.085zM184.771 254.85l-1.13-4.079 4.063-4.158zM182.007 244.782l1.466 5.292 4.094-4.186zM177.098 247.653l2.499-9.579 1.722 6.217zM183.146 250.888l1.13 4.078-6.858-5.933zM182.931 250.202l-1.466-5.293-4.305 3.427z" fill="#fff"/><path d="m66.058 319.316 1.675-7.155a1 1 0 0 0-.882-1.224l-9.248-.845a1 1 0 0 0-1.076.824l-1.276 7.264a.956.956 0 0 0 .4.966c3.702 2.461 7.179 1.84 9.803.864a.97.97 0 0 0 .604-.694z" fill="#cbc7e0" stroke="#000" stroke-linecap="round" stroke-linejoin="round" stroke-width=".6"/><path d="M97.588 214.393c3.465 10.394 13.687 66.718 22.435 93.533 6.06-.845 5.748-1.569 15.279-2.183.515-18.193-8.409-92.73-18.982-124.817-13.366-.009-27.246 1.704-35.966 1.698-13.16 50.485-27.93 97.775-25.73 127.362 6.725 3.088 12.306 3.354 18.347-.207 7.988-30.215 17.092-66.197 24.617-95.386zm0 0 2.174-9.551z" fill="#f4f8ff"/><path d="M97.588 214.393c3.465 10.394 13.687 66.718 22.435 93.533 6.06-.845 5.748-1.569 15.279-2.183.515-18.193-8.409-92.73-18.982-124.817-13.366-.009-27.246 1.704-35.966 1.698-13.16 50.485-27.93 97.775-25.73 127.362 6.725 3.088 12.306 3.354 18.347-.207 7.988-30.215 17.092-66.197 24.617-95.386zm0 0 2.174-9.551" stroke="#000"/><path d="m133.076 151.43-.174.07-.139-.126-4.528-4.097-5.379 11.3c.498.394 1.01.815 1.532 1.245 1.065.877 2.177 1.794 3.326 2.596 1.772 1.236 3.548 2.135 5.222 2.144 1.699-.323 3.853-1.177 6.221-2.351 2.376-1.179 4.948-2.672 7.464-4.249 5.03-3.155 9.817-6.64 12.317-8.606.25-.197.549-.284.85-.284 1.615-.001 3.701-.519 5.539-1.441 1.846-.925 3.383-2.227 3.98-3.755a2.726 2.726 0 0 0-.188-2.371l-1.746-2.597a1.303 1.303 0 0 1 .232-1.716l3.949-3.373.014-.012.016-.01c.709-.468 1.04-1.523.948-2.383-.045-.428-.189-.739-.373-.893-.152-.129-.387-.195-.771-.01l-6.37 4.401c-.533.368-1.22.266-1.686-.111-.688-.556-1.32-.786-1.888-.807-.568-.022-1.103.163-1.595.491-.995.663-1.776 1.886-2.204 2.981l-1.858 4.757-.047.121-.12.048z" fill="#f4ecec" stroke="#222" stroke-width=".6"/><path d="M80.811 182.577S52.393 280.001 54.57 309.465c1.92.865 2.715 1.054 2.715 1.054.468-19.797 18.644-96.395 24.601-114.122 4.356-12.96 20.019-12.235 20.019-12.235z" fill="#d2d8f0"/><path d="m74.854 169.387.885-3.112a.499.499 0 0 1 .98.157c-.026.701-.122 1.88-.243 3.36l-.1 1.229a209.346 209.346 0 0 0-.476 7.176c-.24 5.233-.203 10.848.79 14.377.008.016.021.043.042.078.042.076.116.194.23.338.23.289.626.69 1.28 1.089 1.307.798 3.673 1.609 7.839 1.454 7.346-.274 15.76-1.231 22.186-3.066 3.217-.919 5.895-2.047 7.691-3.39 1.79-1.338 2.625-2.823 2.388-4.49a.11.11 0 0 1-.002-.019l-1.499-14.489-.002-.017-.854-12.396a.5.5 0 0 1 .81-.424l-.312.39.312-.39h.001l.001.001.005.004.02.016.077.062.284.226c.24.19.57.45.932.73.731.566 1.569 1.198 2.061 1.512.569.364 1.052.733 1.474 1.07l.398.321c.258.209.488.396.713.563.656.484 1.115.673 1.673.56.263-.053.699-.286 1.257-.734a13.17 13.17 0 0 0 1.738-1.735c1.193-1.412 2.305-3.209 2.793-4.927.513-1.802.864-3.298.977-4.533.113-1.236-.021-2.148-.414-2.826-.073-.126-.243-.331-.522-.613a19.047 19.047 0 0 0-1.02-.934 64.447 64.447 0 0 0-2.765-2.221c-.97-.743-1.914-1.441-2.615-1.953-.351-.256-.641-.465-.843-.611l-.234-.167-.062-.044-.015-.011-.004-.003h-.001v-.001l.288-.407-.288.407-.006-.004-.011-.008c-6.106-4.721-14.156-8.322-21.764-8.16l-15.015 1.701-9.766 2.808-.14-.48.14.48c-5.897 1.696-10.395 6.505-11.715 12.526a.846.846 0 0 1-.009.032l-4.21 14.527z" fill="#bccdfa" stroke="#2d2f5f" stroke-linejoin="round"/><path d="M122.66 319.954c.514-3.099.058-9.133-.692-12.612 0 0 6.782-1.022 11.06-1.465.176 5.548 0 6.4 1.091 8.264-5.987 2.647-10.339 5.233-11.459 5.813z" fill="#cbc7e0" stroke="#000" stroke-width=".6"/><path d="m124.843 306.246-4.365 1.097c-7.197-22.211-11.177-45.618-16.501-67.583l-3.084-14.462-2.788-11.171 2.183-8.773c4.365-3.29 4.026 43.04 24.555 100.892z" fill="#d2d8f0"/><path d="M67.64 329.276c-4.849-.432-13.002-.251-13.88-2.342-.66-1.574.545-7.282 2.081-12.441a125.934 125.934 0 0 0 10.679 1.788l1.12 2.905c4.437 4.688 10.28 3.616 13.364 6.715 1.645 1.653-2.57 4.925-13.365 3.375z" fill="#505b96"/><path d="M86.447 119.225c.148 1.609.308 3.943.349 6.165a40.225 40.225 0 0 1-.062 3.394c-.069 1.005-.196 1.877-.415 2.455-.728 1.925-1.84 3.165-2.506 3.707.954 1.286 2.63 3.043 4.75 4.39 2.255 1.431 4.984 2.38 7.877 1.849 1.457-.268 2.468-.761 3.154-1.365a3.855 3.855 0 0 0 1.235-2.099c.331-1.483-.113-3.122-.664-4.241-.6-.065-1.328-.454-1.868-1.353-.595-.993-.958-2.598-.717-5.089.22-2.258-1.533-4.05-4.004-5.393-2.298-1.249-5.106-2.045-7.129-2.42z" fill="#f4ecec" stroke="#222" stroke-width=".6"/><path d="M80.173 104.286c-3.93 9.381 2.457 14.318 4.686 13.232l7.095-.158c2.432-.054 8.04-3.281 10.539-4.888 2.51-1.176 8.276-4.062 5.939-6.595-4.35-3.535 1.649-6.878-4.875-9.977-6.525-3.098-9.804.83-16.505.98-6.701.149-3.93 4.937-6.879 7.406z" fill="#1a1c45"/><path d="m86.193 119.839-.01.288c-.057 1.498.862 3.749 2.697 5.578 1.822 1.816 4.52 3.187 7.98 2.968l.019.3-.02-.3c1.955-.123 3.361-1.196 4.407-2.912 1.054-1.727 1.727-4.086 2.197-6.717.335-1.875.631-4.018.777-6.031.14-1.93.14-3.719-.087-5.035l-5.216-1.572c.049.062.097.124.144.187.245.325.484.682.596 1.023.057.173.088.362.056.549a.836.836 0 0 1-.296.507c-.307.258-.824.376-1.546.392a14.996 14.996 0 0 1-4.034-.469c-.94-.244-1.759-.567-2.346-.923-.322 1.534-1.06 2.316-1.73 2.89-.11.094-.213.178-.309.257-.233.192-.428.353-.587.535-.204.235-.32.478-.313.826l.11 4.957.005.27-.268.034c-.62.077-1.136-.018-1.558-.242a2.341 2.341 0 0 1-.936-.94c-.379-.67-.491-1.485-.483-2.091-.433-.217-.966-.341-1.377-.19-.408.151-.852.644-.82 2.113.032 1.448.503 2.358 1.05 2.913.554.562 1.203.779 1.61.812z" fill="#faf4f4" stroke="#222" stroke-width=".6"/><path clip-rule="evenodd" d="M92.798 114.62c-.009-.744.224-1.343.52-1.338.295.004.542.612.55 1.355.008.744-.224 1.343-.52 1.338-.295-.005-.542-.611-.55-1.355zM100.437 114.62c-.008-.744.225-1.343.52-1.338.296.004.542.612.55 1.355.009.744-.224 1.343-.519 1.338-.296-.005-.542-.611-.551-1.355z" fill="#222" fill-rule="evenodd"/><path d="m97.809 114.76.69 4.762a.998.998 0 0 1-.965 1.142l-.834.019" stroke="#222" stroke-linecap="round" stroke-width=".6"/><path d="M95.015 122.825c.609.779 2.284 1.871 4.112 0" stroke="#222" stroke-linecap="round" stroke-linejoin="round" stroke-width=".6"/><path d="m70.5 176.521-.324-.074.104-.315 2.475-7.459-10.727-3.429-3.512 12.101-.002.008-.003.007c-1.021 2.948-.976 4.624-.043 5.867.477.636 1.205 1.188 2.216 1.737 1.01.548 2.28 1.082 3.823 1.693 1.505.596 4.074 1.1 7.11 1.519 3.029.417 6.492.744 9.765.996a326.442 326.442 0 0 0 11.32.663l.744.03.194.007.05.001.012.001h.003l-.009.3.01-.3.073.003.064.036.06.033c1.052.594 2.74 1.547 4.495 2.004l.014.003.014.006c.891.331 2.311.584 3.965.688 1.649.104 3.508.057 5.269-.201 1.764-.258 3.409-.726 4.644-1.45 1.225-.719 2.017-1.671 2.168-2.906-.005-.532-.237-.922-.617-1.225-.395-.315-.951-.534-1.571-.684-.935-.226-1.925-.28-2.614-.318-.233-.013-.432-.024-.582-.039-2.571-.258-3.762-.519-4.317-.728a1.75 1.75 0 0 1-.335-.162.609.609 0 0 1-.205-.205.383.383 0 0 1-.015-.362.495.495 0 0 1 .159-.195c.11-.084.283-.16.556-.229.551-.139 1.609-.268 3.672-.268.744 0 1.118-.479 1.109-.898-.009-.396-.383-.976-1.648-1.085h-.005l-4.976-.517-.009-.001-.009-.001c-.12-.02-.332-.018-.616.008-.276.025-.596.071-.919.127-.636.111-1.254.259-1.544.361l-.012.006-.091.048-.34.176c-.288.147-.692.35-1.155.572-.923.442-2.095.966-3.058 1.274-.201.065-.483.047-.773.004a10.863 10.863 0 0 1-1.112-.24c-.854-.223-1.932-.564-3.097-.955-1.135-.38-2.34-.803-3.511-1.214-1.256-.441-2.471-.867-3.515-1.211a156.725 156.725 0 0 0-12.553-3.546l-.201-.047-.052-.012-.012-.003H70.5l.065-.293z" fill="#f4ecec" stroke="#222" stroke-width=".6"/><path d="M71.593 176.744s-3.598-.517-5.654-.517" stroke="#222" stroke-linecap="round" stroke-linejoin="round" stroke-width=".6"/><path d="M136.444 327.72c-6.202-.802-13.375.871-14.329-1.186-1.637-2.524.765-7.927.555-13.605 5.661.996 10.866-1.502 10.866-1.502l1.798 4.323c4.608 4.519 13.47 4.36 15.873 7.802 1.337 1.914-.84 6.366-14.763 4.168z" fill="#505b96"/><path d="M77.915 159.843c-.397 2.096-1.637 5.483-2.728 8.225M115.567 152.715c0 1.096.546 4.935.546 9.321" stroke="#2d2f5f" stroke-linecap="round"/><path d="m193.136 104.035-2.479 1.108a.465.465 0 0 0-.239.406v8.936c0 .172.096.331.246.406l2.479 1.081a.23.23 0 0 0 .341-.206v-11.525c-.007-.179-.198-.289-.348-.206zm-11.867 1.094-2.404-1.101a.23.23 0 0 0-.341.206v11.525c0 .186.205.296.355.199l2.417-1.287a.46.46 0 0 0 .219-.392v-8.743a.487.487 0 0 0-.246-.407zm7.538 3.05-2.588-1.494a.455.455 0 0 0-.457 0l-2.636 1.48a.473.473 0 0 0-.232.407v3.029c0 .165.089.323.232.406l2.636 1.528a.45.45 0 0 0 .457 0l2.588-1.514a.473.473 0 0 0 .232-.407v-3.029a.465.465 0 0 0-.232-.406z" fill="#dedef4"/></svg>