<svg width="375" height="446" viewBox="0 0 375 446" fill="none" xmlns="http://www.w3.org/2000/svg">
    <defs>
        <linearGradient id="paint0_linear" x1="187" y1="1.16077e-08" x2="186.703" y2="426.5" gradientUnits="userSpaceOnUse">
            <stop offset="0.00397209" stop-color="#2C2E5E"/>
            <stop offset="0.0968235" stop-color="#333568"/>
            <stop offset="0.2" stop-color="#393B71"/>
            <stop offset="0.326275" stop-color="#444782"/>
            <stop offset="0.466845" stop-color="#545AA4"/>
            <stop offset="0.757516" stop-color="#8989DA"/>
        </linearGradient>
        <linearGradient id="paint1_linear" x1="170.047" y1="311" x2="244.777" y2="28.0264" gradientUnits="userSpaceOnUse">
            <stop offset="0.667001" stop-color="white"/>
            <stop offset="1" stop-color="white" stop-opacity="0.47"/>
        </linearGradient>
        <linearGradient id="paint2_linear" x1="167.553" y1="210.5" x2="119.587" y2="406.534" gradientUnits="userSpaceOnUse">
            <stop stop-color="#F1F1FF"/>
            <stop offset="0.688103" stop-color="#FAFAFF"/>
            <stop offset="1" stop-color="#D9D9FB"/>
        </linearGradient>
        <linearGradient id="paint3_linear" x1="368.5" y1="276" x2="354.147" y2="448.677" gradientUnits="userSpaceOnUse">
            <stop stop-color="#D9D9F6"/>
            <stop offset="1" stop-color="white"/>
        </linearGradient>
        <linearGradient id="paint4_linear" x1="368.5" y1="276" x2="354.147" y2="448.677" gradientUnits="userSpaceOnUse">
            <stop stop-color="#D9D9F6"/>
            <stop offset="1" stop-color="white"/>
        </linearGradient>
        <linearGradient id="paint5_linear" x1="368.5" y1="276" x2="354.147" y2="448.677" gradientUnits="userSpaceOnUse">
            <stop stop-color="#D9D9F6"/>
            <stop offset="1" stop-color="white"/>
        </linearGradient>
        <linearGradient id="paint6_linear" x1="368.5" y1="276" x2="354.147" y2="448.677" gradientUnits="userSpaceOnUse">
            <stop stop-color="#D9D9F6"/>
            <stop offset="1" stop-color="white"/>
        </linearGradient>
        <linearGradient id="paint7_linear" x1="43.4999" y1="259.5" x2="49.0303" y2="445.029" gradientUnits="userSpaceOnUse">
            <stop stop-color="#E1E1F8"/>
            <stop offset="0.985155" stop-color="white"/>
        </linearGradient>
        <linearGradient id="paint8_linear" x1="260.379" y1="265.399" x2="251.723" y2="350.887" gradientUnits="userSpaceOnUse">
            <stop stop-color="#5764A2"/>
            <stop offset="0.997548" stop-color="#3D4277"/>
        </linearGradient>
        <linearGradient id="paint9_linear" x1="298.563" y1="179.045" x2="297.298" y2="191.544" gradientUnits="userSpaceOnUse">
            <stop stop-color="#BCCDFA"/>
            <stop offset="1" stop-color="#BCCDFA" stop-opacity="0"/>
        </linearGradient>
        <linearGradient id="paint10_linear" x1="297.208" y1="155.5" x2="296.205" y2="171.5" gradientUnits="userSpaceOnUse">
            <stop offset="0.796875" stop-color="#222222"/>
            <stop offset="1" stop-color="#222222" stop-opacity="0"/>
        </linearGradient>
        <linearGradient id="paint11_linear" x1="310.315" y1="225.614" x2="306.741" y2="278.309" gradientUnits="userSpaceOnUse">
            <stop stop-color="#90A5DB"/>
            <stop offset="1" stop-color="#AABCEE" stop-opacity="0"/>
        </linearGradient>
        <linearGradient id="paint12_linear" x1="223.903" y1="230" x2="270.347" y2="258.39" gradientUnits="userSpaceOnUse">
            <stop stop-color="#D8D8EF"/>
            <stop offset="1" stop-color="white"/>
        </linearGradient>
        <linearGradient id="paint13_linear" x1="19.5818" y1="0" x2="19.5818" y2="39.1863" gradientUnits="userSpaceOnUse">
            <stop stop-color="#5D6FCA" stop-opacity="0.45"/>
            <stop offset="1" stop-color="#6775B9" stop-opacity="0.77"/>
        </linearGradient>
        <linearGradient id="paint14_linear" x1="184.009" y1="91.1025" x2="175.317" y2="103.282" gradientUnits="userSpaceOnUse">
            <stop stop-color="#6A78B2"/>
            <stop offset="1" stop-color="#546299"/>
        </linearGradient>
        <linearGradient id="paint15_linear" x1="182.856" y1="85.0288" x2="193.889" y2="104.113" gradientUnits="userSpaceOnUse">
            <stop stop-color="#A2ACD7"/>
            <stop offset="1" stop-color="#909CCB"/>
        </linearGradient>
        <linearGradient id="paint16_linear" x1="178.224" y1="85.002" x2="190.625" y2="102.098" gradientUnits="userSpaceOnUse">
            <stop stop-color="#B4BDE7"/>
            <stop offset="1" stop-color="#9FA9D3"/>
        </linearGradient>
        <linearGradient id="paint17_linear" x1="201.359" y1="92" x2="180.933" y2="127.286" gradientUnits="userSpaceOnUse">
            <stop stop-color="#B6C1EF"/>
            <stop offset="0.414544" stop-color="#ABB8EC"/>
            <stop offset="1" stop-color="#8996CB"/>
        </linearGradient>
        <linearGradient id="paint18_linear" x1="201.359" y1="92" x2="180.933" y2="127.286" gradientUnits="userSpaceOnUse">
            <stop stop-color="#B6C1EF"/>
            <stop offset="0.414544" stop-color="#ABB8EC"/>
            <stop offset="1" stop-color="#8996CB"/>
        </linearGradient>
        <linearGradient id="paint19_linear" x1="197.473" y1="94" x2="195.763" y2="122.787" gradientUnits="userSpaceOnUse">
            <stop offset="0.0539482" stop-color="#DBE2FF" stop-opacity="0.2"/>
            <stop offset="1" stop-color="#A5B2E6" stop-opacity="0.48"/>
        </linearGradient>
    </defs>
    <path d="M0 0H375V446H0V0Z" fill="url(#paint0_linear)"/>
    <g opacity="0.6">
        <path d="M314.233 100.336C313.968 100.867 314.497 101.398 315.027 101.132C315.115 101.044 315.203 100.955 315.292 100.867C315.556 100.336 315.027 99.8052 314.497 100.071C314.409 100.159 314.321 100.248 314.233 100.336Z" fill="white" fill-opacity="0.6"/>
        <path d="M368.089 143.336C367.824 143.867 368.354 144.398 368.883 144.132C368.972 144.044 369.06 143.955 369.148 143.867C369.413 143.336 368.883 142.805 368.354 143.071C368.266 143.159 368.177 143.248 368.089 143.336Z" fill="white"/>
        <path d="M367.092 189.336C366.827 189.867 367.356 190.398 367.886 190.132C367.974 190.044 368.062 189.955 368.151 189.867C368.415 189.336 367.886 188.805 367.356 189.071C367.268 189.159 367.18 189.248 367.092 189.336Z" fill="white"/>
        <path d="M119.751 139.336C119.487 139.867 120.016 140.398 120.546 140.132C120.634 140.044 120.722 139.955 120.81 139.867C121.075 139.336 120.546 138.805 120.016 139.071C119.928 139.159 119.84 139.248 119.751 139.336Z" fill="white"/>
        <path d="M223.475 58.336C223.21 58.867 223.739 59.3979 224.269 59.1324C224.357 59.0439 224.445 58.9554 224.534 58.867C224.798 58.3361 224.269 57.8052 223.739 58.0706C223.651 58.1591 223.563 58.2476 223.475 58.336Z" fill="white"/>
        <path d="M91.8258 176.336C91.561 176.867 92.0905 177.398 92.62 177.132C92.7083 177.044 92.7965 176.955 92.8848 176.867C93.1495 176.336 92.62 175.805 92.0905 176.071C92.0023 176.159 91.914 176.248 91.8258 176.336Z" fill="white"/>
        <path d="M17.0253 125.336C16.7605 125.867 17.29 126.398 17.8195 126.132C17.9077 126.044 17.996 125.955 18.0842 125.867C18.349 125.336 17.8195 124.805 17.29 125.071C17.2017 125.159 17.1135 125.248 17.0253 125.336Z" fill="white"/>
        <path d="M362.105 95.3361C361.84 95.867 362.37 96.3979 362.899 96.1324C362.987 96.0439 363.076 95.9554 363.164 95.867C363.429 95.3361 362.899 94.8052 362.37 95.0706C362.193 95.1591 362.105 95.2476 362.105 95.3361Z" fill="white"/>
        <path d="M268.355 48.336C268.09 48.867 268.62 49.3979 269.149 49.1324C269.237 49.0439 269.326 48.9554 269.414 48.867C269.679 48.3361 269.149 47.8052 268.62 48.0706C268.443 48.1591 268.355 48.2476 268.355 48.336Z" fill="white"/>
        <path d="M171.613 297.336C171.348 297.867 171.878 298.398 172.407 298.132C172.496 298.044 172.584 297.955 172.672 297.867C172.937 297.336 172.407 296.805 171.878 297.071C171.701 297.159 171.613 297.248 171.613 297.336Z" fill="white"/>
        <path d="M361.108 57.3361C360.843 57.867 361.372 58.3979 361.902 58.1324C361.99 58.0439 362.078 57.9554 362.167 57.867C362.431 57.3361 361.902 56.8052 361.372 57.0706C361.196 57.1591 361.108 57.2476 361.108 57.3361Z" fill="white"/>
        <path d="M141.693 231.734C141.428 232.265 141.957 232.795 142.487 232.53C142.575 232.442 142.663 232.353 142.752 232.265C143.016 231.734 142.487 231.203 141.957 231.468C141.869 231.557 141.781 231.645 141.693 231.734Z" fill="white"/>
        <path d="M161.64 286.336C161.375 286.867 161.904 287.398 162.434 287.133C162.522 287.044 162.61 286.956 162.698 286.867C162.963 286.336 162.434 285.805 161.904 286.071C161.816 286.159 161.728 286.248 161.64 286.336Z" fill="white"/>
        <path d="M357.118 16.3361C356.854 16.867 357.383 17.3979 357.913 17.1324C358.001 17.0439 358.089 16.9554 358.177 16.867C358.442 16.3361 357.913 15.8052 357.383 16.0706C357.207 16.0706 357.118 16.1591 357.118 16.3361Z" fill="white"/>
        <path d="M214.499 8.33606C214.234 8.86696 214.763 9.39786 215.293 9.13241C215.381 9.04393 215.469 8.95544 215.558 8.86696C215.822 8.33605 215.293 7.80516 214.763 8.07061C214.587 8.15909 214.499 8.24758 214.499 8.33606Z" fill="white"/>
        <path d="M198.541 5.33606C198.276 5.86696 198.806 6.39786 199.335 6.13241C199.424 6.04393 199.512 5.95544 199.6 5.86696C199.865 5.33605 199.335 4.80516 198.806 5.07061C198.629 5.15909 198.541 5.24758 198.541 5.33606Z" fill="white"/>
        <path d="M189.565 273.336C189.3 273.867 189.83 274.398 190.359 274.132C190.448 274.044 190.536 273.955 190.624 273.867C190.889 273.336 190.359 272.805 189.83 273.071C189.742 273.159 189.653 273.248 189.565 273.336Z" fill="white"/>
        <path d="M32.9826 25.336C32.7179 25.867 33.2474 26.3979 33.7769 26.1324C33.8651 26.0439 33.9534 25.9554 34.0416 25.867C34.3064 25.3361 33.7769 24.8052 33.2474 25.0706C33.0709 25.0706 32.9826 25.1591 32.9826 25.336Z" fill="white"/>
        <path d="M46.9454 4.33605C46.6807 4.86695 47.2102 5.39786 47.7397 5.13241C47.8279 5.04393 47.9162 4.95544 48.0044 4.86696C48.2691 4.33605 47.7397 3.80516 47.2102 4.07061C47.0337 4.07061 46.9454 4.15908 46.9454 4.33605Z" fill="white"/>
        <path d="M360.11 119.336C359.846 119.867 360.375 120.398 360.905 120.132C360.993 120.044 361.081 119.955 361.169 119.867C361.434 119.336 360.905 118.805 360.375 119.071C360.199 119.071 360.11 119.159 360.11 119.336Z" fill="white"/>
        <path d="M101.799 95.3361C101.534 95.867 102.064 96.3979 102.593 96.1324C102.682 96.0439 102.77 95.9554 102.858 95.867C103.123 95.3361 102.593 94.8052 102.064 95.0706C101.887 95.1591 101.799 95.2476 101.799 95.3361Z" fill="white" fill-opacity="0.6"/>
        <path d="M107.783 215.336C107.518 215.867 108.048 216.398 108.577 216.132C108.666 216.044 108.754 215.955 108.842 215.867C109.107 215.336 108.577 214.805 108.048 215.071C107.871 215.159 107.783 215.248 107.783 215.336Z" fill="white"/>
        <path d="M209.512 269.336C209.247 269.867 209.777 270.398 210.306 270.132C210.394 270.044 210.483 269.955 210.571 269.867C210.836 269.336 210.306 268.805 209.777 269.071C209.6 269.159 209.512 269.248 209.512 269.336Z" fill="white"/>
        <path d="M19.0199 181.336C18.7551 181.867 19.2846 182.398 19.8141 182.132C19.9024 182.044 19.9906 181.955 20.0789 181.867C20.3436 181.336 19.8141 180.805 19.2846 181.071C19.1081 181.159 19.0199 181.248 19.0199 181.336Z" fill="white"/>
        <path d="M362.105 180.336C361.84 180.867 362.37 181.398 362.899 181.132C362.987 181.044 363.076 180.955 363.164 180.867C363.429 180.336 362.899 179.805 362.37 180.071C362.193 180.159 362.105 180.248 362.105 180.336Z" fill="white"/>
        <path d="M194.552 281.336C194.287 281.867 194.817 282.398 195.346 282.132C195.434 282.044 195.523 281.955 195.611 281.867C195.876 281.336 195.346 280.805 194.817 281.071C194.64 281.159 194.552 281.248 194.552 281.336Z" fill="white"/>
        <path d="M139.698 271.336C139.433 271.867 139.963 272.398 140.492 272.132C140.581 272.044 140.669 271.955 140.757 271.867C141.022 271.336 140.492 270.805 139.963 271.071C139.786 271.159 139.698 271.248 139.698 271.336Z" fill="white"/>
        <path d="M124.738 259.336C124.473 259.867 125.003 260.398 125.532 260.132C125.621 260.044 125.709 259.955 125.797 259.867C126.062 259.336 125.532 258.805 125.003 259.071C124.826 259.159 124.738 259.248 124.738 259.336Z" fill="white"/>
        <path d="M34.9773 192.336C34.7125 192.867 35.242 193.398 35.7715 193.132C35.8598 193.044 35.948 192.955 36.0363 192.867C36.301 192.336 35.7715 191.805 35.242 192.071C35.0655 192.159 34.9773 192.248 34.9773 192.336Z" fill="white"/>
        <path d="M141.693 17.3361C141.428 17.867 141.957 18.3979 142.487 18.1324C142.575 18.0439 142.663 17.9554 142.752 17.867C143.016 17.3361 142.487 16.8052 141.957 17.0706C141.781 17.1591 141.693 17.2476 141.693 17.3361Z" fill="white"/>
        <path d="M208.515 13.3361C208.25 13.867 208.779 14.3979 209.309 14.1324C209.397 14.0439 209.485 13.9554 209.573 13.867C209.838 13.3361 209.309 12.8052 208.779 13.0706C208.603 13.1591 208.515 13.2476 208.515 13.3361Z" fill="white"/>
        <path d="M98.8071 144.336C98.5424 144.867 99.0719 145.398 99.6014 145.132C99.6896 145.044 99.7778 144.955 99.8661 144.867C100.131 144.336 99.6014 143.805 99.0719 144.071C98.8954 144.159 98.8071 144.248 98.8071 144.336Z" fill="white"/>
        <path d="M167.624 167.336C167.359 167.867 167.888 168.398 168.418 168.132C168.506 168.044 168.594 167.955 168.683 167.867C168.947 167.336 168.418 166.805 167.888 167.071C167.712 167.159 167.624 167.248 167.624 167.336Z" fill="white"/>
        <path d="M100.802 165.336C100.537 165.867 101.067 166.398 101.596 166.132C101.684 166.044 101.773 165.955 101.861 165.867C102.126 165.336 101.596 164.805 101.067 165.071C100.89 165.159 100.802 165.248 100.802 165.336Z" fill="white"/>
        <path d="M270.35 104.336C270.085 104.867 270.614 105.398 271.144 105.132C271.232 105.044 271.32 104.955 271.409 104.867C271.673 104.336 271.144 103.805 270.614 104.071C270.438 104.159 270.35 104.248 270.35 104.336Z" fill="white" fill-opacity="0.6"/>
        <path d="M138.686 60.6696C138.893 60.4623 138.865 60.0981 138.624 59.8562C138.382 59.6144 138.019 59.5863 137.812 59.7937C137.606 60.001 137.634 60.3652 137.875 60.607C138.116 60.8489 138.479 60.8769 138.686 60.6696Z" fill="white" fill-opacity="0.6"/>
        <path d="M196.112 96.7523C196.319 96.5452 196.291 96.1815 196.05 95.94C195.808 95.6984 195.445 95.6704 195.238 95.8775C195.031 96.0845 195.058 96.4482 195.3 96.6898C195.542 96.9313 195.905 96.9593 196.112 96.7523Z" fill="white"/>
        <path d="M113.707 32.6991C113.442 33.23 113.971 33.7609 114.501 33.4954C114.589 33.407 114.677 33.3185 114.766 33.23C115.03 32.6991 114.501 32.1682 113.971 32.4336C113.883 32.5221 113.795 32.6106 113.707 32.6991Z" fill="white"/>
        <path d="M278.328 15.3361C278.064 15.867 278.593 16.3979 279.123 16.1324C279.211 16.0439 279.299 15.9554 279.387 15.867C279.652 15.3361 279.123 14.8052 278.593 15.0706C278.505 15.1591 278.417 15.2476 278.328 15.3361Z" fill="white" fill-opacity="0.6"/>
        <path d="M163.66 139.336C163.395 139.867 163.924 140.398 164.454 140.132C164.542 140.044 164.63 139.955 164.719 139.867C164.983 139.336 164.454 138.805 163.924 139.071C163.836 139.159 163.748 139.248 163.66 139.336Z" fill="white"/>
        <path d="M23.1271 67.1888C23.3684 66.9469 23.3963 66.5828 23.1895 66.3754C22.9828 66.1681 22.6196 66.1961 22.3783 66.438C22.1371 66.6799 22.1092 67.0441 22.3159 67.2514C22.5227 67.4587 22.8859 67.4307 23.1271 67.1888Z" fill="white"/>
        <path d="M132.778 110.336C133.043 110.867 132.514 111.398 131.984 111.132C131.896 111.044 131.808 110.955 131.719 110.867C131.455 110.336 131.984 109.805 132.514 110.071C132.602 110.159 132.69 110.248 132.778 110.336Z" fill="white"/>
        <path d="M158.709 231.336C158.974 231.867 158.444 232.398 157.915 232.132C157.827 232.044 157.739 231.955 157.65 231.867C157.386 231.336 157.915 230.805 158.444 231.071C158.621 231.071 158.709 231.159 158.709 231.336Z" fill="white"/>
        <path d="M306.316 138.336C306.58 138.867 306.051 139.398 305.521 139.132C305.433 139.044 305.345 138.955 305.257 138.867C304.992 138.336 305.521 137.805 306.051 138.071C306.227 138.071 306.316 138.159 306.316 138.336Z" fill="white"/>
        <path d="M210.571 143.336C210.836 143.867 210.306 144.398 209.777 144.133C209.688 144.044 209.6 143.956 209.512 143.867C209.247 143.336 209.777 142.805 210.306 143.071C210.483 143.159 210.571 143.248 210.571 143.336Z" fill="white"/>
        <path d="M97.8715 256.336C98.1362 256.867 97.6067 257.398 97.0772 257.133C96.989 257.044 96.9007 256.956 96.8125 256.867C96.5477 256.336 97.0772 255.805 97.6067 256.071C97.7832 256.159 97.8715 256.248 97.8715 256.336Z" fill="white"/>
        <path d="M235.504 150.336C235.769 150.867 235.24 151.398 234.71 151.132C234.622 151.044 234.534 150.955 234.445 150.867C234.181 150.336 234.71 149.805 235.24 150.071C235.328 150.159 235.416 150.248 235.504 150.336Z" fill="white"/>
        <path d="M162.698 299.336C162.963 299.867 162.434 300.398 161.904 300.132C161.816 300.044 161.728 299.955 161.64 299.867C161.375 299.336 161.904 298.805 162.434 299.071C162.522 299.159 162.61 299.248 162.698 299.336Z" fill="white"/>
        <path d="M282.379 104.336C282.644 104.867 282.115 105.398 281.585 105.132C281.497 105.044 281.409 104.955 281.32 104.867C281.056 104.336 281.585 103.805 282.115 104.071C282.203 104.159 282.291 104.248 282.379 104.336Z" fill="white"/>
        <path d="M326.262 75.3361C326.527 75.867 325.998 76.3979 325.468 76.1324C325.38 76.0439 325.292 75.9555 325.203 75.867C324.939 75.3361 325.468 74.8052 325.998 75.0706C326.086 75.1591 326.174 75.2476 326.262 75.3361Z" fill="white"/>
        <path d="M145.388 113.219C145.653 113.75 145.123 114.281 144.594 114.016C144.505 113.927 144.417 113.839 144.329 113.75C144.064 113.219 144.594 112.688 145.123 112.954C145.211 113.042 145.388 113.131 145.388 113.219Z" fill="white"/>
        <path d="M244.48 153.336C244.745 153.867 244.216 154.398 243.686 154.132C243.598 154.044 243.51 153.955 243.421 153.867C243.157 153.336 243.686 152.805 244.216 153.071C244.392 153.159 244.48 153.248 244.48 153.336Z" fill="white"/>
        <path d="M198.603 222.336C198.868 222.867 198.338 223.398 197.809 223.132C197.72 223.044 197.632 222.955 197.544 222.867C197.279 222.336 197.809 221.805 198.338 222.071C198.426 222.159 198.515 222.248 198.603 222.336Z" fill="white"/>
        <path d="M171.333 113.042C171.598 113.573 171.068 114.104 170.539 113.839C170.45 113.75 170.362 113.662 170.274 113.573C170.009 113.042 170.539 112.511 171.068 112.777C171.156 112.777 171.245 112.954 171.333 113.042Z" fill="white"/>
        <path d="M173.726 184.189C173.967 183.947 173.995 183.583 173.788 183.375C173.581 183.168 173.218 183.196 172.977 183.438C172.736 183.68 172.708 184.044 172.914 184.251C173.121 184.459 173.484 184.431 173.726 184.189Z" fill="white"/>
        <path d="M271.409 137.336C271.673 137.867 271.144 138.398 270.614 138.132C270.526 138.044 270.438 137.955 270.35 137.867C270.085 137.336 270.614 136.805 271.144 137.071C271.232 137.071 271.32 137.159 271.409 137.336Z" fill="white"/>
        <path d="M135.77 221.336C136.035 221.867 135.506 222.398 134.976 222.132C134.888 222.044 134.8 221.955 134.711 221.867C134.447 221.336 134.976 220.805 135.506 221.071C135.594 221.071 135.682 221.159 135.77 221.336Z" fill="white"/>
        <path d="M260.438 189.336C260.703 189.867 260.173 190.398 259.644 190.132C259.556 190.044 259.467 189.955 259.379 189.867C259.114 189.336 259.644 188.805 260.173 189.071C260.261 189.071 260.35 189.159 260.438 189.336Z" fill="white"/>
        <path d="M335.238 109.336C335.503 109.867 334.974 110.398 334.444 110.132C334.356 110.044 334.268 109.955 334.179 109.867C333.915 109.336 334.444 108.805 334.974 109.071C335.062 109.071 335.15 109.159 335.238 109.336Z" fill="white"/>
        <path d="M264.483 23.1889C264.725 22.947 264.753 22.5829 264.546 22.3756C264.339 22.1682 263.976 22.1962 263.735 22.4381C263.493 22.68 263.465 23.0442 263.672 23.2515C263.879 23.4588 264.242 23.4308 264.483 23.1889Z" fill="white"/>
        <path d="M19.851 15.565C20.2961 16.4576 19.4059 17.3502 18.5157 16.9039C18.3673 16.7551 18.2189 16.6064 18.0705 16.4576C17.6254 15.565 18.5156 14.6724 19.4059 15.1187C19.7026 15.1187 19.851 15.2675 19.851 15.565Z" fill="white"/>
    </g>
    <path d="M204.38 310.868C204.529 310.796 204.654 310.736 204.754 310.688L199.75 299.833C199.641 299.91 199.504 300.008 199.341 300.123C198.89 300.443 198.241 300.901 197.447 301.456C195.86 302.566 193.697 304.061 191.392 305.605C189.087 307.149 186.638 308.743 184.48 310.048C182.331 311.347 180.444 312.376 179.276 312.773L179.275 312.773C176.558 313.687 172.673 313.829 168.689 313.74C166.755 313.697 164.787 313.599 162.904 313.505L162.717 313.496C160.776 313.399 158.933 313.309 157.309 313.291C155.682 313.272 154.293 313.324 153.258 313.507C152.74 313.598 152.325 313.72 152.018 313.872C151.711 314.024 151.535 314.195 151.453 314.373C151.373 314.545 151.358 314.773 151.472 315.091C151.587 315.414 151.83 315.811 152.236 316.292C153.046 317.25 154.456 318.483 156.61 320.057C158.219 320.859 160.151 321.986 162.248 323.228C162.566 323.416 162.887 323.606 163.212 323.799C165.046 324.888 166.989 326.04 168.953 327.134C173.478 329.656 178.053 331.829 181.596 332.188C181.613 332.093 181.631 331.981 181.649 331.868C181.673 331.72 181.696 331.571 181.713 331.46L181.733 331.326L181.739 331.288L181.74 331.278L181.741 331.276L181.741 331.275L181.741 331.275L181.741 331.275L181.783 330.993L182.066 331.02C183.12 331.123 183.962 330.815 184.572 329.996C185.199 329.116 185.589 328.096 185.899 327.123C185.915 327.071 185.938 327.013 185.956 326.965C185.96 326.955 185.964 326.945 185.967 326.936C185.99 326.876 186.008 326.826 186.019 326.779L186.021 326.77L186.024 326.761C186.578 325.016 187.375 323.33 188.249 321.482C188.28 321.418 188.311 321.353 188.341 321.288L188.342 321.287C188.582 320.784 189.035 320.248 189.615 319.702C190.199 319.152 190.931 318.574 191.753 317.988C193.398 316.817 195.422 315.601 197.385 314.502C199.349 313.403 201.258 312.418 202.676 311.707C203.385 311.352 203.971 311.066 204.38 310.868Z" fill="#CBC7E0" stroke="#485088" stroke-width="0.6"/>
    <path d="M147.926 312.904L147.926 312.908C147.896 314.306 149.37 320.062 158.438 323.115C163.043 324.665 165.014 325.702 166.621 326.75C167.012 327.005 167.378 327.258 167.753 327.517C168.913 328.319 170.161 329.181 172.501 330.346C175.611 331.894 178.55 332.965 180.907 333.143C182.083 333.232 183.093 333.097 183.904 332.708C184.707 332.322 185.335 331.676 185.74 330.698L185.74 330.698L185.743 330.69C186.047 330.01 186.35 328.613 186.607 327.158C186.814 325.985 186.987 324.805 187.106 323.993C187.117 323.918 187.127 323.846 187.138 323.777C185.27 323.395 182.934 323.254 180.359 323.098C179.992 323.076 179.619 323.054 179.242 323.03C176.113 322.834 172.715 322.567 169.508 321.788C165.545 320.84 162.492 318.592 160.435 316.591C159.405 315.589 158.622 314.646 158.095 313.953C157.832 313.606 157.632 313.321 157.498 313.123C157.449 313.049 157.408 312.987 157.376 312.938L155.487 312.782L155.485 312.782C154.776 312.72 154.116 312.657 153.503 312.599C151.885 312.447 150.601 312.325 149.649 312.321C148.989 312.317 148.535 312.372 148.254 312.485C148.119 312.54 148.042 312.602 147.997 312.661C147.955 312.717 147.927 312.791 147.926 312.904Z" fill="#6775B9" stroke="#485088" stroke-width="0.6"/>
    <path d="M102.228 297.5C102.228 264.896 186.503 282.15 186.503 241C186.503 189 74.7978 205.348 55.5476 156.007C29.9468 90.3888 86.3919 72.9696 128.158 82.5C182.092 94.8068 222.305 130 287.733 130C313.887 130 349.684 127.158 373.504 115.178M317.154 50.9999C343.242 49.1943 361.246 51.7789 373.504 56.4769" stroke="url(#paint1_linear)" stroke-dasharray="4 4"/>
    <rect x="11.968" y="212.842" width="136.821" height="107.62" rx="11" fill="#7886D0"/>
    <rect x="21.3969" y="223.741" width="119.567" height="24.1329" rx="4" fill="#9BA7E4"/>
    <path d="M38.4779 245.538C43.1947 245.538 47.0184 241.704 47.0184 236.975C47.0184 232.245 43.1947 228.411 38.4779 228.411C33.7611 228.411 29.9374 232.245 29.9374 236.975C29.9374 241.704 33.7611 245.538 38.4779 245.538Z" fill="#6065B0"/>
    <path d="M109.127 229.969H56.3394C55.4795 229.969 54.7825 230.666 54.7825 231.526C54.7825 232.386 55.4795 233.083 56.3394 233.083H109.127C109.987 233.083 110.684 232.386 110.684 231.526C110.684 230.666 109.987 229.969 109.127 229.969Z" fill="#6065B0"/>
    <path d="M95.9281 239.31H56.3394C55.4795 239.31 54.7825 240.007 54.7825 240.867C54.7825 241.727 55.4795 242.424 56.3394 242.424H95.9281C96.788 242.424 97.485 241.727 97.485 240.867C97.485 240.007 96.788 239.31 95.9281 239.31Z" fill="#7886D0"/>
    <rect x="21.3969" y="254.102" width="119.567" height="24.1329" rx="4" fill="#9BA7E4"/>
    <path d="M39.7918 275.899C44.8714 275.899 48.9893 272.065 48.9893 267.336C48.9893 262.606 44.8714 258.773 39.7918 258.773C34.7122 258.773 30.5944 262.606 30.5944 267.336C30.5944 272.065 34.7122 275.899 39.7918 275.899Z" fill="#6065B0"/>
    <path d="M113.427 260.33H56.3394C55.4795 260.33 54.7825 261.027 54.7825 261.887C54.7825 262.747 55.4795 263.444 56.3394 263.444H113.427C114.287 263.444 114.984 262.747 114.984 261.887C114.984 261.027 114.287 260.33 113.427 260.33Z" fill="#6065B0"/>
    <path d="M99.2129 269.671H56.3394C55.4795 269.671 54.7825 270.368 54.7825 271.228C54.7825 272.088 55.4795 272.785 56.3394 272.785H99.2129C100.073 272.785 100.77 272.088 100.77 271.228C100.77 270.368 100.073 269.671 99.2129 269.671Z" fill="#7886D0"/>
    <rect x="21.3969" y="284.462" width="119.567" height="24.1329" rx="4" fill="#9BA7E4"/>
    <path d="M38.4778 306.26C43.1945 306.26 47.0183 302.426 47.0183 297.696C47.0183 292.967 43.1945 289.133 38.4778 289.133C33.761 289.133 29.9373 292.967 29.9373 297.696C29.9373 302.426 33.761 306.26 38.4778 306.26Z" fill="#6065B0"/>
    <path d="M109.127 290.69H56.3394C55.4795 290.69 54.7825 291.387 54.7825 292.247C54.7825 293.107 55.4795 293.804 56.3394 293.804H109.127C109.987 293.804 110.684 293.107 110.684 292.247C110.684 291.387 109.987 290.69 109.127 290.69Z" fill="#6065B0"/>
    <path d="M95.9281 300.032H56.3394C55.4795 300.032 54.7825 300.729 54.7825 301.589C54.7825 302.449 55.4795 303.146 56.3394 303.146H95.9281C96.788 303.146 97.485 302.449 97.485 301.589C97.485 300.729 96.788 300.032 95.9281 300.032Z" fill="#7886D0"/>
    <path d="M-0.00012207 361.086V257.396C3.88235 259.416 8.5253 265.702 12.9652 278C17.9428 268.517 46.2729 268.002 53.3192 295.35C52.9092 292.421 72.8056 291.207 72.8056 303.5C94.7471 295.5 100.232 309 100.232 314.586C112.201 303.5 144.995 301.675 169.049 328.448C172.041 324.045 183.012 311.077 201.501 324.045C205.384 324.216 211.141 325.421 216.233 328.448C216.233 328.448 217.75 314.229 230.385 311.077C242.943 307.944 251.019 314.233 251.099 314.324C251.179 314.416 251.256 314.503 251.33 314.586C256.428 305.083 275.266 298.069 298.703 305.517C298.703 276.337 321.472 265 339.594 265C325.501 256.138 347.091 237.315 353.557 241.5C339.594 223.5 348.877 217.973 360.04 232C358.769 224.368 367.52 212.5 375 212.5V337.026L258.772 390L233.382 383.428L243.773 446H6.64862L-0.00012207 361.086Z" fill="url(#paint2_linear)"/>
    <path d="M375 251.723C363.386 245.618 348.491 250.994 344.082 288.077C308 269 301.641 300.838 306.682 322C306.682 322 275.788 311.946 271.276 341.5C271.276 341.5 258.311 327.5 247.839 334C247.839 334 237.367 338.5 243.85 355C243.85 355 219.913 346.5 224.401 373C224.401 373 181.516 358 179.521 403.5C179.521 403.5 132.476 392.895 132.166 446H375V251.723Z" fill="white"/>
    <path d="M79.2407 446H-0.00012207V326.982C6.2691 334.525 8.00436 344.64 8.00436 344.64C48.9022 345.347 30.127 393.143 30.127 393.143C50.5032 391.588 42.3527 421.001 42.3527 421.001C66.0764 416.334 61.1279 440.939 61.1279 440.939C68.8255 441.551 74.7288 443.401 79.2407 446Z" fill="white"/>
    <path d="M375 288.942C371.782 289.722 368.207 292.538 367.224 300.866C367.224 300.866 357.738 295.805 351.873 310.245C351.873 310.245 358.945 306.374 365.327 308.607C365.327 308.607 352.563 311.882 349.286 327.96C349.286 327.96 348.078 323.643 349.976 316.944C349.976 316.944 326.862 304.737 321.688 330.193C321.688 330.193 331.347 323.048 338.419 334.659C338.419 334.659 324.275 330.789 315.306 344.634C315.306 344.634 301.162 333.617 295.987 352.97C295.987 352.97 311.511 348.504 322.378 369.048C322.378 369.048 303.749 347.462 277.359 361.307C277.359 361.307 255.625 344.187 252.348 373.514C252.348 373.514 230.615 370.09 234.409 388.997C234.409 388.997 218.368 382.298 211.986 401.204C211.986 401.204 219.748 388.997 242.861 398.971C242.861 398.971 212.676 393.463 195.945 416.686C195.945 416.686 194.738 408.945 203.707 401.204C203.707 401.204 150.755 384.047 150.41 446H375V288.942Z" fill="url(#paint3_linear)"/>
    <path d="M81.1114 446C75.7085 441.332 66.7678 437.632 52.0909 437.081C52.0909 437.081 52.3789 441.246 50.1631 446H81.1114Z" fill="url(#paint4_linear)"/>
    <path d="M45.4329 446C46.7604 436.364 46.4425 420.683 31.5649 416.537C31.5649 416.537 33.4623 386.615 12.9363 390.485C12.9363 390.485 13.9712 375.152 0.862244 375.598C0.862244 375.598 24.3205 371.132 13.4538 353.417C13.4538 353.417 10.1854 365.134 -0.000244141 365.784V446H45.4329Z" fill="url(#paint5_linear)"/>
    <path d="M-0.000244141 359.476V338.553C8.0294 346.321 4.26711 354.33 -0.000244141 359.476Z" fill="url(#paint6_linear)"/>
    <path d="M-0.00012207 283.729V446H216.215L206.294 406.116V405.968C196.29 418.026 196.807 434.551 196.807 434.551C193.358 418.324 200.775 403.288 200.775 403.288C170.589 360.86 139.024 386.466 139.024 386.466C146.534 377.584 147.54 377.315 147.649 377.544C147.649 377.59 147.649 377.636 147.649 377.682C147.649 377.682 147.674 377.599 147.649 377.544C147.57 312.206 91.9353 330.193 91.9353 330.193C101.422 338.232 100.042 346.42 100.042 346.42C82.621 322.005 51.0559 327.811 51.0559 327.811C75.2041 317.39 83.311 330.193 83.311 330.193C76.584 310.394 59.8528 317.391 59.8528 317.391C63.82 297.74 41.0517 301.164 41.0517 301.164C37.602 270.348 14.8337 288.361 14.8337 288.361C9.56757 285.606 4.59659 284.2 -0.00012207 283.729Z" fill="url(#paint7_linear)"/>
    <path d="M199.707 360.892L199.708 360.889C200.033 359.633 200.003 358.299 199.966 356.95L199.966 356.95C199.9 354.401 201.372 351.828 202.872 349.517L202.873 349.517C204.163 347.538 206.634 344.386 208.774 341.738C209.845 340.412 210.836 339.208 211.56 338.337C211.922 337.901 212.216 337.548 212.421 337.304C212.439 337.282 212.457 337.261 212.474 337.24L198.796 331.669C198.752 331.758 198.698 331.869 198.632 332C198.447 332.373 198.177 332.907 197.839 333.556C197.164 334.854 196.215 336.61 195.124 338.44C194.033 340.269 192.796 342.178 191.545 343.781C190.301 345.374 189.015 346.699 187.82 347.319C186.669 347.926 185.568 348.568 184.481 349.202L184.395 349.252C183.282 349.901 182.182 350.541 181.068 351.115C178.838 352.265 176.535 353.161 173.897 353.368L173.896 353.368C173.602 353.389 173.317 353.412 173.031 353.434L173.031 353.434L173.03 353.434C172.745 353.457 172.458 353.479 172.164 353.501L172.161 353.501C171.869 353.52 171.578 353.538 171.29 353.556C169.321 353.68 167.478 353.796 166.087 353.993C165.287 354.106 164.663 354.243 164.258 354.411C164.055 354.496 163.932 354.579 163.868 354.648C163.814 354.708 163.809 354.746 163.815 354.785L163.815 354.785C163.903 355.317 164.496 356.404 166.163 357.535C167.819 358.659 170.511 359.808 174.726 360.473C178.8 361.115 180.593 361.038 182.018 360.977C182.075 360.974 182.132 360.972 182.189 360.969C183.686 360.906 184.864 360.897 187.87 361.774C190.842 362.641 193.626 363.283 195.771 363.257C196.842 363.244 197.725 363.065 198.387 362.687C199.038 362.316 199.495 361.744 199.707 360.892Z" fill="#E3DFEE" stroke="#485088" stroke-width="0.6"/>
    <path d="M163.802 355.051L163.803 355.055C164.02 356.273 166.316 361.058 174.806 362.131C179.124 362.677 181.041 363.24 182.64 363.876C183.029 364.031 183.396 364.189 183.772 364.351C184.931 364.849 186.176 365.384 188.435 365.992C191.437 366.801 194.202 367.219 196.298 366.959C197.343 366.83 198.2 366.533 198.838 366.052C199.469 365.576 199.903 364.904 200.084 363.981L200.084 363.981L200.086 363.972C200.232 363.326 200.252 362.049 200.221 360.725C200.197 359.658 200.141 358.592 200.102 357.858C200.099 357.801 200.096 357.746 200.094 357.693C198.394 357.691 196.331 357.979 194.055 358.296C193.729 358.342 193.397 358.388 193.062 358.434C190.279 358.817 187.245 359.184 184.289 359.067C180.634 358.937 177.551 357.5 175.389 356.105C174.307 355.407 173.452 354.717 172.866 354.2C172.573 353.942 172.347 353.727 172.194 353.576C172.143 353.525 172.1 353.481 172.065 353.446L170.394 353.642L170.392 353.642C169.758 353.713 169.166 353.775 168.617 353.833C167.17 353.985 166.023 354.106 165.188 354.27C164.608 354.384 164.225 354.511 164.003 354.657C163.897 354.727 163.845 354.791 163.819 354.844C163.796 354.894 163.784 354.957 163.802 355.051Z" fill="#6775B9" stroke="#485088" stroke-width="0.6"/>
    <path d="M232.194 226.698L233.508 221.426C233.462 221.425 233.413 221.423 233.36 221.421C233.024 221.404 232.557 221.358 232.03 221.241C230.978 221.007 229.661 220.484 228.677 219.318C228.406 218.996 228.16 218.682 227.93 218.387L227.904 218.353C227.665 218.047 227.444 217.765 227.221 217.509C226.776 216.999 226.343 216.619 225.804 216.404C225.589 216.32 225.252 216.271 224.792 216.228C224.655 216.215 224.508 216.203 224.353 216.19C224.01 216.162 223.631 216.13 223.243 216.082C222.113 215.944 220.812 215.663 219.75 214.865L219.733 214.852L219.718 214.837C217.488 212.6 215.836 211.498 214.672 211.015C213.506 210.532 212.882 210.688 212.628 210.866C212.596 210.892 212.539 210.971 212.52 211.184C212.5 211.393 212.522 211.676 212.588 212.023C212.719 212.715 213.011 213.602 213.397 214.54C214.172 216.42 215.295 218.436 216.166 219.427C216.425 219.722 216.926 220.052 217.63 220.412C218.324 220.766 219.182 221.132 220.124 221.508C220.785 221.772 221.489 222.042 222.204 222.316C223.512 222.817 224.855 223.331 226.034 223.85C226.954 224.254 228.578 225.006 229.969 225.655C230.665 225.98 231.304 226.279 231.769 226.498C231.934 226.575 232.078 226.643 232.194 226.698Z" fill="#F4ECEC" stroke="#4B4F90" stroke-width="0.6"/>
    <path d="M195.427 309.461L195.427 309.462C195.821 310.072 196.144 310.825 196.449 311.575C196.502 311.706 196.555 311.837 196.607 311.967C196.86 312.593 197.106 313.205 197.384 313.751C197.72 314.413 198.081 314.935 198.509 315.245C198.918 315.541 199.407 315.657 200.06 315.466C219.29 309.86 241.493 301.947 260.753 293.666C270.383 289.526 279.274 285.295 286.687 281.216C294.106 277.134 300.028 273.214 303.735 269.697C304.183 269.272 304.302 268.884 304.246 268.522C304.186 268.136 303.918 267.709 303.439 267.245C302.482 266.318 300.838 265.385 299.074 264.473C298.572 264.214 298.061 263.956 297.556 263.702C296.307 263.073 295.097 262.464 294.167 261.895C293.515 261.496 292.968 261.098 292.634 260.705C292.466 260.507 292.336 260.29 292.287 260.058C292.236 259.814 292.279 259.573 292.423 259.354L292.423 259.354C292.881 258.656 293.074 258.105 293.081 257.679C293.089 257.273 292.928 256.954 292.599 256.692C292.256 256.419 291.725 256.206 291.002 256.063C290.284 255.921 289.401 255.853 288.378 255.851C284.279 255.847 278.085 256.913 271.625 258.347C265.174 259.779 258.484 261.57 253.406 263.005C250.867 263.722 248.732 264.349 247.232 264.797C246.482 265.022 245.89 265.201 245.487 265.324C245.285 265.386 245.13 265.433 245.025 265.465L244.907 265.502L244.907 265.502L244.887 265.515L244.726 265.619C244.585 265.711 244.376 265.847 244.107 266.023C243.569 266.374 242.79 266.882 241.824 267.515C239.893 268.779 237.218 270.536 234.239 272.509C228.28 276.454 221.111 281.256 216.263 284.692C211.514 288.057 205.41 292.29 200.494 295.681C198.036 297.376 195.874 298.862 194.327 299.923C193.554 300.454 192.934 300.879 192.508 301.171L192.034 301.495C192.038 301.506 192.042 301.518 192.046 301.531C192.1 301.692 192.179 301.924 192.278 302.211C192.477 302.786 192.76 303.578 193.093 304.448C193.763 306.197 194.628 308.232 195.427 309.461Z" fill="#41477E" stroke="#434580" stroke-width="0.6"/>
    <mask id="path-87-inside-1" fill="white">
        <path fill-rule="evenodd" clip-rule="evenodd" d="M243.055 264.969C255.792 261.524 296.709 268 296.709 268L308.241 269.155L322.106 277.726C322.106 277.726 322.368 279.529 322.224 282.335C312.92 283.993 305.778 291.832 305.06 306.633C290.225 309.05 263.667 300.861 254.492 298.031C253.031 297.581 252.011 297.266 251.549 297.152C247.519 296.159 244.86 301.03 240.427 309.331C235.968 317.63 208.444 344.5 208.444 344.5C208.444 344.5 196.459 340.928 194.338 340.021C192.039 339.044 191.251 337.874 191.251 337.874C191.251 337.874 230.319 268.414 243.055 264.969Z"/>
    </mask>
    <path fill-rule="evenodd" clip-rule="evenodd" d="M243.055 264.969C255.792 261.524 296.709 268 296.709 268L308.241 269.155L322.106 277.726C322.106 277.726 322.368 279.529 322.224 282.335C312.92 283.993 305.778 291.832 305.06 306.633C290.225 309.05 263.667 300.861 254.492 298.031C253.031 297.581 252.011 297.266 251.549 297.152C247.519 296.159 244.86 301.03 240.427 309.331C235.968 317.63 208.444 344.5 208.444 344.5C208.444 344.5 196.459 340.928 194.338 340.021C192.039 339.044 191.251 337.874 191.251 337.874C191.251 337.874 230.319 268.414 243.055 264.969Z" fill="url(#paint8_linear)"/>
    <path d="M296.709 268L296.649 268.597L296.632 268.595L296.615 268.593L296.709 268ZM243.055 264.969L242.898 264.39L242.898 264.39L243.055 264.969ZM308.241 269.155L308.301 268.558L308.439 268.571L308.557 268.644L308.241 269.155ZM322.106 277.726L322.421 277.215L322.659 277.363L322.7 277.64L322.106 277.726ZM322.224 282.335L322.824 282.366L322.799 282.842L322.33 282.926L322.224 282.335ZM305.06 306.633L305.659 306.663L305.635 307.148L305.156 307.226L305.06 306.633ZM254.492 298.031L254.315 298.604L254.315 298.604L254.492 298.031ZM251.549 297.152L251.692 296.569L251.693 296.569L251.549 297.152ZM240.427 309.331L240.957 309.614L240.956 309.616L240.427 309.331ZM208.444 344.5L208.863 344.93L208.611 345.176L208.273 345.075L208.444 344.5ZM194.338 340.021L194.573 339.469L194.574 339.47L194.338 340.021ZM191.251 337.874L190.753 338.209L190.547 337.902L190.728 337.579L191.251 337.874ZM296.709 268C296.615 268.593 296.615 268.593 296.615 268.593C296.615 268.593 296.614 268.592 296.614 268.592C296.613 268.592 296.611 268.592 296.608 268.592C296.603 268.591 296.596 268.59 296.586 268.588C296.567 268.585 296.538 268.58 296.499 268.574C296.422 268.562 296.306 268.544 296.155 268.521C295.853 268.475 295.409 268.407 294.838 268.322C293.696 268.152 292.05 267.913 290.035 267.636C286.005 267.084 280.5 266.383 274.598 265.79C268.696 265.196 262.404 264.712 256.799 264.589C251.175 264.467 246.306 264.712 243.212 265.548L242.898 264.39C246.173 263.504 251.194 263.267 256.824 263.39C262.473 263.513 268.799 264.001 274.718 264.596C280.638 265.191 286.158 265.894 290.198 266.448C292.218 266.725 293.868 266.964 295.014 267.135C295.587 267.22 296.034 267.288 296.337 267.335C296.489 267.358 296.605 267.376 296.683 267.389C296.723 267.395 296.752 267.399 296.772 267.403C296.782 267.404 296.79 267.405 296.795 267.406C296.797 267.407 296.799 267.407 296.8 267.407C296.801 267.407 296.802 267.407 296.802 267.407C296.802 267.407 296.802 267.407 296.709 268ZM308.182 269.752L296.649 268.597L296.768 267.403L308.301 268.558L308.182 269.752ZM321.791 278.236L307.926 269.665L308.557 268.644L322.421 277.215L321.791 278.236ZM321.625 282.304C321.696 280.926 321.667 279.796 321.62 279.013C321.597 278.622 321.57 278.318 321.548 278.114C321.537 278.011 321.528 277.934 321.522 277.883C321.519 277.858 321.516 277.839 321.514 277.827C321.514 277.821 321.513 277.817 321.513 277.814C321.512 277.813 321.512 277.812 321.512 277.812C321.512 277.812 321.512 277.812 321.512 277.812C321.512 277.812 321.512 277.812 321.512 277.812C321.512 277.812 321.512 277.812 321.512 277.812C321.512 277.812 321.512 277.812 322.106 277.726C322.7 277.64 322.7 277.64 322.7 277.64C322.7 277.64 322.7 277.64 322.7 277.64C322.7 277.64 322.7 277.64 322.7 277.641C322.7 277.641 322.7 277.642 322.7 277.642C322.7 277.644 322.701 277.645 322.701 277.648C322.701 277.652 322.702 277.658 322.703 277.666C322.706 277.682 322.709 277.705 322.712 277.734C322.72 277.793 322.73 277.878 322.741 277.989C322.765 278.21 322.794 278.532 322.818 278.943C322.867 279.763 322.897 280.938 322.824 282.366L321.625 282.304ZM322.33 282.926C317.82 283.73 313.845 286.026 310.901 289.918C307.953 293.816 306.014 299.351 305.659 306.663L304.46 306.604C304.824 299.115 306.815 293.33 309.944 289.193C313.077 285.051 317.324 282.599 322.119 281.745L322.33 282.926ZM254.668 297.458C259.256 298.872 268.167 301.62 277.781 303.713C287.417 305.811 297.667 307.23 304.963 306.041L305.156 307.226C297.617 308.454 287.171 306.986 277.526 304.886C267.858 302.781 258.903 300.019 254.315 298.604L254.668 297.458ZM251.693 296.569C252.176 296.689 253.22 297.011 254.668 297.458L254.315 298.604C252.842 298.15 251.846 297.843 251.405 297.734L251.693 296.569ZM239.898 309.049C242.104 304.918 243.906 301.565 245.673 299.379C246.56 298.281 247.472 297.433 248.464 296.933C249.475 296.423 250.543 296.286 251.692 296.569L251.405 297.734C250.54 297.521 249.764 297.621 249.005 298.004C248.226 298.397 247.441 299.1 246.606 300.133C244.928 302.21 243.184 305.443 240.957 309.614L239.898 309.049ZM208.444 344.5C208.025 344.071 208.025 344.07 208.025 344.07C208.026 344.07 208.026 344.07 208.026 344.069C208.027 344.069 208.028 344.067 208.03 344.066C208.033 344.063 208.038 344.058 208.045 344.051C208.058 344.038 208.078 344.019 208.104 343.994C208.156 343.943 208.233 343.867 208.334 343.768C208.537 343.569 208.834 343.277 209.214 342.902C209.975 342.152 211.066 341.071 212.39 339.747C215.038 337.101 218.615 333.486 222.33 329.612C226.047 325.738 229.898 321.609 233.096 317.934C236.308 314.242 238.82 311.054 239.899 309.047L240.956 309.616C239.805 311.758 237.204 315.041 234.001 318.722C230.785 322.418 226.919 326.563 223.197 330.443C219.474 334.325 215.891 337.946 213.239 340.596C211.913 341.922 210.819 343.005 210.057 343.757C209.676 344.132 209.378 344.426 209.175 344.625C209.073 344.724 208.995 344.8 208.943 344.852C208.917 344.877 208.897 344.897 208.884 344.91C208.877 344.916 208.872 344.921 208.869 344.925C208.867 344.926 208.866 344.927 208.865 344.928C208.864 344.929 208.864 344.929 208.864 344.929C208.864 344.929 208.863 344.93 208.444 344.5ZM194.574 339.47C195.597 339.907 199.083 341.015 202.363 342.027C203.992 342.53 205.555 343.004 206.711 343.353C207.289 343.528 207.766 343.671 208.097 343.77C208.263 343.82 208.392 343.858 208.481 343.885C208.525 343.898 208.558 343.908 208.581 343.915C208.592 343.918 208.601 343.921 208.607 343.922C208.61 343.923 208.612 343.924 208.613 343.924C208.614 343.925 208.614 343.925 208.615 343.925C208.615 343.925 208.615 343.925 208.615 343.925C208.615 343.925 208.615 343.925 208.444 344.5C208.273 345.075 208.273 345.075 208.273 345.075C208.273 345.075 208.273 345.075 208.273 345.075C208.272 345.075 208.272 345.075 208.271 345.074C208.269 345.074 208.267 345.073 208.264 345.072C208.259 345.071 208.25 345.068 208.239 345.065C208.216 345.058 208.182 345.048 208.138 345.035C208.049 345.008 207.919 344.969 207.753 344.92C207.421 344.82 206.944 344.677 206.365 344.502C205.208 344.153 203.642 343.678 202.01 343.174C198.767 342.173 195.2 341.042 194.103 340.573L194.574 339.47ZM191.251 337.874C191.748 337.539 191.748 337.538 191.748 337.538C191.748 337.538 191.748 337.538 191.748 337.538C191.748 337.537 191.747 337.537 191.747 337.537C191.747 337.536 191.747 337.536 191.746 337.536C191.746 337.535 191.746 337.535 191.746 337.534C191.745 337.534 191.746 337.535 191.747 337.537C191.75 337.541 191.756 337.549 191.765 337.56C191.783 337.584 191.815 337.623 191.861 337.676C191.952 337.78 192.103 337.937 192.322 338.125C192.761 338.501 193.481 339.005 194.573 339.469L194.104 340.574C192.897 340.06 192.072 339.49 191.542 339.037C191.278 338.81 191.087 338.613 190.959 338.468C190.895 338.395 190.847 338.335 190.813 338.291C190.797 338.269 190.783 338.251 190.773 338.237C190.768 338.23 190.764 338.224 190.761 338.219C190.759 338.217 190.758 338.215 190.756 338.213C190.756 338.212 190.755 338.211 190.755 338.211C190.754 338.21 190.754 338.21 190.754 338.21C190.754 338.209 190.754 338.209 190.754 338.209C190.753 338.209 190.753 338.209 191.251 337.874ZM243.212 265.548C241.782 265.935 239.874 267.296 237.591 269.52C235.332 271.722 232.78 274.695 230.061 278.183C224.624 285.157 218.558 294.144 212.883 303.036C207.208 311.926 201.931 320.709 198.071 327.271C196.142 330.552 194.567 333.277 193.475 335.181C192.929 336.133 192.503 336.88 192.215 337.389C192.07 337.644 191.96 337.838 191.886 337.97C191.849 338.035 191.821 338.085 191.802 338.118C191.793 338.135 191.785 338.147 191.781 338.156C191.778 338.16 191.777 338.163 191.776 338.165C191.775 338.166 191.775 338.167 191.774 338.167C191.774 338.168 191.774 338.168 191.251 337.874C190.728 337.579 190.728 337.579 190.728 337.578C190.729 337.578 190.729 337.577 190.73 337.576C190.731 337.574 190.733 337.571 190.735 337.566C190.74 337.558 190.747 337.545 190.757 337.528C190.775 337.495 190.804 337.445 190.841 337.379C190.915 337.247 191.026 337.051 191.171 336.796C191.461 336.286 191.887 335.537 192.434 334.583C193.528 332.676 195.105 329.947 197.037 326.662C200.901 320.093 206.186 311.296 211.871 302.39C217.554 293.487 223.643 284.463 229.114 277.444C231.849 273.936 234.439 270.917 236.753 268.661C239.045 266.427 241.144 264.864 242.898 264.39L243.212 265.548Z" fill="#434580" mask="url(#path-87-inside-1)"/>
    <path d="M288.354 196.587C299.243 205.403 315.881 227.545 314.944 232.344C314.944 232.344 336.717 255.226 341.192 232.344C341.192 232.344 353.721 230.75 346.151 213.7C350.141 209.91 348.351 201.385 339.849 199.59C339.849 195.72 338.059 187.925 327.767 187.925C322.519 183.887 320.203 183.003 321.177 177.037C322.148 171.098 317.475 143.954 303.78 150.035C303.78 150.035 303.156 146.646 298.233 146.646C298.233 146.646 300.834 148.859 301.306 149.465C299.289 149.128 296.371 148.992 293.807 150.116C283.362 154.694 285.256 170.875 284.361 180.297C276.306 198.244 287.125 194.337 288.354 196.587Z" fill="#2C2E5E"/>
    <path d="M289.564 195.278C289.509 195.299 294.883 198.822 299.298 198.099C303.445 197.402 306.579 192.479 306.529 192.448C304.849 191.932 304.61 189.54 305.647 179.512L304.866 179.593L291.658 180.835C291.658 180.835 291.537 184.945 291.179 188.766C290.856 191.978 290.337 195.01 289.564 195.278Z" fill="#F4ECEC"/>
    <path d="M291.944 181.46C291.944 181.46 291.427 186.337 290.993 190.905C297.986 191.359 305.424 186.053 304.718 179.668L291.944 181.46Z" fill="url(#paint9_linear)"/>
    <path d="M306.354 178.307C306.354 178.307 310.757 172.689 312.194 167.675C313.222 164.082 312.715 150.333 298.857 150.898C298.857 150.898 294.861 150.892 290.864 153.014C287.708 154.716 282.974 158.598 286.584 170.906L287.42 175.033L306.354 178.307Z" fill="#4B5999"/>
    <path d="M306.731 177.316L306.515 177.312L306.442 177.515C305.513 180.092 304.122 182.487 302.075 184.144C300.037 185.794 297.326 186.733 293.709 186.369C291.249 185.959 289.507 184.668 288.309 182.667C287.101 180.649 286.44 177.9 286.187 174.588L286.187 174.588C286.007 172.238 286.159 169.071 286.482 166.07C286.795 163.167 287.267 160.445 287.745 158.787C288.425 158.609 289.107 158.177 289.795 157.699C289.972 157.575 290.151 157.448 290.332 157.319C290.934 156.892 291.56 156.447 292.247 156.061C293.134 155.563 294.101 155.179 295.188 155.09C296.273 155.002 297.498 155.205 298.907 155.912C301.701 157.314 304.703 160.785 306.959 164.411C308.083 166.218 309.012 168.047 309.63 169.653C310.253 171.272 310.543 172.618 310.437 173.477C310.215 175.287 309.542 176.234 308.83 176.735C308.108 177.243 307.294 177.328 306.731 177.316Z" fill="#FAF4F4" stroke="#222222" stroke-width="0.6"/>
    <path d="M308.677 172C309.176 173.5 308.145 175 307.181 175L306.682 175L307.181 172L308.677 172Z" fill="#D8DDF3"/>
    <path fill-rule="evenodd" clip-rule="evenodd" d="M298.315 169.787C298.35 168.891 298.09 168.161 297.733 168.157C297.377 168.153 297.06 168.876 297.025 169.772C296.99 170.667 297.25 171.398 297.606 171.401C297.962 171.405 298.28 170.683 298.315 169.787Z" fill="#222222"/>
    <path fill-rule="evenodd" clip-rule="evenodd" d="M289.11 169.529C289.145 168.633 288.885 167.903 288.528 167.899C288.172 167.894 287.855 168.618 287.82 169.513C287.785 170.409 288.045 171.139 288.401 171.143C288.757 171.147 289.075 170.425 289.11 169.529Z" fill="#222222"/>
    <path d="M292.272 169.786L291.241 175.73C291.138 176.321 291.575 176.869 292.173 176.899L293.409 176.961" stroke="#222222" stroke-width="0.6" stroke-linecap="round"/>
    <path d="M295.413 179.706C294.731 180.365 292.883 181.261 290.94 179.581" stroke="#222222" stroke-width="0.6" stroke-linecap="round" stroke-linejoin="round"/>
    <path d="M307.765 159.008C307.765 159.008 296.861 149.818 292.585 154.97C291.549 153.881 289.64 152.997 286.652 155.939C282.184 160.354 284.862 169.216 284.862 169.216C286.479 169.566 287.41 164.021 288.554 161.398C289.393 159.408 291.766 157.547 292.887 156.73C294.051 160.252 297.354 168.725 302.879 170.747C309.894 173.32 313.226 171.715 313.226 171.715C313.226 171.715 308.154 166.787 307.765 159.008Z" fill="#2C2E5E"/>
    <path d="M313.165 172C299.601 173.6 294.216 162.667 293.218 157C292.221 157 289.362 158.282 287.733 164C286.736 167.5 286.237 169 284.741 169.5" stroke="url(#paint10_linear)" stroke-width="0.6"/>
    <path d="M322.141 281C321.861 276.416 303.192 271 303.192 271L272.773 266.5C272.773 266.5 275.765 252.5 275.765 231C280.253 211.5 290.486 193.717 290.486 193.717C290.486 193.717 294.094 205.389 306.733 193.971C306.82 193.928 316.9 198.036 321.47 208.598C326.533 220.241 326.067 225.227 324.053 245.219C321.885 266.741 325.63 274.062 322.141 281Z" fill="#BCCBF1"/>
    <path d="M290.719 192.283L278.2 227.693C278.2 227.693 276.896 229.529 274.9 232.146C270.178 238.291 261.542 248.64 256.628 249.286C254.198 249.599 249.36 247.114 244.052 243.731C234.037 237.344 227.247 227.693 227.247 227.693C226.915 222.792 231.532 219.27 231.532 219.27C231.532 219.27 251.001 231.348 253.488 231.786C258.908 232.734 267.154 206.946 273.13 198.667C277.488 192.699 290.719 192.283 290.719 192.283Z" fill="#BCCBF1"/>
    <path d="M317.858 279.433C317.275 279.368 316.664 279.266 316.029 279.129C315.507 278.836 314.795 278.449 313.941 277.985C306.955 274.192 307.955 283.031 308.677 277.985C309.142 274.787 309.989 272.826 310.766 271.027C312.019 268.125 314.957 250.074 313.941 243.5C312.86 236.5 305.494 222.679 312.666 217.5C314.269 216.343 317.771 216.786 318.421 216.23C323.289 228.213 323.394 228.756 320.993 235.667C318.476 242.914 320.64 252.549 322.526 260.949C323.694 266.147 324.755 270.873 324.534 274.265C323.381 277.325 321.001 278.907 317.858 279.433Z" fill="url(#paint11_linear)"/>
    <path d="M274.9 232.146C270.178 238.291 261.542 248.64 256.628 249.286C254.198 249.599 249.359 247.114 244.052 243.731C248.007 245.195 251.966 245.569 255.854 245.591C260.061 245.618 261.789 240.633 269.155 233.639C273.926 229.122 274.854 230.492 274.9 232.146Z" fill="#AEC0F1"/>
    <path d="M290.161 249.293L290.08 249.275L290.02 249.218C289.435 248.662 288.326 248.146 286.948 247.75C285.582 247.357 283.994 247.093 282.487 247.017C280.975 246.941 279.573 247.055 278.566 247.399C277.553 247.744 277.045 248.276 277.062 248.993C277.063 249.04 277.095 249.151 277.215 249.335C277.328 249.509 277.498 249.716 277.718 249.946C278.156 250.406 278.772 250.934 279.472 251.451C280.881 252.491 282.578 253.443 283.805 253.706C285.077 253.966 287.551 254.215 289.725 254.399C290.808 254.491 291.811 254.566 292.543 254.619C292.909 254.645 293.208 254.665 293.414 254.679L293.474 254.683L294.363 250.229L290.161 249.293Z" fill="#F4ECEC" stroke="#4B4F90" stroke-width="0.6"/>
    <path d="M306.529 192.448C306.529 192.448 320.42 194.732 324.568 201.961C330.418 212.128 342.523 255.962 334.225 260.574C324.882 265.772 291.726 256.085 291.726 256.085C291.726 256.085 291.183 251.162 292.84 248.99C294.498 246.817 318.956 247.47 320.146 246.5C321.336 245.53 308.04 222.15 308.363 218.938C308.716 215.702 306.529 192.448 306.529 192.448Z" fill="#BCCAF1"/>
    <path d="M291.073 191.065C291.819 192.86 294.116 196.539 297.338 196.898C297.384 196.989 297.419 197.081 297.445 197.175C297.638 197.032 297.899 196.935 298.233 196.898C301.455 196.539 305.542 193.159 307.183 191.514C308.615 191.873 310.464 193.159 311.21 193.757L314.343 194.655C313.895 196.599 309.778 202.282 305.84 204.077C302.273 205.703 297.764 201.436 297.087 198.794C295.816 200.733 291.863 202.508 288.836 201.834C284.896 200.956 281.676 196.001 282.124 193.757C283.168 193.309 287.58 191.5 289.728 191.5L291.073 191.065Z" fill="white" stroke="#3F4179" stroke-width="0.6"/>
    <path d="M310.173 223C310.173 224.246 320.146 241.517 320.146 246.5L292.719 248C292.055 249 290.924 252 291.722 256C298.537 258.333 314.96 262.8 326.13 262C331.45 263 340.891 260 336.104 240C334.608 225.833 328.225 197 314.661 195L307.68 191.5L306.184 191.5M290.725 191.5C285.738 192.167 274.967 194.8 271.775 200C267.786 206.5 258.81 230.5 255.319 231.5C252.527 232.3 238.697 223 231.383 219" stroke="#2D2F5F" stroke-width="0.6" stroke-linecap="round"/>
    <path d="M320.146 246.5L324.634 246.5" stroke="#2D2F5F" stroke-width="0.6"/>
    <path d="M323.138 262.5C323.97 266.667 324.834 276.2 321.642 281" stroke="#2D2F5F" stroke-width="0.6"/>
    <path d="M276.263 249C276.263 244.5 273.77 232.5 278.757 221" stroke="#2D2F5F" stroke-width="0.6"/>
    <path d="M279.47 263.458L227.985 258.245L221.955 225L273.36 230.205L279.47 263.458Z" fill="url(#paint12_linear)"/>
    <path d="M227.769 256.947L295.58 263.814L295.17 267.891L227.702 261.059L227.769 256.947Z" fill="#D8D8EF"/>
    <path d="M247.676 243.817C247.473 242.653 248.225 241.798 249.359 241.913C250.494 242.028 251.588 243.069 251.816 244.236C252.019 245.4 251.267 246.255 250.133 246.14C248.998 246.025 247.904 244.984 247.676 243.817Z" fill="#8794CA"/>
    <path fill-rule="evenodd" clip-rule="evenodd" d="M49.2023 75C49.184 77.7669 47.4769 78.2592 45.8777 78.3036C48.7481 78.8083 49.0088 79.2171 49.2777 82C49.3409 79.9581 49.6505 78.5027 52.8591 78.046C52.2357 78.0566 49.0231 78.7799 49.2023 75Z" fill="white"/>
    <path fill-rule="evenodd" clip-rule="evenodd" d="M211.769 59C211.75 61.7669 210.043 62.2592 208.444 62.3036C211.314 62.8083 211.575 63.2171 211.844 66C211.907 63.9581 212.217 62.5027 215.425 62.046C214.802 62.0566 211.589 62.7799 211.769 59Z" fill="white"/>
    <path fill-rule="evenodd" clip-rule="evenodd" d="M28.1158 93C28.0817 98.1386 24.9113 99.0528 21.9414 99.1353C27.2721 100.073 27.7564 100.832 28.2558 106C28.373 102.208 28.9481 99.505 34.9068 98.6568C33.7491 98.6766 27.7828 100.02 28.1158 93Z" fill="white"/>
    <path d="M88.6674 163.565C89.1125 164.458 88.2223 165.35 87.3321 164.904C87.1837 164.755 87.0353 164.606 86.8869 164.458C86.4418 163.565 87.332 162.672 88.2223 163.119C88.519 163.119 88.6674 163.267 88.6674 163.565Z" fill="white"/>
    <path d="M335.01 167.565C335.456 168.458 334.565 169.35 333.675 168.904C333.527 168.755 333.378 168.606 333.23 168.458C332.785 167.565 333.675 166.672 334.565 167.119C334.862 167.119 335.01 167.267 335.01 167.565Z" fill="white"/>
    <path d="M192.428 50.2793C192.648 50.7207 192.208 51.162 191.768 50.9413C191.695 50.8678 191.621 50.7942 191.548 50.7207C191.328 50.2794 191.768 49.838 192.208 50.0587C192.355 50.0587 192.428 50.1322 192.428 50.2793Z" fill="white"/>
    <path d="M14.8429 187.559C15.2831 188.441 14.4028 189.324 13.5225 188.883C13.3758 188.736 13.2291 188.588 13.0824 188.441C12.6423 187.559 13.5225 186.676 14.4028 187.117C14.6962 187.117 14.8429 187.264 14.8429 187.559Z" fill="white"/>
    <path d="M237.271 159.565C237.716 160.458 236.826 161.35 235.936 160.904C235.787 160.755 235.639 160.606 235.491 160.458C235.046 159.565 235.936 158.672 236.826 159.119C237.123 159.119 237.271 159.267 237.271 159.565Z" fill="white"/>
    <path d="M31.819 137.565C32.2641 138.458 31.3739 139.35 30.4837 138.904C30.3353 138.755 30.1869 138.606 30.0386 138.458C29.5935 137.565 30.4837 136.672 31.3739 137.119C31.6706 137.119 31.819 137.267 31.819 137.565Z" fill="white"/>
    <ellipse rx="19.5818" ry="19.5931" transform="matrix(0.779152 -0.626835 0.624807 0.780779 296.781 47.5725)" fill="url(#paint13_linear)"/>
    <path d="M301.895 51.1405L301.865 51.1945L301.85 51.2538C301.638 52.0739 301.574 52.6013 301.593 53.0135C301.604 53.2513 301.647 53.4558 301.689 53.6254C301.575 53.6798 301.423 53.744 301.237 53.8155C300.733 54.0085 300.041 54.2305 299.336 54.4316C298.63 54.6325 297.925 54.8086 297.395 54.9122C297.194 54.9514 297.028 54.9784 296.901 54.9932C296.829 54.8077 296.734 54.606 296.58 54.3712C296.345 54.0147 295.984 53.5972 295.381 53.0168L295.336 52.9741L295.283 52.9434C293.463 51.9007 292.456 50.7849 291.894 49.8959C291.336 49.0137 291.203 48.3338 291.161 48.121L291.161 48.1168C291.16 48.1148 291.16 48.1125 291.159 48.11C291.155 48.0869 291.147 48.0451 291.138 48.0127C290.714 46.4727 290.916 44.8256 291.7 43.4339C292.476 42.0564 293.758 41.0414 295.269 40.6059L295.28 40.6026L295.292 40.5988C295.372 40.5715 295.453 40.5459 295.534 40.5219C297.06 40.0745 298.698 40.2542 300.09 41.0216C301.482 41.789 302.514 43.0817 302.957 44.6161C302.966 44.6484 302.981 44.6883 302.989 44.7103C302.99 44.7127 302.991 44.7149 302.992 44.7168C303.12 45.0612 303.896 47.4483 301.895 51.1405Z" stroke="white"/>
    <path d="M293.156 47.5174L292.46 47.7121C292.135 46.5081 292.297 45.2229 292.912 44.1377C293.527 43.0524 294.544 42.2554 295.741 41.9209L295.933 42.6207C294.921 42.9036 294.061 43.5773 293.541 44.4948C293.021 45.4123 292.882 46.499 293.156 47.5174Z" fill="white"/>
    <path d="M296.341 55.2756L302.255 53.4911L302.54 54.4381L296.626 56.2226L296.341 55.2756Z" fill="white"/>
    <path d="M297.429 56.6923L302.22 55.2679L302.505 56.2149L297.713 57.6393L297.429 56.6923Z" fill="white"/>
    <path d="M298.717 58.0491L302.184 57.0972L302.469 58.0442L299.002 58.9961L298.717 58.0491Z" fill="white"/>
    <path d="M288.525 42.0605C288.785 41.532 289.087 41.0281 289.435 40.5612L286.887 38.8457C286.487 38.5754 285.95 38.687 285.688 39.0952C285.426 39.502 285.538 40.0503 285.938 40.3195L288.525 42.0605ZM294.669 37.1731C294.677 37.1714 294.684 37.17 294.693 37.168C294.972 37.1102 295.25 37.0708 295.526 37.0432L294.926 34.1102C294.828 33.6319 294.369 33.323 293.901 33.4204C293.432 33.5177 293.133 33.9843 293.231 34.4626L293.831 37.395C294.096 37.3109 294.367 37.2359 294.645 37.178C294.654 37.1763 294.662 37.1746 294.669 37.1731ZM302.232 39.2092L303.922 36.5801C304.185 36.1731 304.072 35.6247 303.671 35.3557C303.272 35.0852 302.734 35.197 302.472 35.6052L300.804 38.1972C301.308 38.4869 301.784 38.8286 302.232 39.2092ZM287.7 48.635C287.614 48.2167 287.563 47.8006 287.528 47.3862L284.514 48.0129C284.047 48.11 283.746 48.577 283.844 49.0552C283.942 49.5335 284.401 49.8424 284.868 49.7453L287.813 49.1331C287.772 48.9698 287.734 48.8051 287.7 48.635ZM308.251 43.0772L305.238 43.7037C305.37 44.0981 305.485 44.5009 305.571 44.9191C305.605 45.0892 305.636 45.2554 305.664 45.4214L308.606 44.8096C309.074 44.7122 309.373 44.2457 309.275 43.7673C309.177 43.289 308.719 42.9798 308.251 43.0772ZM305.136 51.127C304.897 51.715 304.624 52.237 304.356 52.7133L306.232 53.9769C306.633 54.2458 307.171 54.134 307.432 53.7274C307.694 53.3193 307.582 52.772 307.181 52.5018L305.136 51.127ZM289.197 56.2413C288.936 56.6492 289.048 57.1964 289.448 57.4669C289.849 57.7359 290.386 57.6242 290.648 57.2174L291.875 55.3073C291.443 54.978 290.986 54.6065 290.536 54.163L289.197 56.2413Z" fill="white"/>
    <path d="M202.759 122.897L165.728 127C164.09 127 160.572 125.461 160.572 121.872V96.7435C160.572 94.9769 160.572 91.5 164.994 90.5641L202.759 87C204.398 87 207.447 86.8846 207.447 91.5V117.769C207.43 119.536 206.509 122.897 202.759 122.897Z" fill="url(#paint14_linear)"/>
    <path d="M197.599 76.5059L168.113 93.5516L179.101 112.661L208.588 95.6155L197.599 76.5059Z" fill="url(#paint15_linear)"/>
    <path d="M193.189 74.147L163.26 95.8569L175.617 112.984L205.546 91.2742L193.189 74.147Z" fill="url(#paint16_linear)"/>
    <path d="M202.283 90.4667L189.308 73.4043L164.561 92.3232L164.063 102.4L172.375 113.331L202.283 90.4667Z" fill="#C5CBE8"/>
    <path d="M161.533 96.6527L172.56 111.154L200.126 90.0795L189.099 75.5785L161.533 96.6527ZM198.237 89.7659L172.758 109.245L163.432 96.9798L188.911 77.5011L198.237 89.7659Z" fill="#7785C0"/>
    <path d="M161.533 96.6527L164.037 99.9459C164.295 99.856 164.556 99.7204 164.787 99.5442C166.121 98.5239 166.272 96.5015 165.149 95.0243C164.963 94.7803 164.741 94.5642 164.518 94.3709L161.533 96.6527Z" fill="#7785C0"/>
    <path d="M189.088 75.5654L186.14 77.8193C186.255 78.0961 186.414 78.3814 186.61 78.6389C187.743 80.1297 189.73 80.4968 191.053 79.4857C191.271 79.3188 191.458 79.1111 191.624 78.8992L189.088 75.5654Z" fill="#7785C0"/>
    <path d="M200.126 90.0798L197.178 92.3338C196.942 92.1498 196.709 91.9201 196.514 91.6626C195.38 90.1719 195.553 88.1537 196.875 87.1427C197.094 86.9757 197.343 86.8494 197.591 86.7459L200.126 90.0798Z" fill="#7785C0"/>
    <path d="M172.55 111.141L170.045 107.847C170.2 107.622 170.4 107.405 170.63 107.229C171.965 106.208 173.95 106.598 175.073 108.076C175.259 108.319 175.408 108.591 175.534 108.859L172.55 111.141Z" fill="#82B378"/>
    <path d="M185.391 90.9305C186.821 92.8113 186.47 95.507 184.582 96.9503C182.693 98.394 180.018 98.0328 178.578 96.1388C177.148 94.258 177.499 91.5624 179.387 90.1191C181.275 88.6758 183.96 89.0497 185.391 90.9305Z" fill="#A2ACD7" stroke="#7785C0" stroke-width="0.6"/>
    <path d="M206.35 128H166.167C164.389 128 160.572 126.457 160.572 122.857L160.572 96.1143C160.572 96.1143 160.572 92 163.624 92H206.35C208.128 92 211.436 93.0286 211.436 97.6571V122.857C211.418 124.629 210.419 128 206.35 128Z" fill="url(#paint17_linear)"/>
    <path d="M206.35 128H166.167C164.389 128 160.572 126.457 160.572 122.857L160.572 96.1143C160.572 96.1143 160.572 92 163.624 92H206.35C208.128 92 211.436 93.0286 211.436 97.6571V122.857C211.418 124.629 210.419 128 206.35 128Z" fill="url(#paint18_linear)"/>
    <path d="M205.615 94H166.871C165.233 94 162.567 95.3714 162.567 98.5714L162.567 122.343C162.567 122.343 162.567 126 165.379 126H205.615C207.253 126 209.442 125.614 209.442 121.5V98.5714C209.425 96.9966 209.365 94 205.615 94Z" fill="url(#paint19_linear)"/>
    <path fill-rule="evenodd" clip-rule="evenodd" d="M254.084 162C254.058 166.348 251.62 167.122 249.335 167.191C253.435 167.985 253.808 168.627 254.192 173C254.282 169.791 254.725 167.504 259.308 166.786C258.418 166.803 253.828 167.94 254.084 162Z" fill="white"/>
    <ellipse cx="220.412" cy="195" rx="20.9441" ry="21" fill="white"/>
    <path d="M220.412 213C230.327 213 238.364 204.941 238.364 195C238.364 185.059 230.327 177 220.412 177C210.497 177 202.46 185.059 202.46 195C202.46 204.941 210.497 213 220.412 213Z" fill="#ABB3D7"/>
    <path fill-rule="evenodd" clip-rule="evenodd" d="M219.217 204.042C222.544 205.812 225.664 204.725 227.019 202.338C228.181 200.289 227.046 198.037 225.576 197.259C226.789 197.293 227.844 196.319 228.441 195.138C229.14 193.756 229.177 191.762 228.091 190.135C227.327 188.99 226.075 188.098 226.075 188.098L227.108 185.952L225.201 184.947L224.167 187.102L222.542 186.255L223.576 184.099L221.655 183.097L220.618 185.251L217.651 183.703L216.355 186.394L217.794 187.145C218.207 187.36 218.383 187.868 218.185 188.278L213.973 197.029C213.775 197.439 213.28 197.597 212.867 197.381L211.438 196.635L209.598 199.024L213.108 200.855L212.073 203.004L213.994 204.006L215.031 201.858L216.653 202.704L215.621 204.855L217.53 205.851L218.564 203.701C218.564 203.701 219.161 204.012 219.217 204.042ZM222.698 200.029C221.941 201.602 220.201 201.186 219.334 200.734L216.324 199.164L218.217 195.232C218.217 195.232 220.411 196.385 220.858 196.609C222.884 197.629 223.077 199.243 222.698 200.029ZM222.187 194.145L219.432 192.708L221.245 188.941L222.339 189.512C224.12 190.393 225.708 191.761 224.951 193.334C224.573 194.12 223.886 194.539 222.676 194.301C222.507 194.268 222.187 194.145 222.187 194.145Z" fill="white"/>
    <ellipse cx="182.015" cy="246.5" rx="15.4588" ry="15.5" fill="white"/>
    <path d="M186.409 258.535C193.027 256.07 196.406 248.682 193.956 242.035C191.507 235.388 184.157 231.999 177.54 234.465C170.923 236.93 167.544 244.318 169.993 250.965C172.442 257.612 179.792 261.001 186.409 258.535Z" fill="#ABB3D7"/>
    <path d="M180.092 237.958L187.267 245.26L181.814 244.175L180.092 237.958Z" fill="white"/>
    <path d="M184.771 254.85L183.641 250.771L187.704 246.613L184.771 254.85Z" fill="white"/>
    <path d="M182.007 244.782L183.473 250.074L187.567 245.888L182.007 244.782Z" fill="white"/>
    <path d="M177.098 247.653L179.597 238.074L181.319 244.291L177.098 247.653Z" fill="white"/>
    <path d="M183.146 250.888L184.276 254.966L177.418 249.033L183.146 250.888Z" fill="white"/>
    <path d="M182.931 250.202L181.465 244.909L177.16 248.336L182.931 250.202Z" fill="white"/>
    <path d="M66.0575 319.316L67.733 312.161C67.8714 311.569 67.4554 310.992 66.8507 310.937L57.6032 310.092C57.085 310.045 56.617 310.403 56.527 310.916L55.2512 318.18C55.1856 318.554 55.3361 318.936 55.6518 319.146C59.3526 321.607 62.8296 320.986 65.4541 320.01C65.7597 319.897 65.9831 319.634 66.0575 319.316Z" fill="#CBC7E0" stroke="black" stroke-width="0.6" stroke-linecap="round" stroke-linejoin="round"/>
    <path d="M97.5879 214.393C101.053 224.787 111.275 281.111 120.023 307.926C126.083 307.081 125.771 306.357 135.302 305.743C135.817 287.55 126.893 213.013 116.32 180.926C102.954 180.917 89.0738 182.63 80.3536 182.624C67.1944 233.109 52.424 280.399 54.6231 309.986C61.3492 313.074 66.9302 313.34 72.9706 309.779C80.9593 279.564 90.063 243.582 97.5879 214.393ZM97.5879 214.393L99.7619 204.842L97.5879 214.393Z" fill="#F4F8FF"/>
    <path d="M97.5879 214.393C101.053 224.787 111.275 281.111 120.023 307.926C126.083 307.081 125.771 306.357 135.302 305.743C135.817 287.55 126.893 213.013 116.32 180.926C102.954 180.917 89.0738 182.63 80.3536 182.624C67.1944 233.109 52.424 280.399 54.6231 309.986C61.3492 313.074 66.9302 313.34 72.9706 309.779C80.9593 279.564 90.063 243.582 97.5879 214.393ZM97.5879 214.393L99.7619 204.842" stroke="black"/>
    <path d="M133.076 151.43L132.902 151.5L132.763 151.374L128.235 147.277L122.856 158.577C123.354 158.971 123.866 159.392 124.388 159.822C125.453 160.699 126.565 161.616 127.714 162.418C129.486 163.654 131.262 164.553 132.936 164.562C134.635 164.239 136.789 163.385 139.157 162.211C141.533 161.032 144.105 159.539 146.621 157.962C151.651 154.807 156.438 151.322 158.938 149.356C159.188 149.159 159.487 149.072 159.788 149.072C161.403 149.071 163.489 148.553 165.327 147.631C167.173 146.706 168.71 145.404 169.307 143.876C169.611 143.099 169.541 142.224 169.119 141.505L167.373 138.908C167.004 138.359 167.104 137.621 167.605 137.192L171.554 133.819L171.568 133.807L171.584 133.797C172.293 133.329 172.624 132.274 172.532 131.414C172.487 130.986 172.343 130.675 172.159 130.521C172.007 130.392 171.772 130.326 171.388 130.511L165.018 134.912C164.485 135.28 163.798 135.178 163.332 134.801C162.644 134.245 162.012 134.015 161.444 133.994C160.876 133.972 160.341 134.157 159.849 134.485C158.854 135.148 158.073 136.371 157.645 137.466L155.787 142.223L155.74 142.344L155.62 142.392L133.076 151.43Z" fill="#F4ECEC" stroke="#222222" stroke-width="0.6"/>
    <path d="M80.8115 182.577C80.8115 182.577 52.3931 280.001 54.5692 309.465C56.4891 310.33 57.2838 310.519 57.2838 310.519C57.7519 290.722 75.9282 214.124 81.8854 196.397C86.2407 183.437 101.904 184.162 101.904 184.162L80.8115 182.577Z" fill="#D2D8F0"/>
    <path d="M74.854 169.387L75.7386 166.275C75.8078 166.032 76.0475 165.879 76.2971 165.919C76.5467 165.959 76.7276 166.179 76.7185 166.432C76.6934 167.133 76.5968 168.312 76.4755 169.792C76.4436 170.182 76.4099 170.593 76.3754 171.021C76.2091 173.086 76.0207 175.584 75.9004 178.197C75.6595 183.43 75.6968 189.045 76.6903 192.574C76.698 192.59 76.7114 192.617 76.7315 192.652C76.7743 192.728 76.8477 192.846 76.9625 192.99C77.1914 193.279 77.5882 193.68 78.2422 194.079C79.5487 194.877 81.9151 195.688 86.0805 195.533C93.427 195.259 101.841 194.302 108.267 192.467C111.484 191.548 114.162 190.42 115.958 189.077C117.748 187.739 118.583 186.254 118.346 184.587C118.345 184.581 118.344 184.575 118.344 184.568L116.845 170.079L116.843 170.062L115.989 157.666C115.975 157.467 116.08 157.28 116.255 157.188C116.431 157.097 116.644 157.118 116.799 157.242L116.487 157.632L116.799 157.242L116.799 157.242L116.8 157.242L116.801 157.243L116.806 157.247L116.826 157.263L116.903 157.325C116.97 157.379 117.067 157.456 117.187 157.551C117.427 157.741 117.757 158.001 118.119 158.281C118.85 158.847 119.688 159.479 120.18 159.793C120.749 160.157 121.232 160.526 121.654 160.863C121.795 160.976 121.927 161.082 122.052 161.184C122.31 161.393 122.54 161.58 122.765 161.747C123.421 162.231 123.88 162.42 124.438 162.307C124.701 162.254 125.137 162.021 125.695 161.573C126.235 161.138 126.839 160.542 127.433 159.838C128.626 158.426 129.738 156.629 130.226 154.911C130.739 153.109 131.09 151.613 131.203 150.378C131.316 149.142 131.182 148.23 130.789 147.552C130.716 147.426 130.546 147.221 130.267 146.939C129.995 146.667 129.648 146.35 129.247 146.005C128.446 145.315 127.454 144.528 126.482 143.784C125.512 143.041 124.568 142.343 123.867 141.831C123.516 141.575 123.226 141.366 123.024 141.22C122.923 141.148 122.843 141.091 122.79 141.053L122.728 141.009L122.713 140.998L122.709 140.995L122.708 140.995L122.708 140.994L122.996 140.587L122.708 140.994C122.706 140.993 122.704 140.992 122.702 140.99C122.698 140.988 122.695 140.985 122.691 140.982C116.585 136.261 108.535 132.66 100.927 132.822L85.9118 134.523L76.1457 137.331L76.0068 136.851L76.1457 137.331C70.2487 139.027 65.7505 143.836 64.4306 149.857C64.4282 149.867 64.4255 149.878 64.4224 149.889L60.2118 164.416L74.854 169.387Z" fill="#BCCDFA" stroke="#2D2F5F" stroke-linejoin="round"/>
    <path d="M122.66 319.954C123.174 316.855 122.718 310.821 121.968 307.342C121.968 307.342 128.75 306.32 133.028 305.877C133.204 311.425 133.028 312.277 134.119 314.141C128.132 316.788 123.78 319.374 122.66 319.954Z" fill="#CBC7E0" stroke="black" stroke-width="0.6"/>
    <path d="M124.843 306.246L120.478 307.343C113.281 285.132 109.301 261.725 103.977 239.76L100.893 225.298L98.1049 214.127L100.288 205.354C104.653 202.064 104.314 248.394 124.843 306.246Z" fill="#D2D8F0"/>
    <path d="M67.6391 329.276C62.791 328.844 54.6379 329.025 53.7602 326.934C53.0997 325.36 54.3046 319.652 55.8414 314.493C61.4615 315.699 66.5199 316.281 66.5199 316.281L67.6391 319.186C72.0773 323.874 77.9198 322.802 81.004 325.901C82.6492 327.554 78.4338 330.826 67.6391 329.276Z" fill="#505B96"/>
    <path d="M86.4473 119.225C86.5949 120.834 86.755 123.168 86.7956 125.39C86.8175 126.595 86.8045 127.772 86.7345 128.784C86.6651 129.789 86.5382 130.661 86.3194 131.239C85.5915 133.164 84.4792 134.404 83.8128 134.946C84.7669 136.232 86.4421 137.989 88.5635 139.336C90.818 140.767 93.5474 141.716 96.4403 141.185C97.897 140.917 98.9077 140.424 99.5942 139.82C100.279 139.217 100.657 138.489 100.829 137.721C101.16 136.238 100.716 134.599 100.165 133.48C99.5652 133.415 98.8367 133.026 98.2971 132.127C97.7015 131.134 97.339 129.529 97.5804 127.038C97.7992 124.78 96.0469 122.988 93.5764 121.645C91.2782 120.396 88.4701 119.6 86.4473 119.225Z" fill="#F4ECEC" stroke="#222222" stroke-width="0.6"/>
    <path d="M80.1731 104.286C76.2423 113.667 82.6299 118.604 84.8594 117.518L91.9535 117.36C94.3863 117.306 99.9935 114.079 102.493 112.472C105.003 111.296 110.769 108.41 108.432 105.877C104.082 102.342 110.081 98.9994 103.557 95.9003C97.0324 92.8016 93.7534 96.7309 87.0521 96.8798C80.3508 97.0286 83.1213 101.817 80.1731 104.286Z" fill="#1A1C45"/>
    <path d="M86.1928 119.839L86.1821 120.127C86.1265 121.625 87.0454 123.876 88.8801 125.705C90.7021 127.521 93.3997 128.892 96.8594 128.673L96.879 128.973L96.8595 128.673C98.8138 128.55 100.22 127.477 101.266 125.761C102.32 124.034 102.993 121.675 103.463 119.044L103.463 119.044C103.798 117.169 104.094 115.026 104.24 113.013C104.38 111.083 104.38 109.294 104.153 107.978L98.9373 106.406C98.9858 106.468 99.034 106.53 99.0811 106.593C99.3258 106.918 99.5648 107.275 99.6769 107.616C99.734 107.789 99.765 107.978 99.7327 108.165C99.6992 108.361 99.6005 108.534 99.4366 108.672C99.1298 108.93 98.6131 109.048 97.8914 109.064C96.453 109.096 95.0442 108.904 93.8573 108.595C92.9178 108.351 92.0983 108.028 91.5108 107.672C91.1888 109.206 90.4505 109.988 89.7802 110.562C89.6709 110.656 89.5683 110.74 89.4722 110.819C89.239 111.011 89.0442 111.172 88.8854 111.354C88.6809 111.589 88.5646 111.832 88.5722 112.18C88.5722 112.18 88.5722 112.18 88.5722 112.18L88.6814 117.137L88.6873 117.407L88.4194 117.441C87.7993 117.518 87.2825 117.423 86.8612 117.199C86.4414 116.976 86.1388 116.637 85.9254 116.259C85.5462 115.589 85.4336 114.774 85.4418 114.168C85.0087 113.951 84.4758 113.827 84.0649 113.978C83.6569 114.129 83.2126 114.622 83.2451 116.091L83.2451 116.091C83.2769 117.539 83.7484 118.449 84.2953 119.004C84.849 119.566 85.498 119.783 85.9057 119.816L86.1928 119.839Z" fill="#FAF4F4" stroke="#222222" stroke-width="0.6"/>
    <path fill-rule="evenodd" clip-rule="evenodd" d="M92.798 114.62C92.7894 113.876 93.0221 113.277 93.3177 113.282C93.6132 113.286 93.8596 113.894 93.8679 114.637C93.8762 115.381 93.6435 115.98 93.3482 115.975C93.0528 115.97 92.8063 115.364 92.798 114.62Z" fill="#222222"/>
    <path fill-rule="evenodd" clip-rule="evenodd" d="M100.437 114.62C100.429 113.876 100.662 113.277 100.957 113.282C101.253 113.286 101.499 113.894 101.507 114.637C101.516 115.381 101.283 115.98 100.988 115.975C100.692 115.97 100.446 115.364 100.437 114.62Z" fill="#222222"/>
    <path d="M97.8086 114.76L98.4988 119.522C98.5849 120.116 98.1333 120.651 97.5342 120.664L96.6999 120.683" stroke="#222222" stroke-width="0.6" stroke-linecap="round"/>
    <path d="M95.0146 122.825C95.6238 123.604 97.2992 124.696 99.1268 122.825" stroke="#222222" stroke-width="0.6" stroke-linecap="round" stroke-linejoin="round"/>
    <path d="M70.4993 176.521L70.1758 176.447L70.2803 176.132L72.7547 168.673L62.0284 165.244L58.5158 177.345L58.5137 177.353L58.5112 177.36C57.4895 180.308 57.5354 181.984 58.4676 183.227C58.9445 183.863 59.6728 184.415 60.6838 184.964C61.6944 185.512 62.9645 186.046 64.5069 186.657C66.0117 187.253 68.5812 187.757 71.6179 188.176C74.6455 188.593 78.1085 188.92 81.3824 189.172C84.6558 189.424 87.737 189.599 90 189.712C91.1315 189.768 92.0582 189.809 92.702 189.835C93.0239 189.848 93.275 189.858 93.4456 189.865L93.6398 189.872L93.6893 189.873L93.7018 189.874L93.7049 189.874L93.7056 189.874C93.7058 189.874 93.7059 189.874 93.6963 190.174L93.7059 189.874L93.7791 189.877L93.8429 189.913L93.9024 189.946C94.9553 190.54 96.6432 191.493 98.3975 191.95L98.4121 191.953L98.4263 191.959C99.3172 192.29 100.737 192.543 102.391 192.647C104.04 192.751 105.899 192.704 107.66 192.446C109.424 192.188 111.069 191.72 112.304 190.996C113.529 190.277 114.321 189.325 114.472 188.09C114.467 187.558 114.235 187.168 113.855 186.865C113.46 186.55 112.904 186.331 112.284 186.181C111.349 185.955 110.359 185.901 109.67 185.863C109.437 185.85 109.238 185.839 109.088 185.824C106.517 185.566 105.326 185.305 104.771 185.096C104.63 185.043 104.521 184.989 104.436 184.934C104.353 184.88 104.279 184.814 104.231 184.729C104.177 184.635 104.164 184.532 104.189 184.438C104.196 184.411 104.206 184.387 104.216 184.367C104.223 184.351 104.23 184.336 104.238 184.321C104.271 184.264 104.317 184.215 104.375 184.172C104.485 184.088 104.658 184.012 104.931 183.943C105.482 183.804 106.54 183.675 108.603 183.675C109.347 183.675 109.721 183.196 109.712 182.777C109.703 182.381 109.329 181.801 108.064 181.692L108.064 181.692L108.059 181.692L103.083 181.175L103.074 181.174L103.065 181.173C102.945 181.153 102.733 181.155 102.449 181.181C102.173 181.206 101.853 181.252 101.53 181.308C100.894 181.419 100.276 181.567 99.9861 181.669L99.9739 181.675L99.8825 181.723C99.8031 181.765 99.6878 181.825 99.5436 181.899C99.2553 182.046 98.8513 182.249 98.3879 182.471C97.4645 182.913 96.2926 183.437 95.3301 183.745C95.1287 183.81 94.8469 183.792 94.5565 183.749C94.249 183.704 93.8718 183.62 93.4453 183.509C92.5912 183.286 91.513 182.945 90.3482 182.554C89.2129 182.174 88.0071 181.751 86.8367 181.34C85.5809 180.899 84.3659 180.473 83.3224 180.129C79.91 179.003 76.7034 178.101 74.3496 177.48C73.1729 177.17 72.2096 176.93 71.5409 176.767C71.2065 176.686 70.9458 176.624 70.7688 176.583C70.6803 176.562 70.6128 176.547 70.5675 176.536L70.5163 176.524L70.5035 176.521L70.5003 176.521L70.4995 176.521L70.4994 176.521L70.5648 176.228L70.4993 176.521Z" fill="#F4ECEC" stroke="#222222" stroke-width="0.6"/>
    <path d="M71.593 176.744C71.593 176.744 67.9948 176.227 65.9386 176.227" stroke="#222222" stroke-width="0.6" stroke-linecap="round" stroke-linejoin="round"/>
    <path d="M136.444 327.72C130.242 326.918 123.069 328.591 122.115 326.534C120.478 324.01 122.88 318.607 122.67 312.929C128.331 313.925 133.536 311.427 133.536 311.427L135.334 315.75C139.942 320.269 148.804 320.11 151.207 323.552C152.544 325.466 150.367 329.918 136.444 327.72Z" fill="#505B96"/>
    <path d="M77.9153 159.843C77.5179 161.939 76.2782 165.326 75.1869 168.068" stroke="#2D2F5F" stroke-linecap="round"/>
    <path d="M115.567 152.715C115.567 153.811 116.113 157.65 116.113 162.036" stroke="#2D2F5F" stroke-linecap="round"/>
    <path d="M193.136 104.035L190.657 105.143C190.507 105.226 190.418 105.384 190.418 105.549V114.485C190.418 114.657 190.514 114.816 190.664 114.891L193.143 115.972C193.3 116.055 193.484 115.945 193.484 115.766V104.241C193.477 104.062 193.286 103.952 193.136 104.035ZM181.269 105.129L178.865 104.028C178.708 103.945 178.524 104.055 178.524 104.234V115.759C178.524 115.945 178.729 116.055 178.879 115.958L181.296 114.671C181.433 114.588 181.515 114.437 181.515 114.279V105.536C181.508 105.37 181.419 105.212 181.269 105.129ZM188.807 108.179L186.219 106.685C186.076 106.603 185.898 106.603 185.762 106.685L183.126 108.165C182.983 108.248 182.894 108.406 182.894 108.572V111.601C182.894 111.766 182.983 111.924 183.126 112.007L185.762 113.535C185.905 113.618 186.083 113.618 186.219 113.535L188.807 112.021C188.95 111.938 189.039 111.78 189.039 111.614V108.585C189.039 108.413 188.95 108.262 188.807 108.179Z" fill="#DEDEF4"/>
</svg>
