<svg width="56" height="72" fill="none" xmlns="http://www.w3.org/2000/svg"><path d="M17.407 2c-2.127 0-3.851 1.697-3.851 3.79v.842a2 2 0 0 1-2 2H5.852C3.725 8.632 2 10.328 2 12.422V66.21C2 68.303 3.725 70 5.852 70h44.296C52.275 70 54 68.303 54 66.21V12.421c0-2.093-1.724-3.79-3.852-3.79h-5.704a2 2 0 0 1-2-2V5.79C42.444 3.697 40.72 2 38.593 2H17.407z" stroke="#ECEEF2" stroke-width="4"/><rect x="11" y="22" width="34" height="4" rx="2" fill="#ECEEF2"/><path d="M17.81 6.757A1 1 0 0 1 18.78 6h18.44a1 1 0 0 1 .97.757l.5 2A1 1 0 0 1 37.72 10H18.28a1 1 0 0 1-.97-1.243l.5-2z" fill="#ECEEF2"/><rect x="11" y="35" width="34" height="4" rx="2" fill="#ECEEF2"/><rect x="11" y="48" width="23" height="4" rx="2" fill="#ECEEF2"/></svg>