<svg width="26" height="26" viewBox="0 0 26 26" fill="none" xmlns="http://www.w3.org/2000/svg">
<path fill-rule="evenodd" clip-rule="evenodd" d="M13 26C20.1797 26 26 20.1797 26 13C26 5.8203 20.1797 0 13 0C5.8203 0 0 5.8203 0 13C0 20.1797 5.8203 26 13 26Z" fill="#E5E7EB"/>
<path d="M16.8302 7.63786C17.2532 7.21479 17.9392 7.21479 18.3622 7.63786C18.7853 8.06093 18.7853 8.74686 18.3622 9.16992L9.16984 18.3623C8.74677 18.7854 8.06084 18.7854 7.63777 18.3623C7.2147 17.9392 7.2147 17.2533 7.63777 16.8302L16.8302 7.63786Z" fill="white"/>
<path d="M9.16984 7.63786C8.74677 7.21479 8.06084 7.21479 7.63778 7.63786C7.21471 8.06093 7.21471 8.74686 7.63778 9.16992L16.8302 18.3623C17.2532 18.7854 17.9392 18.7854 18.3622 18.3623C18.7853 17.9392 18.7853 17.2533 18.3622 16.8302L9.16984 7.63786Z" fill="white"/>
</svg>
