<svg width="24" height="24" fill="none" xmlns="http://www.w3.org/2000/svg"><path fill-rule="evenodd" clip-rule="evenodd" d="M12 14.345c0-.652.416-1.207.997-1.414L12 14.345z" fill="#fff"/><path d="M10 10.105a2 2 0 1 1 2.733 1.862A2.501 2.501 0 0 0 11 14.346a1 1 0 1 0 2 0c0-.199.116-.373.286-.453A4 4 0 1 0 8 10.105a1 1 0 1 0 2 0zM12 18.39a1 1 0 1 0 0-2 1 1 0 0 0 0 2z" fill="#FFF"/><path fill-rule="evenodd" clip-rule="evenodd" d="M12 2C6.477 2 2 6.477 2 12s4.477 10 10 10 10-4.477 10-10S17.523 2 12 2zM4 12a8 8 0 0 1 8-8 8 8 0 0 1 8 8 8 8 0 0 1-8 8 8 8 0 0 1-8-8z" fill="#FFF"/></svg>