<svg width="24" height="24" viewBox="0 0 24 24" fill="none" xmlns="http://www.w3.org/2000/svg">
    <path d="M12 15C13.6569 15 15 13.6569 15 12C15 10.3431 13.6569 9 12 9C10.3432 9 9.00002 10.3431 9.00002 12C9.00002 13.6569 10.3432 15 12 15Z" stroke="black" stroke-width="2" stroke-linecap="round" stroke-linejoin="round"/>
    <path d="M18.7273 14.7273C18.6063 15.0015 18.5702 15.3056 18.6237 15.6005C18.6771 15.8954 18.8177 16.1676 19.0273 16.3818L19.0818 16.4364C19.2509 16.6052 19.385 16.8057 19.4765 17.0265C19.568 17.2472 19.6151 17.4838 19.6151 17.7227C19.6151 17.9617 19.568 18.1983 19.4765 18.419C19.385 18.6397 19.2509 18.8402 19.0818 19.0091C18.913 19.1781 18.7125 19.3122 18.4917 19.4037C18.271 19.4952 18.0344 19.5423 17.7955 19.5423C17.5565 19.5423 17.3199 19.4952 17.0992 19.4037C16.8785 19.3122 16.678 19.1781 16.5091 19.0091L16.4546 18.9545C16.2403 18.745 15.9682 18.6044 15.6733 18.5509C15.3784 18.4974 15.0742 18.5335 14.8 18.6545C14.5311 18.7698 14.3018 18.9611 14.1403 19.205C13.9788 19.4489 13.8921 19.7347 13.8909 20.0273V20.1818C13.8909 20.664 13.6994 21.1265 13.3584 21.4675C13.0174 21.8084 12.555 22 12.0728 22C11.5905 22 11.1281 21.8084 10.7871 21.4675C10.4461 21.1265 10.2546 20.664 10.2546 20.1818V20.1C10.2475 19.7991 10.1501 19.5073 9.97503 19.2625C9.79993 19.0176 9.55524 18.8312 9.27275 18.7273C8.99855 18.6063 8.69439 18.5702 8.39949 18.6236C8.10458 18.6771 7.83246 18.8177 7.6182 19.0273L7.56366 19.0818C7.3948 19.2509 7.19427 19.385 6.97355 19.4765C6.75283 19.568 6.51623 19.6151 6.2773 19.6151C6.03836 19.6151 5.80176 19.568 5.58104 19.4765C5.36032 19.385 5.15979 19.2509 4.99093 19.0818C4.82188 18.913 4.68778 18.7124 4.59628 18.4917C4.50478 18.271 4.45768 18.0344 4.45768 17.7955C4.45768 17.5565 4.50478 17.3199 4.59628 17.0992C4.68778 16.8785 4.82188 16.678 4.99093 16.5091L5.04548 16.4545C5.25506 16.2403 5.39565 15.9682 5.44912 15.6733C5.50259 15.3784 5.46649 15.0742 5.34548 14.8C5.23024 14.5311 5.03889 14.3018 4.79499 14.1403C4.55109 13.9788 4.26528 13.8921 3.97275 13.8909H3.8182C3.33599 13.8909 2.87353 13.6994 2.53256 13.3584C2.19158 13.0174 2.00002 12.5549 2.00002 12.0727C2.00002 11.5905 2.19158 11.1281 2.53256 10.7871C2.87353 10.4461 3.33599 10.2545 3.8182 10.2545H3.90002C4.20093 10.2475 4.49275 10.1501 4.73757 9.97501C4.98238 9.79991 5.16886 9.55521 5.27275 9.27273C5.39376 8.99853 5.42986 8.69437 5.37639 8.39947C5.32292 8.10456 5.18233 7.83244 4.97275 7.61818L4.9182 7.56364C4.74916 7.39478 4.61505 7.19425 4.52355 6.97353C4.43205 6.7528 4.38496 6.51621 4.38496 6.27727C4.38496 6.03834 4.43205 5.80174 4.52355 5.58102C4.61505 5.36029 4.74916 5.15977 4.9182 4.99091C5.08706 4.82186 5.28759 4.68775 5.50831 4.59626C5.72904 4.50476 5.96563 4.45766 6.20457 4.45766C6.44351 4.45766 6.6801 4.50476 6.90082 4.59626C7.12155 4.68775 7.32207 4.82186 7.49093 4.99091L7.54548 5.04545C7.75973 5.25503 8.03186 5.39562 8.32676 5.4491C8.62167 5.50257 8.92583 5.46647 9.20002 5.34545H9.27275C9.54163 5.23022 9.77095 5.03887 9.93247 4.79497C10.094 4.55107 10.1807 4.26526 10.1818 3.97273V3.81818C10.1818 3.33597 10.3734 2.87351 10.7144 2.53253C11.0554 2.19156 11.5178 2 12 2C12.4822 2 12.9447 2.19156 13.2857 2.53253C13.6266 2.87351 13.8182 3.33597 13.8182 3.81818V3.9C13.8194 4.19253 13.9061 4.47834 14.0676 4.72224C14.2291 4.96614 14.4584 5.15749 14.7273 5.27273C15.0015 5.39374 15.3057 5.42984 15.6006 5.37637C15.8955 5.3229 16.1676 5.18231 16.3818 4.97273L16.4364 4.91818C16.6052 4.74913 16.8058 4.61503 17.0265 4.52353C17.2472 4.43203 17.4838 4.38493 17.7228 4.38493C17.9617 4.38493 18.1983 4.43203 18.419 4.52353C18.6397 4.61503 18.8403 4.74913 19.0091 4.91818C19.1782 5.08704 19.3123 5.28757 19.4038 5.50829C19.4953 5.72901 19.5424 5.96561 19.5424 6.20455C19.5424 6.44348 19.4953 6.68008 19.4038 6.9008C19.3123 7.12152 19.1782 7.32205 19.0091 7.49091L18.9546 7.54545C18.745 7.75971 18.6044 8.03183 18.5509 8.32674C18.4975 8.62164 18.5336 8.9258 18.6546 9.2V9.27273C18.7698 9.54161 18.9612 9.77092 19.2051 9.93245C19.449 10.094 19.7348 10.1807 20.0273 10.1818H20.1818C20.6641 10.1818 21.1265 10.3734 21.4675 10.7144C21.8085 11.0553 22 11.5178 22 12C22 12.4822 21.8085 12.9447 21.4675 13.2856C21.1265 13.6266 20.6641 13.8182 20.1818 13.8182H20.1C19.8075 13.8193 19.5217 13.906 19.2778 14.0676C19.0339 14.2291 18.8425 14.4584 18.7273 14.7273V14.7273Z" stroke="black" stroke-width="2" stroke-linecap="round" stroke-linejoin="round"/>
</svg>
