<svg fill="none" height="24" viewBox="0 0 24 24" width="24" xmlns="http://www.w3.org/2000/svg"><g fill="#333"><path d="m16.1422 17.3848c-.3905-.3905-.3905-1.0237 0-1.4142.3905-.3906 1.0237-.3906 1.4142 0l2.8284 2.8284c.3906.3905.3906 1.0237 0 1.4142-.3905.3905-1.0237.3905-1.4142 0z"/><path clip-rule="evenodd" d="m5.37882 5.20712c3.21081-3.21081 8.41658-3.21081 11.62738 0 3.2108 3.21082 3.2108 8.41658 0 11.62738s-8.41657 3.2108-11.62738 0c-3.21082-3.2108-3.21082-8.41656 0-11.62738zm10.21318 1.41422c-2.4298-2.42977-6.3692-2.42977-8.79897 0s-2.42977 6.36916 0 8.79896 6.36917 2.4298 8.79897 0 2.4298-6.36919 0-8.79896z" fill-rule="evenodd"/></g></svg>