<svg width="40" height="40" viewBox="0 0 40 40" fill="none" xmlns="http://www.w3.org/2000/svg">
    <circle cx="20" cy="20" r="20" transform="rotate(-90 20 20)" fill="#F7F8F9"/>
    <path fill-rule="evenodd" clip-rule="evenodd" d="M16.2912 25.8064L16.2912 17.5255L14.584 17.4584C14.0647 17.4584 13.8047 16.8074 14.1719 16.4266L16.9889 13.2928C17.6008 12.6582 18.4105 13.13 18.4105 14.0051L18.4105 25.8064C18.4105 26.3917 17.9361 26.8661 17.3509 26.8661C16.7656 26.8661 16.2912 26.3917 16.2912 25.8064ZM23.7088 14.1893L23.7088 22.4702L25.416 22.5373C25.9353 22.5373 26.1953 23.1884 25.8281 23.5691L23.0111 26.7029C22.3992 27.3375 21.5895 26.8881 21.5895 25.9907L21.5895 14.1893C21.5895 13.604 22.0639 13.1296 22.6491 13.1296C23.2344 13.1296 23.7088 13.604 23.7088 14.1893Z" fill="#333333"/>
</svg>
