<svg width="53" height="47" viewBox="0 0 53 47" fill="none" xmlns="http://www.w3.org/2000/svg">
    <g filter="url(#filter0_d)">
        <path d="M23 45C35.1503 45 45 35.1503 45 23C45 10.8497 35.1503 1 23 1C10.8497 1 1 10.8497 1 23C1 35.1503 10.8497 45 23 45Z" fill="#F5F7FA"/>
    </g>
    <path d="M23 33C28.5228 33 33 28.5228 33 23C33 17.4772 28.5228 13 23 13C17.4772 13 13 17.4772 13 23C13 28.5228 17.4772 33 23 33Z" stroke="#BCBEC3" stroke-linecap="round" stroke-linejoin="round"/>
    <path fill-rule="evenodd" clip-rule="evenodd" d="M22.5 26.2929V19.5C22.5 19.2239 22.7239 19 23 19C23.2762 19 23.5 19.2239 23.5 19.5V26.2929L26.2929 23.5C26.4882 23.3047 26.8048 23.3047 27 23.5C27.1953 23.6953 27.1953 24.0118 27 24.2071L23.3536 27.8536C23.1583 28.0488 22.8417 28.0488 22.6465 27.8536L19 24.2071C18.8048 24.0118 18.8048 23.6953 19 23.5C19.1953 23.3047 19.5119 23.3047 19.7071 23.5L22.5 26.2929Z" fill="#BCBEC3"/>
    <defs>
        <filter id="filter0_d" x="-7" y="0" width="60" height="60" filterUnits="userSpaceOnUse" color-interpolation-filters="sRGB">
            <feFlood flood-opacity="0" result="BackgroundImageFix"/>
            <feColorMatrix in="SourceAlpha" type="matrix" values="0 0 0 0 0 0 0 0 0 0 0 0 0 0 0 0 0 0 127 0"/>
            <feOffset dy="7"/>
            <feGaussianBlur stdDeviation="4"/>
            <feColorMatrix type="matrix" values="0 0 0 0 0.961984 0 0 0 0 0.966827 0 0 0 0 0.978578 0 0 0 0.138247 0"/>
            <feBlend mode="normal" in2="BackgroundImageFix" result="effect1_dropShadow"/>
            <feBlend mode="normal" in="SourceGraphic" in2="effect1_dropShadow" result="shape"/>
        </filter>
    </defs>
</svg>
