<svg width="52" height="48" viewBox="0 0 52 48" fill="none" xmlns="http://www.w3.org/2000/svg">
    <g filter="url(#filter0_d)">
        <path d="M22 45C34.1503 45 44 35.1503 44 23C44 10.8497 34.1503 1 22 1C9.84974 1 0 10.8497 0 23C0 35.1503 9.84974 45 22 45Z" fill="#F5F7FA"/>
    </g>
    <path d="M22 33C27.5228 33 32 28.5228 32 23C32 17.4772 27.5228 13 22 13C16.4772 13 12 17.4772 12 23C12 28.5228 16.4772 33 22 33Z" stroke="#BCBEC3" stroke-linecap="round" stroke-linejoin="round"/>
    <path fill-rule="evenodd" clip-rule="evenodd" d="M21.4999 20.7645L21.5 27.5C21.5 27.7761 21.7238 28 22 28C22.2761 28 22.5 27.7761 22.5 27.5L22.4999 20.7645L25.2811 23.6393C25.4809 23.8457 25.8119 23.8457 26.0116 23.6393C26.2022 23.4423 26.2022 23.1296 26.0116 22.9326L22.3535 19.1514C22.1582 18.9495 21.8416 18.9495 21.6464 19.1514L17.9882 22.9326C17.7976 23.1296 17.7976 23.4423 17.9882 23.6393C18.188 23.8457 18.519 23.8457 18.7187 23.6393L21.4999 20.7645Z" fill="#BCBEC3"/>
    <defs>
        <filter id="filter0_d" x="-8" y="0" width="60" height="60" filterUnits="userSpaceOnUse" color-interpolation-filters="sRGB">
            <feFlood flood-opacity="0" result="BackgroundImageFix"/>
            <feColorMatrix in="SourceAlpha" type="matrix" values="0 0 0 0 0 0 0 0 0 0 0 0 0 0 0 0 0 0 127 0"/>
            <feOffset dy="7"/>
            <feGaussianBlur stdDeviation="4"/>
            <feColorMatrix type="matrix" values="0 0 0 0 0.961984 0 0 0 0 0.966827 0 0 0 0 0.978578 0 0 0 0.138247 0"/>
            <feBlend mode="normal" in2="BackgroundImageFix" result="effect1_dropShadow"/>
            <feBlend mode="normal" in="SourceGraphic" in2="effect1_dropShadow" result="shape"/>
        </filter>
    </defs>
</svg>
