<svg width="44" height="44" viewBox="0 0 44 44" fill="none" xmlns="http://www.w3.org/2000/svg">
    <g filter="url(#filter0_d)">
        <path d="M22 44C34.1503 44 44 34.1503 44 22C44 9.84974 34.1503 0 22 0C9.84974 0 0 9.84974 0 22C0 34.1503 9.84974 44 22 44Z" fill="#F5F7FA"/>
    </g>
    <path d="M20 12.2C15.4355 13.1266 12 17.1621 12 22C12 26.8379 15.4355 30.8734 20 31.7999" stroke="#BCBEC3" stroke-linecap="round" stroke-linejoin="round"/>
    <path d="M22 32C27.5228 32 32 27.5228 32 22C32 16.4772 27.5228 12 22 12C16.4772 12 12 16.4772 12 22C12 27.5228 16.4772 32 22 32Z" stroke="#BCBEC3" stroke-linecap="round" stroke-linejoin="round" stroke-dasharray="1 3"/>
    <path d="M22 17.5C22 17.2239 22.2239 17 22.5 17C22.7761 17 23 17.2239 23 17.5V22.5C23 22.7761 22.7761 23 22.5 23C22.2239 23 22 22.7761 22 22.5V17.5Z" fill="#BCBEC3"/>
    <path d="M26.5 22C26.7761 22 27 22.2239 27 22.5C27 22.7761 26.7761 23 26.5 23L22.5 23C22.2239 23 22 22.7761 22 22.5C22 22.2239 22.2239 22 22.5 22L26.5 22Z" fill="#BCBEC3"/>
    <defs>
        <filter id="filter0_d" x="-8" y="-1" width="60" height="60" filterUnits="userSpaceOnUse" color-interpolation-filters="sRGB">
            <feFlood flood-opacity="0" result="BackgroundImageFix"/>
            <feColorMatrix in="SourceAlpha" type="matrix" values="0 0 0 0 0 0 0 0 0 0 0 0 0 0 0 0 0 0 127 0"/>
            <feOffset dy="7"/>
            <feGaussianBlur stdDeviation="4"/>
            <feColorMatrix type="matrix" values="0 0 0 0 0.961984 0 0 0 0 0.966827 0 0 0 0 0.978578 0 0 0 0.138247 0"/>
            <feBlend mode="normal" in2="BackgroundImageFix" result="effect1_dropShadow"/>
            <feBlend mode="normal" in="SourceGraphic" in2="effect1_dropShadow" result="shape"/>
        </filter>
    </defs>
</svg>
