<svg width="44" height="44" fill="none" xmlns="http://www.w3.org/2000/svg"><g filter="url(#a)"><path d="M22 44c12.15 0 22-9.85 22-22S34.15 0 22 0 0 9.85 0 22s9.85 22 22 22z" fill="#F5F7FA"/></g><path d="M20 12.2c-4.565.927-8 4.962-8 9.8 0 4.838 3.435 8.873 8 9.8" stroke="#BCBEC3" stroke-linecap="round" stroke-linejoin="round"/><path d="M22 32c5.523 0 10-4.477 10-10s-4.477-10-10-10-10 4.477-10 10 4.477 10 10 10z" stroke="#BCBEC3" stroke-linecap="round" stroke-linejoin="round" stroke-dasharray="1 3"/><path d="M22 17.5a.5.5 0 0 1 1 0v5a.5.5 0 0 1-1 0v-5z" fill="#BCBEC3"/><path d="M26.5 22a.5.5 0 0 1 0 1h-4a.5.5 0 0 1 0-1h4z" fill="#BCBEC3"/><defs><filter id="a" x="-8" y="-1" width="60" height="60" filterUnits="userSpaceOnUse" color-interpolation-filters="sRGB"><feFlood flood-opacity="0" result="BackgroundImageFix"/><feColorMatrix in="SourceAlpha" values="0 0 0 0 0 0 0 0 0 0 0 0 0 0 0 0 0 0 127 0"/><feOffset dy="7"/><feGaussianBlur stdDeviation="4"/><feColorMatrix values="0 0 0 0 0.961984 0 0 0 0 0.966827 0 0 0 0 0.978578 0 0 0 0.138247 0"/><feBlend in2="BackgroundImageFix" result="effect1_dropShadow"/><feBlend in="SourceGraphic" in2="effect1_dropShadow" result="shape"/></filter></defs></svg>