<svg width="81" height="80" viewBox="0 0 81 80" fill="none" xmlns="http://www.w3.org/2000/svg">
    <path opacity="0.6" fill-rule="evenodd" clip-rule="evenodd" d="M17 6V73H62.002C62.3054 73 62.6048 72.9831 62.8994 72.9502C59.7902 72.6675 57.0235 71.1987 55.0556 69H17.001V10H62.002C64.143 10 65.8911 11.6838 65.9951 13.8003L66 14V49.1659C67.4358 49.4068 68.7852 49.9027 70 50.6054V14C70 9.66523 66.5532 6.13546 62.2511 6.00381L62.002 6H17ZM9.001 60.308L9 67C9 69.9731 11.1624 72.4411 14.0002 72.9171L14 60.308H9.001ZM9.001 57.839H14V47.142H9.001V57.839ZM26.0714 48.6658C27.7172 44.6039 32.649 42.6385 40.7314 42.6385C48.8139 42.6385 53.7456 44.6039 55.3915 48.6658L55.4445 48.7967V49.6706C55.4445 51.2574 54.5209 52.6991 53.0794 53.3625L52.5225 53.6122C48.7377 55.2648 44.7975 56.096 40.7314 56.096C36.3572 56.096 32.2253 55.1709 28.2014 53.2778L28.0045 53.1778C26.7731 52.4995 26.0183 51.2247 26.0183 49.8383V48.7967L26.0714 48.6658ZM9.001 44.674H14V33.977H9.001V44.674ZM31.6138 30.8195C31.6138 25.8003 35.6965 21.7326 40.7314 21.7326C45.7664 21.7326 49.8491 25.8003 49.8491 30.8195C49.8491 35.8386 45.7664 39.9063 40.7314 39.9063C35.6965 39.9063 31.6138 35.8386 31.6138 30.8195ZM9.001 31.508H14V20.811H9.001V31.508ZM9.001 18.342L9 12C9 9.02694 11.1624 6.55893 14.0002 6.08293L14 18.342H9.001ZM64 71C69.5228 71 74 66.5229 74 61C74 55.4772 69.5228 51 64 51C58.4772 51 54 55.4772 54 61C54 66.5229 58.4772 71 64 71ZM64 54C62.8954 54 62 54.8954 62 56V61C62 62.1046 62.8954 63 64 63C65.1046 63 66 62.1046 66 61V56C66 54.8954 65.1046 54 64 54ZM66 66C66 67.1046 65.1046 68 64 68C62.8954 68 62 67.1046 62 66C62 64.8954 62.8954 64 64 64C65.1046 64 66 64.8954 66 66Z" fill="#E0E0E0"/>
</svg>
