<svg width="80" height="80" viewBox="0 0 80 80" fill="none" xmlns="http://www.w3.org/2000/svg">
    <path d="M52 52.4199C55.3137 52.4199 58 49.7336 58 46.4199C58 43.1062 55.3137 40.4199 52 40.4199C48.6863 40.4199 46 43.1062 46 46.4199C46 49.7336 48.6863 52.4199 52 52.4199Z" fill="#C0C5D4" fill-opacity="0.3"/>
    <path fill-rule="evenodd" clip-rule="evenodd" d="M16.7869 23.6084L37.5692 11.6097C43.3087 8.29599 50.6478 10.2625 53.9615 16.002L57.6669 22.4199H58C64.6274 22.4199 70 27.7925 70 34.4199V58.4199C70 65.0473 64.6274 70.4199 58 70.4199H22C15.3726 70.4199 10 65.0473 10 58.4199V34.4199C10 30.3968 11.9798 26.836 15.0184 24.6588C15.0126 24.6524 15.0242 24.6653 15.0184 24.6588L15.2621 24.4887C15.7462 24.1596 16.2556 23.865 16.7869 23.6084ZM19.0949 28.0493L18.369 28.4341C16.3492 29.6619 15 31.8834 15 34.4199V58.4199C15 62.2859 18.134 65.4199 22 65.4199H58C61.866 65.4199 65 62.2859 65 58.4199V34.4199C65 30.5539 61.866 27.4199 58 27.4199H22C20.9636 27.4199 19.9798 27.6452 19.0949 28.0493ZM51.8934 22.4199L49.6314 18.502C47.6984 15.154 43.4172 14.0068 40.0692 15.9398L28.8453 22.4199H51.8934Z" fill="#C0C5D4" fill-opacity="0.3"/>
</svg>
