<svg width="24" height="24" viewBox="0 0 24 24" fill="none" xmlns="http://www.w3.org/2000/svg">
    <path fill-rule="evenodd" clip-rule="evenodd" d="M12 24C18.6274 24 24 18.6274 24 12C24 5.37258 18.6274 0 12 0C5.37258 0 0 5.37258 0 12C0 18.6274 5.37258 24 12 24Z" fill="#E5E7EB"/>
    <path d="M15.8302 6.63761C16.2532 6.21455 16.9392 6.21455 17.3622 6.63761C17.7853 7.06068 17.7853 7.74661 17.3622 8.16968L8.16984 17.3621C7.74677 17.7851 7.06084 17.7851 6.63777 17.3621C6.2147 16.939 6.2147 16.2531 6.63777 15.83L15.8302 6.63761Z" fill="white"/>
    <path d="M8.16984 6.63761C7.74677 6.21455 7.06084 6.21455 6.63778 6.63761C6.21471 7.06068 6.21471 7.74661 6.63778 8.16968L15.8302 17.3621C16.2532 17.7851 16.9392 17.7851 17.3622 17.3621C17.7853 16.939 17.7853 16.2531 17.3622 15.83L8.16984 6.63761Z" fill="white"/>
</svg>
