<svg width="81" height="80" viewBox="0 0 81 80" fill="none" xmlns="http://www.w3.org/2000/svg">
    <path opacity="0.6" fill-rule="evenodd" clip-rule="evenodd" d="M32.854 1H65.5C67.7091 1 69.5 2.79086 69.5 5V75C69.5 77.2091 67.7091 79 65.5 79H15.5C13.2909 79 11.5 77.2091 11.5 75V38.2705L24.53 6.57773C25.9175 3.20304 29.2052 1 32.854 1ZM19.4449 32.0955L16.5 39.2582V74H64.5V6H32.854C31.2323 6 29.7711 6.97913 29.1545 8.47899C28.8127 9.31028 28.9605 10.2626 29.5383 10.9511L35.7795 18.3891L19.4449 32.0955ZM28.5 31C27.9477 31 27.5 31.4477 27.5 32V35C27.5 35.5523 27.9477 36 28.5 36H58.5C59.0523 36 59.5 35.5523 59.5 35V32C59.5 31.4477 59.0523 31 58.5 31H28.5ZM23.5 41C22.9477 41 22.5 41.4477 22.5 42V45C22.5 45.5523 22.9477 46 23.5 46H53.5C54.0523 46 54.5 45.5523 54.5 45V42C54.5 41.4477 54.0523 41 53.5 41H23.5ZM23.5 52C23.5 51.4477 23.9477 51 24.5 51H58.5C59.0523 51 59.5 51.4477 59.5 52V55C59.5 55.5523 59.0523 56 58.5 56H24.5C23.9477 56 23.5 55.5523 23.5 55V52Z" fill="#E0E0E0"/>
</svg>
