<svg width="40" height="40" viewBox="0 0 40 40" fill="none" xmlns="http://www.w3.org/2000/svg">
    <path d="M20 40C31.0457 40 40 31.0457 40 20C40 8.95431 31.0457 0 20 0C8.95431 0 0 8.95431 0 20C0 31.0457 8.95431 40 20 40Z" fill="#F7F8F9"/>
    <path fill-rule="evenodd" clip-rule="evenodd" d="M31 20C31 26.0751 26.0751 31 20 31C13.9249 31 9 26.0751 9 20C9 13.9249 13.9249 9 20 9C26.0751 9 31 13.9249 31 20ZM22.54 28.6366C25.9651 27.6309 28.5424 24.6431 28.9451 20.9999H24.8346C24.7352 23.1996 24.3102 25.2093 23.6465 26.7579C23.3416 27.4693 22.9737 28.113 22.54 28.6366ZM17.46 28.6366C17.0262 28.1129 16.6583 27.4693 16.3534 26.7579C15.6897 25.2093 15.2647 23.1996 15.1653 20.9999H11.0549C11.4576 24.6431 14.0349 27.6309 17.46 28.6366ZM17.1675 20.9999C17.2656 22.9709 17.6488 24.7033 18.1917 25.97C18.5089 26.7103 18.861 27.2454 19.201 27.581C19.5367 27.9123 19.8056 28 20 28C20.1944 28 20.4632 27.9123 20.7989 27.581C21.1389 27.2454 21.491 26.7103 21.8082 25.97C22.3511 24.7033 22.7343 22.9709 22.8324 20.9999H17.1675ZM22.8324 18.9999H17.1675C17.2656 17.029 17.6488 15.2966 18.1917 14.03C18.5089 13.2897 18.861 12.7546 19.201 12.419C19.5367 12.0877 19.8056 12 20 12C20.1944 12 20.4632 12.0877 20.7989 12.419C21.1389 12.7546 21.491 13.2897 21.8082 14.03C22.3511 15.2966 22.7343 17.029 22.8324 18.9999ZM24.8346 18.9999H28.9451C28.5423 15.3568 25.965 12.3691 22.54 11.3634C22.9737 11.887 23.3416 12.5307 23.6465 13.2421C24.3102 14.7907 24.7352 16.8003 24.8346 18.9999ZM17.4599 11.3634C17.0262 11.8871 16.6583 12.5307 16.3534 13.2421C15.6897 14.7907 15.2648 16.8003 15.1653 18.9999H11.0549C11.4577 15.3568 14.0349 12.3691 17.4599 11.3634Z" fill="#BDBDBD"/>
</svg>
