<svg width="12" height="15" viewBox="0 0 12 15" fill="none" xmlns="http://www.w3.org/2000/svg">
<path fill-rule="evenodd" clip-rule="evenodd" d="M8.63345 0C8.75908 0.853312 8.41175 1.68928 7.95357 2.28073C7.46337 2.91514 6.61845 3.40581 5.79981 3.3802C5.65037 2.56324 6.033 1.72149 6.49857 1.15565C7.0093 0.531151 7.8846 0.0520413 8.63345 0ZM11.0927 12.011C11.5147 11.3642 11.6724 11.0379 12 10.3077C9.61714 9.40152 9.23532 6.01388 11.5935 4.71367C10.8743 3.81163 9.86347 3.28874 8.90934 3.28874C8.22186 3.28874 7.75081 3.46814 7.32259 3.63124C6.96573 3.76716 6.63861 3.89175 6.24075 3.89175C5.8108 3.89175 5.43006 3.75524 5.03138 3.6123C4.59331 3.45522 4.13358 3.29039 3.56312 3.29039C2.49239 3.29039 1.35269 3.94462 0.630121 5.06309C-0.385589 6.63838 -0.212335 9.59977 1.43481 12.1225C2.02354 13.0254 2.81016 14.0398 3.83901 14.0489C4.26591 14.0531 4.54999 13.9257 4.85741 13.7878C5.20928 13.63 5.59171 13.4585 6.25388 13.455C6.91996 13.451 7.29636 13.6246 7.64356 13.7847C7.94308 13.9229 8.22086 14.051 8.64413 14.0464C9.67379 14.0381 10.5039 12.9139 11.0927 12.011Z" fill="#FFFFFF"/>
</svg>
