<svg id="vector" xmlns="http://www.w3.org/2000/svg" width="59" height="55" viewBox="0 0 59 55"><path fill="#FFFFFF" d="M34.378 9.2h0.12L23.82 9.208c-5.093 0-9.335 3.534-10.474 8.277C7.403 17.515 2.1 22.293 2.1 28.24v5.399c0 5.95 5.392 10.74 11.335 10.768C14.677 49 18.833 52.4 23.82 52.4H34.5l-0.123-0.008c4.984 0 9.142-3.399 10.384-7.99 5.946-0.028 11.338-4.82 11.338-10.766v-5.4c0-5.949-5.303-10.727-11.246-10.757-0.877-3.65-3.594-6.586-7.123-7.744C36.675 9.386 35.55 9.2 34.378 9.2z" stroke-width="4" fill-opacity="0.06" stroke="#888A8D" fill-rule="evenodd" id="path_0"/><path fill="none" d="M18.3 2.8l8.1 5.4m13.5-5.4l-8.1 5.4" stroke-width="5" stroke="#888A8D" fill-rule="evenodd" stroke-linecap="round" id="path_1"/><path fill="#888A8D" d="M20.8 22.7a2.5 2.5 0 0 1 2.5 2.5v8.5a2.5 2.5 0 0 1-2.5 2.5 2.5 2.5 0 0 1-2.5-2.5v-8.5a2.5 2.5 0 0 1 2.5-2.5zm16.2 0a2.5 2.5 0 0 1 2.5 2.5v8.5a2.5 2.5 0 0 1-2.5 2.5 2.5 2.5 0 0 1-2.5-2.5v-8.5a2.5 2.5 0 0 1 2.5-2.5z" stroke-width="1" id="path_2"/></svg>