<svg width="24" height="24" viewBox="0 0 24 24" fill="none" xmlns="http://www.w3.org/2000/svg">
    <path d="M15 7V7C15 6.06812 15 5.60218 14.8478 5.23463C14.6448 4.74458 14.2554 4.35523 13.7654 4.15224C13.3978 4 12.9319 4 12 4H8C6.11438 4 5.17157 4 4.58579 4.58579C4 5.17157 4 6.11438 4 8V12C4 12.9319 4 13.3978 4.15224 13.7654C4.35523 14.2554 4.74458 14.6448 5.23463 14.8478C5.60218 15 6.06812 15 7 15V15" stroke="#828282" stroke-width="2"/>
    <rect x="9" y="9" width="11" height="11" rx="2" stroke="#828282" stroke-width="2"/>
</svg>
