<svg width="12" height="12" viewBox="0 0 12 12" fill="none" xmlns="http://www.w3.org/2000/svg">
<path d="M6.21913 1.6247C5.87412 1.19343 5.94404 0.564141 6.37531 0.219131C6.80657 -0.125878 7.43586 -0.055957 7.78087 0.375305L6.21913 1.6247ZM11 6L11.7809 5.37531C12.073 5.74052 12.073 6.25948 11.7809 6.62469L11 6ZM7.78087 11.6247C7.43586 12.056 6.80657 12.1259 6.37531 11.7809C5.94404 11.4359 5.87412 10.8066 6.21913 10.3753L7.78087 11.6247ZM7.78087 0.375305L11.7809 5.37531L10.2191 6.62469L6.21913 1.6247L7.78087 0.375305ZM11.7809 6.62469L7.78087 11.6247L6.21913 10.3753L10.2191 5.37531L11.7809 6.62469Z" fill="#333333"/>
<path d="M0.219131 1.6247C-0.125878 1.19343 -0.0559568 0.564141 0.375305 0.219131C0.806567 -0.125878 1.43586 -0.055957 1.78087 0.375305L0.219131 1.6247ZM5 6L5.78087 5.37531C6.07304 5.74052 6.07304 6.25948 5.78087 6.62469L5 6ZM1.78087 11.6247C1.43586 12.056 0.806567 12.1259 0.375305 11.7809C-0.0559568 11.4359 -0.125878 10.8066 0.219131 10.3753L1.78087 11.6247ZM1.78087 0.375305L5.78087 5.37531L4.21913 6.62469L0.219131 1.6247L1.78087 0.375305ZM5.78087 6.62469L1.78087 11.6247L0.219131 10.3753L4.21913 5.37531L5.78087 6.62469Z" fill="#333333"/>
</svg>
