<svg width="16" height="20" viewBox="0 0 18 22" fill="none" xmlns="http://www.w3.org/2000/svg"><path fill-rule="evenodd" clip-rule="evenodd" d="M.879.879A3 3 0 0 1 3 0h8a1 1 0 0 1 .707.293l6 6A1 1 0 0 1 18 7v12a3 3 0 0 1-3 3H3a3 3 0 0 1-3-3V3A3 3 0 0 1 .879.879zM3 2a1 1 0 0 0-1 1v16a1 1 0 0 0 1 1h12a1 1 0 0 0 1-1V7.414L10.586 2H3z" fill="#F8F8F8"/><path fill-rule="evenodd" clip-rule="evenodd" d="M11 0a1 1 0 0 1 1 1v5h5a1 1 0 1 1 0 2h-6a1 1 0 0 1-1-1V1a1 1 0 0 1 1-1zM4 12a1 1 0 0 1 1-1h8a1 1 0 1 1 0 2H5a1 1 0 0 1-1-1zm0 4a1 1 0 0 1 1-1h8a1 1 0 1 1 0 2H5a1 1 0 0 1-1-1zm0-8a1 1 0 0 1 1-1h2a1 1 0 0 1 0 2H5a1 1 0 0 1-1-1z" fill="#F8F8F8"/></svg>