<svg width="24" height="24" viewBox="0 0 24 24" fill="none" xmlns="http://www.w3.org/2000/svg">
    <circle cx="12" cy="12" r="8" stroke="#333333" stroke-width="2"/>
    <path fill-rule="evenodd" clip-rule="evenodd" d="M8 10.62C8 8.22158 9.79086 7 12 7C14.3281 7 16 8.58694 16 10.5445C16 11.9153 15.0984 13.0783 13.7841 13.4677C13.319 13.6055 13 14.0328 13 14.5178C13 15.0701 12.5523 15.5178 12 15.5178C11.4477 15.5178 11 15.0701 11 14.5178C11 13.147 11.9016 11.9395 13.2159 11.5501C13.681 11.4123 14 11.0296 14 10.5445C14 9.67578 13.1602 9 12 9C10.8954 9 10 9.71484 10 10.62C10 11.1723 9.55228 11.62 9 11.62C8.44772 11.62 8 11.1723 8 10.62Z" fill="#333333"/>
    <circle cx="12" cy="17" r="1" fill="#333333"/>
</svg>
