<svg fill="none" height="17" viewBox="0 0 17 17" width="17" xmlns="http://www.w3.org/2000/svg"><g clip-rule="evenodd" fill="#c4c4c4" fill-rule="evenodd"><path d="m7.5 13c3.0376 0 5.5-2.4624 5.5-5.5 0-3.03757-2.4624-5.5-5.5-5.5-3.03757 0-5.5 2.46243-5.5 5.5 0 3.0376 2.46243 5.5 5.5 5.5zm7.5-5.5c0 4.1421-3.3579 7.5-7.5 7.5-4.14214 0-7.5-3.3579-7.5-7.5 0-4.14214 3.35786-7.5 7.5-7.5 4.1421 0 7.5 3.35786 7.5 7.5z"/><path d="m12.2851 12.3007c.3862-.3948 1.0194-.4018 1.4142-.0156l2.2856 2.2358c.3948.3862.4017 1.0194.0155 1.4142s-1.0193.4017-1.4141.0155l-2.2856-2.2357c-.3948-.3862-.4018-1.0194-.0156-1.4142z"/></g></svg>