<svg width="24" height="24" fill="none" xmlns="http://www.w3.org/2000/svg"><path d="M12 15a3 3 0 1 0 0-6 3 3 0 0 0 0 6z" stroke="#000" stroke-width="2" stroke-linecap="round" stroke-linejoin="round"/><path d="M18.727 14.727a1.5 1.5 0 0 0 .3 1.655l.055.054a1.816 1.816 0 0 1 0 2.573 1.817 1.817 0 0 1-2.573 0l-.054-.055a1.501 1.501 0 0 0-1.655-.3 1.5 1.5 0 0 0-.91 1.373v.155a1.818 1.818 0 1 1-3.635 0V20.1a1.5 1.5 0 0 0-.982-1.373 1.5 1.5 0 0 0-1.655.3l-.054.055a1.818 1.818 0 0 1-3.106-1.287 1.818 1.818 0 0 1 .533-1.286l.054-.055a1.5 1.5 0 0 0 .3-1.654 1.5 1.5 0 0 0-1.372-.91h-.155a1.818 1.818 0 1 1 0-3.636H3.9a1.5 1.5 0 0 0 1.373-.981 1.5 1.5 0 0 0-.3-1.655l-.055-.054A1.818 1.818 0 1 1 7.491 4.99l.054.054a1.5 1.5 0 0 0 1.655.3h.073a1.5 1.5 0 0 0 .909-1.372v-.155a1.818 1.818 0 0 1 3.636 0V3.9a1.5 1.5 0 0 0 .91 1.373 1.5 1.5 0 0 0 1.654-.3l.054-.055a1.818 1.818 0 0 1 3.106 1.287 1.818 1.818 0 0 1-.533 1.286l-.054.054a1.5 1.5 0 0 0-.3 1.655v.073a1.5 1.5 0 0 0 1.372.909h.155a1.818 1.818 0 0 1 0 3.636H20.1a1.499 1.499 0 0 0-1.373.91v0z" stroke="#000" stroke-width="2" stroke-linecap="round" stroke-linejoin="round"/></svg>