<svg width="24" height="24" viewBox="0 0 24 24" fill="none" xmlns="http://www.w3.org/2000/svg">
    <path fill-rule="evenodd" clip-rule="evenodd" d="M12 5C8.13401 5 5 8.13401 5 12C5 15.866 8.13401 19 12 19C13.6783 19 15.2187 18.4094 16.4246 17.4246L18.2929 19.2929C18.6834 19.6834 19.3166 19.6834 19.7071 19.2929C20.0976 18.9023 20.0976 18.2692 19.7071 17.8786L17.7793 15.9509C18.5494 14.8264 19 13.4658 19 12C19 8.13401 15.866 5 12 5ZM7 12C7 9.23858 9.23858 7 12 7C14.7614 7 17 9.23858 17 12C17 14.7614 14.7614 17 12 17C9.23858 17 7 14.7614 7 12Z" fill="#333333"/>
</svg>
