<svg width="24" height="24" viewBox="0 0 24 24" fill="none" xmlns="http://www.w3.org/2000/svg">
    <path d="M16 3C15.4477 3 15 3.44772 15 4C15 4.55228 15.4477 5 16 5V3ZM19 8C19 8.55228 19.4477 9 20 9C20.5523 9 21 8.55228 21 8H19ZM21 16.0001C21 15.4478 20.5523 15.0001 20 15.0001C19.4477 15.0001 19 15.4478 19 16.0001H21ZM16 19C15.4477 19 15 19.4477 15 20C15 20.5523 15.4477 21 16 21V19ZM8 21C8.55228 21 9 20.5523 9 20C9 19.4477 8.55228 19 8 19V21ZM5 15.9999C5 15.4476 4.55228 14.9999 4 14.9999C3.44772 14.9999 3 15.4476 3 15.9999H5ZM3 8C3 8.55228 3.44772 9 4 9C4.55228 9 5 8.55228 5 8H3ZM8 5C8.55228 5 9 4.55228 9 4C9 3.44772 8.55228 3 8 3V5ZM16 5H17V3H16V5ZM19 7V8H21V7H19ZM17 5C18.1046 5 19 5.89543 19 7H21C21 4.79086 19.2091 3 17 3V5ZM19 16.0001V17H21V16.0001H19ZM17 19H16V21H17V19ZM19 17C19 18.1046 18.1046 19 17 19V21C19.2091 21 21 19.2091 21 17H19ZM8 19H7V21H8V19ZM5 17V15.9999H3V17H5ZM7 19C5.89543 19 5 18.1046 5 17H3C3 19.2091 4.79086 21 7 21V19ZM5 8V7H3V8H5ZM7 5H8V3H7V5ZM5 7C5 5.89543 5.89543 5 7 5V3C4.79086 3 3 4.79086 3 7H5Z" fill="#BDBDBD"/>
    <rect x="3" y="11" width="18" height="2" rx="1" fill="#BDBDBD"/>
</svg>
