<svg width="24" height="24" viewBox="0 0 24 24" fill="none" xmlns="http://www.w3.org/2000/svg">
    <path d="M8 12C8 11.4477 8.44772 11 9 11H12C12.5523 11 13 11.4477 13 12C13 12.5523 12.5523 13 12 13H9C8.44772 13 8 12.5523 8 12Z" fill="#333333"/>
    <path d="M8 15C8 14.4477 8.44772 14 9 14H15C15.5523 14 16 14.4477 16 15C16 15.5523 15.5523 16 15 16H9C8.44772 16 8 15.5523 8 15Z" fill="#333333"/>
    <path d="M14.5858 4.58579L13.8787 5.29289L14.5858 4.58579ZM18.4142 8.41421L19.1213 7.70711L18.4142 8.41421ZM16 19H8V21H16V19ZM6 17V7H4V17H6ZM8 5H13.1716V3H8V5ZM13.8787 5.29289L17.7071 9.12132L19.1213 7.70711L15.2929 3.87868L13.8787 5.29289ZM18 9.82843V17H20V9.82843H18ZM13.1716 5C13.4368 5 13.6911 5.10536 13.8787 5.29289L15.2929 3.87868C14.7303 3.31607 13.9672 3 13.1716 3V5ZM8 19C6.89543 19 6 18.1046 6 17H4C4 19.2091 5.79086 21 8 21V19ZM16 21C18.2091 21 20 19.2091 20 17H18C18 18.1046 17.1046 19 16 19V21ZM17.7071 9.12132C17.8946 9.30886 18 9.56321 18 9.82843H20C20 9.03278 19.6839 8.26972 19.1213 7.70711L17.7071 9.12132ZM6 7C6 5.89543 6.89543 5 8 5V3C5.79086 3 4 4.79086 4 7H6Z" fill="#333333"/>
    <path d="M13 4V7C13 8.65685 14.3431 10 16 10H19" stroke="#333333" stroke-width="2" stroke-linecap="round"/>
</svg>
