<svg fill="none" height="320" width="320" xmlns="http://www.w3.org/2000/svg" xmlns:xlink="http://www.w3.org/1999/xlink"><linearGradient id="a" gradientUnits="userSpaceOnUse" x1="164.844" x2="167.562" y1="34.911" y2="298.913"><stop offset="0" stop-color="#28282d"/><stop offset="1" stop-color="#757575"/></linearGradient><linearGradient id="b" gradientUnits="userSpaceOnUse" x1="231.5" x2="231.5" y1="255" y2="313"><stop offset="0" stop-color="#c4c4c4"/><stop offset="1" stop-color="#f2f2f2"/></linearGradient><clipPath id="c"><path d="m0 0h320v320h-320z"/></clipPath><mask id="d" fill="#fff"><path d="m286.707 118.884-9.539-2.73-14.668-1.654c-7.554-.167-15.5 3.384-21.5 8 0 0-7.162 5.063-8 6.5-.911 1.563-.5 4 .5 7.5s4.5 7.197 6 7.5 2.367-1.143 4.5-2.5c1-.636 3.332-2.5 3.332-2.5l-.832 12-1 13c-3 9 19.5 7.375 32 10.5 8 2 8-2 8-2 2-7 1.122-21.628 1-25l1 3.5 15.167-5.123-4.225-14.509a16.73 16.73 0 0 0 -11.735-12.484z" fill="#fff"/></mask><g clip-path="url(#c)"><path d="m53.579 241h-51.579l8.421 50h51.579zm20.632-27h-23.211l3.789 22h23.211l-3.79-22zm-23.375-201h-34.836l6.164 26h34.836z" fill="#f2f2f2"/><path d="m71 66.346c-4.667-2.986-10.342-.443-13.067 2.195-3.408 3.299-8.214 3.059-11.146.578-2.624-2.221-6.044-5.347-11.721-.578-8.323 5.959-10.733-9.041-20.066 1.959" stroke="#282828" stroke-linecap="round" stroke-linejoin="round"/><g fill-rule="evenodd"><path d="m80.401 36.464 108.245-1.114c6.355-.066 11.88 4.545 13.227 11.037l49.604 239.092.452 3.297c1.048 7.657-4.041 14.752-11.367 15.847a12.87 12.87 0 0 1 -1.765.14l-116.987 1.204c-6.544.068-12.177-4.815-13.324-11.55l-41.144-241.494c-1.297-7.615 3.557-14.887 10.842-16.243.732-.136 1.473-.208 2.216-.216z" fill="#757575"/><path d="m84.095 35.742 108.244-1.114c6.355-.065 11.88 4.545 13.227 11.037l49.605 239.092.451 3.297c1.048 7.657-4.041 14.752-11.367 15.847-.584.087-1.174.134-1.764.14l-116.988 1.205c-6.543.067-12.177-4.816-13.324-11.55l-41.143-241.495c-1.297-7.615 3.557-14.887 10.842-16.243.732-.136 1.473-.208 2.216-.216z" fill="#28282d"/><path d="m89.816 35.683 106.312-1.094c6.45-.066 12.037 4.636 13.321 11.21l45.982 235.563c1.479 7.575-3.227 14.963-10.51 16.501-.838.177-1.69.271-2.545.279l-111.78 1.151c-6.568.068-12.223-4.806-13.38-11.531l-40.514-235.619c-1.308-7.609 3.562-14.881 10.878-16.242.738-.137 1.486-.21 2.236-.218z" fill="url(#a)"/></g><path d="m244.947 256.28.077.407h.414 22.397l4.887 9.228 10.138 18.775c2.135 3.738 4.092 6.917 5.886 9.406 1.336 1.853 2.597 3.347 3.793 4.404h-111.546c-3.886-.041-7.562-1.952-10.018-5.229-5.979-7.977-10.242-14.149-12.799-18.522-.891-1.524-1.636-2.935-2.322-4.232l-.616-1.162c-.853-1.595-1.653-3.006-2.571-4.17-.924-1.171-1.975-2.104-3.336-2.738s-2.991-.953-5.056-.953c-2.297 0-4.277 1.885-5.966 4.524-1.714 2.676-3.242 6.307-4.587 10.158-1.346 3.857-2.518 7.965-3.51 11.608l-.854 3.172-1.574 5.652c-.229.586-.546.971-.906 1.213s-.81.366-1.332.365c-1.061-.002-2.382-.516-3.731-1.426-2.702-1.823-5.236-5.039-5.734-7.962l-39.491-237.298h129.374z" fill="#fff" stroke="#000"/><path d="m88.817 61h109.012c1.188 0 2.315.91 2.518 2.032l10.622 58.936c.202 1.122-.597 2.032-1.786 2.032h-109.012c-1.188 0-2.315-.91-2.518-2.032l-10.622-58.936c-.202-1.122.597-2.032 1.786-2.032zm48.934 99h81.811c1.141 0 2.219 1.119 2.409 2.5s-.581 2.5-1.722 2.5h-81.811c-1.141 0-2.219-1.119-2.409-2.5s.581-2.5 1.722-2.5zm7 36h81.811c1.141 0 2.219 1.343 2.409 3s-.581 3-1.722 3h-81.811c-1.141 0-2.219-1.343-2.409-3s.581-3 1.722-3zm10 36h81.811c1.141 0 2.219 1.567 2.409 3.5s-.581 3.5-1.722 3.5h-81.811c-1.141 0-2.219-1.567-2.409-3.5s.581-3.5 1.722-3.5zm-15.082-62h78.006c1.088 0 2.117 1.791 2.298 4s-.555 4-1.642 4h-78.006c-1.088 0-2.117-1.791-2.298-4s.555-4 1.642-4zm8.98 38h77.054c1.075 0 2.091 1.343 2.27 3s-.547 3-1.622 3h-77.054c-1.075 0-2.091-1.343-2.27-3s.547-3 1.622-3zm7.061 37h79.908c1.115 0 2.168.895 2.354 2s-.568 2-1.682 2h-79.908c-1.115 0-2.168-.895-2.354-2s.568-2 1.682-2zm-50.348-115h110.349c1.539 0 2.994 1.119 3.25 2.5s-.784 2.5-2.323 2.5h-110.349c-1.539 0-2.994-1.119-3.25-2.5s.784-2.5 2.323-2.5z" fill="#f2f2f2" fill-rule="evenodd"/><path d="m26.52 98h166.158c1.037 0 2.057.779 2.278 1.741l10.001 43.518c.221.962-.44 1.741-1.477 1.741h-166.158c-1.037 0-2.057-.779-2.278-1.741l-10.001-43.518c-.221-.961.441-1.741 1.477-1.741z" fill="#c4c4c4" fill-rule="evenodd"/><path d="m25.503 94.5h164.312c.814 0 1.604.622 1.766 1.317l9.89 42.592c.076.327-.003.588-.157.767s-.429.324-.817.324h-164.312c-.813 0-1.604-.622-1.765-1.317l-9.89-42.592c-.076-.327.003-.587.157-.766s.43-.325.817-.325z" fill="#fff" stroke="#000"/><path d="m53.27 101c-8.359 0-13.709 6.953-11.928 15.5 2.933 11.458 11.928 15.5 18.388 15.5 8.358 0 13.709-6.953 11.928-15.5s-10.029-15.5-18.388-15.5z" fill="#cbcbcb"/><g fill-rule="evenodd"><path d="m57.507 123.405c2.694.815 4.827-.427 5.48-2.364.56-1.662-.594-3.143-1.784-3.501.895-.149 1.53-1.011 1.799-1.959.315-1.109.058-2.571-.971-3.602-.725-.727-1.77-1.199-1.77-1.199l.451-1.714-1.542-.461-.451 1.723-1.313-.386.451-1.722-1.552-.456-.453 1.721-2.398-.704-.566 2.151 1.163.341c.334.098.535.443.449.771l-1.841 6.994c-.086.327-.427.513-.761.415l-1.155-.339-1.008 2.008 2.836.833-.452 1.718 1.552.455.454-1.717 1.311.385-.45 1.719 1.542.453.452-1.718.528.155zm1.981-3.429c-.331 1.257-1.667 1.203-2.368.997l-2.432-.714.827-3.142 2.134.626c1.632.454 2.004 1.604 1.839 2.233zm-1.216-4.223-2.226-.654.792-3.01.884.26c1.433.388 2.793 1.159 2.462 2.416-.165.628-.609 1.032-1.531 1.032-.129 0-.382-.044-.382-.044z" fill="#fff"/><path d="m78.75 104h101.579c1.194 0 2.368 1.119 2.622 2.5s-.507 2.5-1.701 2.5h-101.579c-1.194 0-2.368-1.119-2.622-2.5s.507-2.5 1.701-2.5z" fill="#c4c4c4"/><path d="m81.733 115h100.621c1.183 0 2.346 1.119 2.597 2.5s-.502 2.5-1.684 2.5h-100.621c-1.182 0-2.345-1.119-2.597-2.5s.502-2.5 1.685-2.5z" fill="#eee"/><path d="m84.76 125h69.554c1.2 0 2.381 1.119 2.637 2.5s-.51 2.5-1.711 2.5h-69.554c-1.201 0-2.381-1.119-2.637-2.5s.51-2.5 1.71-2.5zm69.913 45h84.459c1.18 0 2.373 1.01 2.665 2.256l10.138 37.488c.292 1.246-.428 2.256-1.608 2.256h-85.439c-1.18 0-2.373-1.01-2.665-2.256l-9.158-37.488c-.292-1.246.428-2.256 1.608-2.256z" fill="#c4c4c4"/></g><path d="m240.123 169.609.001.006 8.322 36.984c.124.587.023 1.073-.186 1.395a1.08 1.08 0 0 1 -.947.506h-83.238c-.439 0-.921-.21-1.338-.599s-.735-.924-.86-1.51l-.001-.006-8.322-36.984c-.124-.587-.023-1.073.186-1.395a1.08 1.08 0 0 1 .947-.506h83.238c.439 0 .921.21 1.338.599s.735.924.86 1.51z" fill="#fff" stroke="#000"/><g fill-rule="evenodd"><path d="m196.18 177h37.465c.45 0 1.249 1.119 1.345 2.5s-.547 2.5-.998 2.5h-37.465c-.45 0-1.423-1.119-1.519-2.5s.721-2.5 1.172-2.5z" fill="#c4c4c4"/><path d="m199.319 185h36.359c.44 0 1.219 1.119 1.313 2.5s-.534 2.5-.974 2.5h-36.359c-.44 0-1.558-1.119-1.652-2.5s.873-2.5 1.313-2.5z" fill="#eee"/><path d="m201.783 194h23.765c.535 0 1.324.895 1.438 2s-.491 2-1.025 2h-23.765c-.535 0-1.06-.895-1.174-2s.227-2 .761-2z" fill="#c4c4c4"/></g><path d="m221 11.015c-4.737-2.473-6.465.102-8.188 2.103-2.155 2.502-4.638 2.517-7.122 0-1.659-1.684-4.496-4.999-8.345-.438-3.509 4.177-7.058-3.958-12.178-.214l-.167.38m133.5 96.654c-1.223-1.48-4.5-4-7.973-.478-2.765 2.804-3.775-1.328-7.027-1.328-2.663.326-3 2.806-6 2.806-2.741 0-2.5-3-5-2.806" stroke="#282828" stroke-linecap="round" stroke-linejoin="round"/><path d="m116.291 156c-7.01 0-11.498 5.607-10.004 12.5 2.459 9.24 10.004 12.5 15.422 12.5 7.01 0 11.498-5.607 10.004-12.5s-8.412-12.5-15.422-12.5zm8.209 36c-6.472 0-10.614 5.607-9.235 12.5 2.27 9.24 9.235 12.5 14.236 12.5 6.471 0 10.613-5.607 9.234-12.5s-7.765-12.5-14.235-12.5zm8.396 38c-6.741 0-11.056 5.383-9.62 12 2.365 8.871 9.62 12 14.829 12 6.74 0 11.055-5.383 9.619-12s-8.088-12-14.828-12z" fill="#f2f2f2"/><path d="m248.486 255 .009.044h23.284c4.729 1.521 5.322 6.179 6.965 9.299 9.07 24.66 29.659 45.313 34.756 48.657h-123.594c-4.153-.043-8.071-2.09-10.682-5.58-6.137-8.202-18.054-28.519-20.693-33.04-.92-1.576-1.692-3.04-2.396-4.375-2.971-5.635-4.741-8.993-11.422-8.993-.24 0-.478.023-.713.068v-1.523z" fill="url(#b)"/><path d="m175.687 175c-7.28 0-11.94 6.056-10.389 13.5 2.554 9.979 10.389 13.5 16.015 13.5 7.28 0 11.94-6.056 10.389-13.5s-8.735-13.5-16.015-13.5z" fill="#c4c4c4"/><path d="m176.32 178.755 8.017 8.24-6.128-1.263zm5.134 18.958-1.24-4.577 4.604-4.622zm-3.033-11.299 1.609 5.94 4.639-4.654zm-5.546 3.173 2.886-10.705 1.89 6.977zm6.781 3.675 1.239 4.578-7.67-6.704zm-.237-.77-1.609-5.94-4.87 3.801z" fill="#fff"/><path d="m93.564 190h-77.153a2 2 0 0 0 -1.966 2.37l14.738 78.382a2 2 0 0 0 1.966 1.63h57.796a2 2 0 0 1 1.956 1.584l7.761 36.451a2 2 0 0 0 1.956 1.583h42.382" stroke="#000" stroke-linecap="round" stroke-linejoin="round"/><path d="m26.721 238.201h-6.721l1.279 7h6.721zm-7-35h-6.721l1.279 7h6.721z" fill="#222"/><path d="m30.4 261.7h-5.704l-1.096-5.999h5.704zm-7-35h-5.704l-1.096-5.999h5.704z" fill="#fff" stroke="#000"/><path d="m70.355 186.288h-6.721l1.845 6.776h6.721zm-24.634 82.927h-6.721l1.845 6.776h6.721zm53.5 24.285h-6.721l.779 6.5h6.721z" fill="#222"/><g fill="#fff" stroke="#000"><path d="m49.594 191.345h-5.684l-1.572-5.776h5.684zm-21.399.822h-5.684l-1.572-5.775h5.684zm60.424.397h-5.684l-1.572-5.776h5.684l1.573 5.776z"/><path d="m67.911 275.276h-5.684l-1.572-5.776h5.684z"/><path d="m93.911 275.491h-5.684l-1.572-5.776h5.684zm24 40h-5.684l-1.572-5.776h5.684zm27 0h-5.684l-1.572-5.776h5.684z"/></g><path d="m38 165a2 2 0 1 0 0-4 2 2 0 1 0 0 4zm24.5-80a2.5 2.5 0 1 0 0-5 2.5 2.5 0 1 0 0 5zm250.5 100a3 3 0 1 0 0-6 3 3 0 1 0 0 6zm-8.5 9a1.5 1.5 0 1 0 0-3 1.5 1.5 0 1 0 0 3zm-71-101a1.5 1.5 0 1 0 0-3 1.5 1.5 0 1 0 0 3zm-64.5-78a3 3 0 1 0 0-6 3 3 0 1 0 0 6zm83 125c2.209 0 4-2.015 4-4.5s-1.791-4.5-4-4.5-4 2.015-4 4.5 1.791 4.5 4 4.5zm-230.5 18a4.5 4.5 0 1 0 0-9 4.5 4.5 0 1 0 0 9z" stroke="#0a0910" stroke-miterlimit="22.93"/><g fill="#fff"><path d="m296.381 295.493-1.617-6.872a1 1 0 0 1 .883-1.225l8.938-.813a1 1 0 0 1 1.075.822l1.232 6.983c.066.375-.085.759-.403.968-3.587 2.365-6.956 1.771-9.503.831-.306-.113-.53-.376-.605-.694z" stroke="#000" stroke-linejoin="round" stroke-width=".6"/><path d="m265.74 193.913c-3.363 10.06-12.855 62.954-21.345 88.909-5.895-.822-6.125-2.222-15.395-2.822-.512-17.614 8.238-87.443 18.5-118.5 13 0 26.5 1.667 34.981 1.667 12.831 48.884 27.226 94.676 25.106 123.319-6.539 2.986-11.967 3.239-17.844-.212zm0 0-3.545-11.291z"/></g><path d="m265.74 193.913c-3.363 10.06-12.855 62.954-21.345 88.909-5.895-.822-6.125-2.222-15.395-2.822-.512-17.614 8.238-87.443 18.5-118.5 13 0 26.5 1.667 34.981 1.667 12.831 48.884 27.226 94.676 25.106 123.319-6.539 2.986-11.967 3.24-17.844-.212zm0 0-3.545-11.291" stroke="#000"/><path d="m228.338 132.253.139.089.15-.07 7.231-3.374 5.27 11.019-5.318 4.351-.013.011-.012.012c-1.666 1.716-4.152 2.052-6.694 1.471s-5.071-2.065-6.744-3.888l-.011-.012-.013-.011-19.821-17.311a1.38 1.38 0 0 0 -.903-.331c-1.572-.009-3.591-.513-5.37-1.404-1.785-.895-3.269-2.15-3.846-3.62a2.62 2.62 0 0 1 .182-2.286l1.682-2.489a1.3 1.3 0 0 0 -.235-1.718l-3.818-3.246-.014-.012-.015-.01c-.686-.45-1.007-1.467-.918-2.297.044-.412.183-.711.36-.859.145-.122.37-.186.741-.008l6.177 4.247c.533.366 1.218.264 1.684-.108.665-.532 1.277-.749 1.826-.768s1.066.161 1.542.478c.963.642 1.72 1.821 2.135 2.877l1.807 4.606.036.091.082.052z" fill="#fff" stroke="#222" stroke-width=".6"/><path d="m282.036 163.121s27.701 94.337 25.604 122.86c-1.867.837-2.64 1.019-2.64 1.019-.468-19.166-18.195-93.335-24-110.5-4.244-12.549-19.477-11.858-19.477-11.858z" fill="#c4c4c4"/><path d="m286.707 118.884-9.539-2.73-14.668-1.654c-7.554-.167-15.5 3.384-21.5 8 0 0-7.162 5.063-8 6.5-.911 1.563-.5 4 .5 7.5s4.5 7.197 6 7.5 2.367-1.143 4.5-2.5c1-.636 3.332-2.5 3.332-2.5l-.832 12-1 13c-3 9 19.5 7.375 32 10.5 8 2 8-2 8-2 2-7 1.122-21.628 1-25l1 3.5 15.167-5.123-4.225-14.509a16.73 16.73 0 0 0 -11.735-12.484z" fill="#757575"/><path d="m286.707 118.884-.275.961zm-9.539-2.73.275-.962-.08-.023-.083-.009zm-14.668-1.654.112-.994-.045-.005-.045-.001zm-21.5 8 .577.817.017-.012.016-.012zm-8 6.5-.864-.504zm14.332 10 .997.069.158-2.273-1.78 1.423zm-1.832 25 .949.316.039-.117.009-.122zm40 8.5-.961-.275-.039.135v.14zm1-25 .962-.275a1 1 0 0 0 -1.961.311zm1 3.5-.961.275.288 1.008.993-.336zm15.167-5.123.32.947.908-.307-.268-.92zm-4.225-14.509-.977.216.007.032.01.032zm-20.942 43.132.243-.97zm-31-23.5.997.077.001-.008zm-2.5-9.5.537.844zm42.982-23.578-9.539-2.73-.55 1.923 9.539 2.73zm-9.702-2.762-14.668-1.654-.224 1.988 14.668 1.653zm-14.758-1.66c-7.856-.173-16.02 3.505-22.132 8.207l1.22 1.586c5.888-4.531 13.616-7.954 20.868-7.793zm-21.522 9-.577-.816-.022.015-.061.043-.231.165-.829.597-2.572 1.912c-.954.727-1.945 1.508-2.755 2.203-.405.347-.775.681-1.076.982-.283.284-.567.597-.741.895l1.728 1.008c.035-.061.159-.221.428-.489.251-.251.578-.548.963-.878.768-.659 1.724-1.413 2.666-2.131l2.535-1.883.817-.589.226-.162.059-.042c.016-.011.018-.012.018-.013s.001 0-.576-.817zm44.539 25.275 1 3.5 1.923-.55-1-3.5zm2.281 4.172 15.167-5.123-.64-1.895-15.167 5.124zm15.807-6.35-4.225-14.508-1.92.559 4.225 14.508zm-4.209-14.444a17.73 17.73 0 0 0 -12.436-13.231l-.55 1.923a15.73 15.73 0 0 1 11.033 11.739zm-22.16 44.317c4.106 1.027 6.481.601 7.842-.42a3.51 3.51 0 0 0 1.215-1.614c.089-.245.135-.46.159-.621.012-.081.018-.15.022-.203a.91.91 0 0 0 .003-.068c.001-.009.001-.018.001-.025 0-.018 0-.019-1-.019s-1-.001-1-.002l.001-.021c-.001.004-.002.02-.006.044-.007.05-.023.132-.06.231-.07.193-.215.458-.535.698-.639.479-2.263 1.053-6.157.08zm-32.706-11.786c-.436 1.307-.438 2.525.03 3.617.46 1.073 1.32 1.9 2.37 2.548 2.066 1.276 5.164 2.036 8.575 2.591 3.439.56 7.372.936 11.167 1.36 3.822.428 7.511.907 10.564 1.67l.485-1.94c-3.198-.799-7.008-1.29-10.827-1.717-3.846-.431-7.694-.797-11.068-1.347-3.401-.554-6.147-1.27-7.846-2.319-.833-.514-1.336-1.061-1.582-1.634-.237-.554-.285-1.254.029-2.197zm41.91 9.091c1.042-3.649 1.319-9.183 1.334-14.132.015-4.98-.237-9.516-.296-11.179l-1.999.072c.061 1.709.31 6.173.295 11.101-.015 4.958-.3 10.237-1.257 13.588zm-40.128-33.844-.831 12 1.995.138.831-12zm-.831 11.992-1 13 1.994.154 1-13zm-.966-8.579c.544-.347 1.413-1 2.114-1.54l.92-.718.281-.222.077-.061c.008-.007.015-.012.02-.016s.007-.006-.617-.787l-.625-.781c-.01.008-.017.013-.025.02a2.38 2.38 0 0 1 -.075.059l-.274.218-.902.703c-.714.55-1.512 1.147-1.968 1.437zm-12.401-13.848c-.605 1.039-.721 2.281-.598 3.619s.498 2.9 1.001 4.66l1.923-.55c-.497-1.74-.828-3.149-.932-4.293s.029-1.904.334-2.428zm.403 8.279c.552 1.931 1.767 3.855 3.011 5.321.627.739 1.282 1.386 1.896 1.877.58.465 1.236.882 1.856 1.007l.396-1.96c-.13-.026-.474-.185-1.003-.608-.495-.397-1.059-.949-1.62-1.61-1.131-1.333-2.165-3.008-2.613-4.577zm6.763 8.205c1.174.237 2.065-.259 2.803-.802.355-.261.752-.592 1.125-.889.392-.312.816-.633 1.307-.945l-1.074-1.688c-.575.366-1.06.735-1.477 1.067l-1.065.844c-.604.443-.897.519-1.223.453z" fill="#222" mask="url(#d)"/><path d="m242 290.5c-.5-3 .271-4.633 1-8 0 0-7.839-2.071-12-2.5-.171 5.37-.542 4.953-1 9.395 5.824 2.563 10.911.544 12 1.105z" fill="#fff" stroke="#000" stroke-width=".6"/><path d="m238 281s1.5 0 6 1.5c7-21.5 10.321-42.739 15.5-64l3-14 3-11.5-3.5-10.5c-3.5-8-4.031 42.5-24 98.5z" fill="#c4c4c4"/><path d="m279.102 117.041a18.04 18.04 0 0 1 -4.614 4.24c-2.192 1.385-4.845 2.303-7.656 1.789-1.416-.259-2.398-.735-3.064-1.319a3.71 3.71 0 0 1 -1.197-2.026c-.321-1.431.108-3.013.643-4.095.585-.064 1.293-.442 1.818-1.313.581-.964.933-2.519.699-4.932-.213-2.179 1.487-3.911 3.89-5.211 2.23-1.207 4.955-1.976 6.921-2.34l-.338 5.955.06 3.287c.067.972.191 1.818.404 2.38l.28-.107-.28.107c.706 1.857 1.783 3.056 2.434 3.585z" fill="#fff" stroke="#222" stroke-width=".6"/><path d="m282.654 87.362c3.824 9.081-2.389 13.86-4.558 12.809l-6.901-.153c-2.366-.052-7.82-3.176-10.252-4.732-2.44-1.139-8.05-3.932-5.776-6.385 4.231-3.422-1.604-6.657 4.742-9.657s9.536.804 16.054.948 3.824 4.779 6.691 7.169z" fill="#222"/><g stroke-width=".6"><path d="m276.79 102.409.011.287c.054 1.447-.838 3.622-2.622 5.392-1.771 1.757-4.393 3.083-7.756 2.871l-.019.3.019-.3c-1.898-.119-3.263-1.155-4.279-2.814-1.024-1.67-1.679-3.952-2.136-6.498l-.755-5.837c-.136-1.866-.137-3.595.083-4.866l5.041-1.512-.121.157c-.238.315-.472.662-.581.993-.056.169-.087.353-.055.537a.82.82 0 0 0 .292.496c.301.252.806.366 1.508.381a14.67 14.67 0 0 0 3.926-.454c.909-.235 1.703-.546 2.274-.889.316 1.479 1.033 2.235 1.684 2.791l.301.25.569.516c.197.225.309.458.302.792l-.106 4.798-.006.271.269.033c.604.075 1.108-.017 1.52-.234s.705-.547.913-.913c.369-.649.479-1.436.472-2.024.419-.208.933-.326 1.328-.181s.823.616.792 2.035c-.031 1.4-.489 2.278-1.019 2.814-.538.542-1.167.752-1.562.784l-.287.023z" fill="#fff" stroke="#222"/><path d="m295 311c4.716-.418 13.647-1.476 14.5-3.5.643-1.523-1.005-9.506-2.5-14.5-5.466 1.167-11.5.5-11.5.5l.5 6.5c-4.317 4.537-10 3.5-13 6.5-1.6 1.6 1.5 6 12 4.5z" fill="#222" stroke="#000"/><g stroke="#222"><g stroke-linecap="round"><path d="m265.5 97.5-.666 4.573a1 1 0 0 0 .968 1.143l.777.018"/><path d="m268.218 105.307c-.592.755-2.222 1.811-4 0" stroke-linejoin="round"/></g><path d="m292.066 157.293.324-.073-.105-.315-2.404-7.211 10.417-3.315 3.414 11.705.002.007.003.008c.993 2.853.947 4.47.043 5.67-.462.615-1.17 1.148-2.153 1.679s-2.217 1.047-3.718 1.638c-1.463.577-3.961 1.065-6.915 1.47l-9.497.965-8.382.522-2.629.12-.723.028-.189.007-.048.002h-.012-.003-.001l.01.3-.01-.3-.073.003-.064.035-.057.033c-1.024.575-2.666 1.496-4.371 1.939l-.015.003-.014.006c-.866.32-2.246.565-3.855.665-1.603.101-3.411.055-5.123-.194s-3.314-.702-4.514-1.403c-1.19-.695-1.958-1.614-2.104-2.804.005-.512.229-.887.597-1.178.383-.305.923-.516 1.526-.661.908-.219 1.87-.271 2.54-.308l.567-.038c2.501-.25 3.66-.502 4.201-.705a1.67 1.67 0 0 0 .327-.157.61.61 0 0 0 .203-.201c.053-.093.066-.196.041-.29-.007-.027-.017-.05-.027-.07s-.014-.031-.022-.045a.5.5 0 0 0 -.135-.148c-.109-.082-.278-.156-.545-.223-.537-.134-1.567-.259-3.573-.259-.721 0-1.079-.462-1.07-.86.008-.376.366-.936 1.596-1.041l.005-.001 4.84-.5.009-.001.009-.001c.116-.019.322-.017.598.008l.893.123c.618.108 1.218.251 1.499.348l.012.006.089.047.329.17 1.125.554c.898.428 2.038.936 2.975 1.234.198.063.474.045.756.004.3-.044.667-.125 1.082-.233l3.013-.924 3.416-1.176 3.418-1.172 8.727-2.564 2.732-.69.751-.178.196-.045.05-.012.012-.003h.003.001l-.066-.293z" fill="#fff"/><path d="m291 157.5s3.5-.5 5.5-.5" stroke-linecap="round" stroke-linejoin="round"/></g><path d="m229 303.5c6-1 12.646.524 13.5-1.5 1.5-2.5-.5-10-.5-15.5-5.467 1.167-12 0-12 0l-1 4.5c-4.317 4.537-12.288 5.584-14.5 9-1.23 1.9 1.045 6.128 14.5 3.5z" fill="#222" stroke="#000"/></g><path d="m167 313h149m-313 0h84" stroke="#222" stroke-linecap="round" stroke-linejoin="round" stroke-width="3"/><path d="m297.524 35.839c4.403 8.843 1.195 19.177-7.069 23.121-8.272 3.947-18.575.049-22.979-8.799s-1.195-19.177 7.069-23.121c8.272-3.947 18.575-.049 22.979 8.799z" fill="#757575" stroke="#2a2a2f"/><path d="m288.851 36.051 2.192 2.149-9.852 13.75-8.017-7.432 1.768-2.61 5.835 5.409z" fill="#fff"/><g stroke="#000"><path d="m187.042 73.5c-1.924 0-4.575-1.08-5.447-4.125-.25-1.092.008-2.047.593-2.731.589-.689 1.548-1.144 2.77-1.144 2.483 0 4.927 1.877 5.445 4.113.254 1.097-.004 2.057-.591 2.743s-1.548 1.144-2.77 1.144z"/><path d="m190.5 69.5h40.27a1 1 0 0 0 .979-1.204l-4.498-21.592a1 1 0 0 1 .979-1.204h32.27m41.008-11.525c5.544 11.078 1.527 24.098-8.971 29.083s-23.502.044-29.045-11.033-1.527-24.098 8.971-29.083 23.502-.044 29.045 11.033z" stroke-dasharray="2 4" stroke-linecap="round" stroke-linejoin="round"/></g><path d="m285.5 139.5.5 4m0 4v-4m0 0 1 4m-37.5-15c-2 4-2.5 17.5-2.5 17.5" stroke="#222" stroke-linecap="round" stroke-linejoin="round"/><g fill="#0a0b1f"><path d="m262.295 98.239c.442.004.801-.545.803-1.225s-.354-1.235-.795-1.239-.801.545-.803 1.225.354 1.235.795 1.239z"/><path d="m269.795 98.464c.442.004.801-.545.803-1.225s-.354-1.235-.795-1.239-.801.545-.803 1.225.354 1.235.795 1.239z"/></g><path d="m228 132s1.515 1.015 2 1.5" stroke="#222" stroke-linecap="round" stroke-linejoin="round" stroke-width=".6"/></g></svg>